<svg width="71" height="71" viewBox="0 0 71 71" fill="none" xmlns="http://www.w3.org/2000/svg">
<path fill-rule="evenodd" clip-rule="evenodd" d="M70.8647 35.2437C70.8647 54.5738 55.1945 70.2437 35.8647 70.2437C16.5347 70.2437 0.864746 54.5738 0.864746 35.2437C0.864746 15.9139 16.5347 0.243713 35.8647 0.243713C55.1945 0.243713 70.8647 15.9139 70.8647 35.2437Z" fill="#62BBB8"/>
<mask id="mask0" mask-type="alpha" maskUnits="userSpaceOnUse" x="0" y="0" width="71" height="71">
<path fill-rule="evenodd" clip-rule="evenodd" d="M70.8647 35.2437C70.8647 54.5738 55.1945 70.2437 35.8647 70.2437C16.5347 70.2437 0.864746 54.5738 0.864746 35.2437C0.864746 15.9139 16.5347 0.243713 35.8647 0.243713C55.1945 0.243713 70.8647 15.9139 70.8647 35.2437Z" fill="white"/>
</mask>
<g mask="url(#mask0)">
<path fill-rule="evenodd" clip-rule="evenodd" d="M1.97168 48.2056H70.947L66.2754 62.8638L53.085 71.9905L29.4519 74.7561L11.0401 70.0544L1.97168 48.2056Z" fill="#2E9E9E"/>
<path fill-rule="evenodd" clip-rule="evenodd" d="M55.6987 26.6627L68.0101 38.9893L68.5267 38.4079L56.2155 26.0812L55.6987 26.6627Z" fill="#B78467"/>
<path fill-rule="evenodd" clip-rule="evenodd" d="M53.7526 33.5211L39.4365 28.4965L43.8526 16.7606L58.1689 21.7852L53.7526 33.5211Z" fill="#0084D6"/>
<path fill-rule="evenodd" clip-rule="evenodd" d="M13.8027 70.9859H56.1971V26.6197H13.8027V70.9859Z" fill="#F0B883"/>
<path fill-rule="evenodd" clip-rule="evenodd" d="M34.5071 11.2138L30.7541 11.831L30.5635 9.49038L34.3166 8.87324L34.5071 11.2138Z" fill="#CCCCCC"/>
<path fill-rule="evenodd" clip-rule="evenodd" d="M38.451 25.64L29.9312 26.6197L28.6189 15.3637C28.3631 13.1701 29.9466 11.1857 32.1557 10.9319L32.6753 10.8719C34.8844 10.6182 36.8825 12.1907 37.1384 14.384L38.451 25.64Z" fill="#F1F1F1"/>
<path fill-rule="evenodd" clip-rule="evenodd" d="M35.0839 9.59607L29.6961 10.3521L29.5776 9.0755L34.9655 8.31946L35.0839 9.59607Z" fill="#F1F1F1"/>
<path fill-rule="evenodd" clip-rule="evenodd" d="M32.5352 26.6C32.5352 26.6 36.5124 10.9593 41.0909 13.0006C45.6694 15.0416 44.8797 23.2921 42.1814 29.2509C41.5384 30.7503 32.5352 26.6 32.5352 26.6Z" fill="#F3BE81"/>
<path fill-rule="evenodd" clip-rule="evenodd" d="M30.5635 62.1127H38.4508V40.4225H30.5635V62.1127Z" fill="#D56164"/>
<path fill-rule="evenodd" clip-rule="evenodd" d="M23.6621 54.2254H46.3382V47.3239H23.6621V54.2254Z" fill="#D56164"/>
<path fill-rule="evenodd" clip-rule="evenodd" d="M19.9976 28.4638C19.9976 28.4638 14.4302 21.0972 20.8068 19.6645C24.7871 18.7702 30.8651 17.9555 33.8599 20.0605C35.6631 21.3283 35.5388 24.3749 35.4501 27.0672C35.4501 29.2166 19.9976 28.4638 19.9976 28.4638Z" fill="#404E74"/>
<path fill-rule="evenodd" clip-rule="evenodd" d="M15.0727 28.3214C15.0727 28.3214 9.49326 20.6729 15.8839 19.1854C22.2745 17.6979 30.7953 19.75 30.5585 27.188C30.5585 29.4194 15.0727 28.3214 15.0727 28.3214Z" fill="#CCCCCC"/>
<path fill-rule="evenodd" clip-rule="evenodd" d="M14.0867 28.4575C14.0867 28.4575 8.5076 20.7286 14.8979 19.2254C21.2885 17.7223 29.8091 19.4757 29.5727 26.9922C29.5727 29.2474 14.0867 28.4575 14.0867 28.4575Z" fill="#404E74"/>
<path fill-rule="evenodd" clip-rule="evenodd" d="M14.992 27.4698L3.43502 40.2591L2.7545 39.5725L14.3111 26.7833L14.992 27.4698Z" fill="#B78467"/>
<g opacity="0.389946">
<path fill-rule="evenodd" clip-rule="evenodd" d="M13.8027 42.3944H56.1971V36.4789H13.8027V42.3944Z" fill="#B78467" style="mix-blend-mode:multiply"/>
</g>
<path fill-rule="evenodd" clip-rule="evenodd" d="M63.0985 40.4225H7.88721L14.041 26.6197H56.9447L63.0985 40.4225Z" fill="#B78467"/>
<path fill-rule="evenodd" clip-rule="evenodd" d="M37.4648 19.9092C37.4648 19.9092 41.5048 19.1457 43.3803 20.6726C42.659 20.8907 37.4648 19.9092 37.4648 19.9092Z" fill="#B78467"/>
<path fill-rule="evenodd" clip-rule="evenodd" d="M37.4648 22.8669C37.4648 22.8669 41.5048 22.1035 43.3803 23.6303C42.659 23.8486 37.4648 22.8669 37.4648 22.8669Z" fill="#B78467"/>
</g>
</svg>
