<?xml version="1.0" encoding="UTF-8"?><svg xmlns="http://www.w3.org/2000/svg" viewBox="0 0 479.25 479.25"><defs><style>.i{fill:#f7d7be;}.j{fill:#68b7b8;}.k{fill:#ffc02e;}.l{fill:#fecda7;}.m{fill:#fec69b;}.n{fill:#ba6d82;}.o{fill:none;stroke:#8f334c;stroke-miterlimit:10;stroke-width:2px;}</style></defs><g id="a"/><g id="b"><g id="c"><circle class="j" cx="239.625" cy="239.625" r="239.625"/></g><g id="d"><path class="n" d="M121.252,170.632l43.213,22.224,35.314-33.93c98.613,18.382,179.086,95.046,179.086,95.046l-16.008,30.014-14.007-5.002-12.006,25.012-19.009-7.003-13.032,27.148-15.982-7.138-13.006,22.011L97.794,255l23.458-84.368Z"/></g><g id="e"><path class="m" d="M274.31,144.034l-63.127,31.793-1.912,49.434c11.309,7.946,23.946-3.574,23.946-3.574l3.746-26.418,37.859-7.87,102.044,64.573s26.05-46.848-16.548-98.927l-50.183,29.924-35.823-38.934Z"/></g><g id="f"><polyline class="o" points="349.231 279.115 330.929 269.137 310.244 257.859"/><polyline class="o" points="317.805 297.238 302.321 288.669 284.821 278.984"/><polyline class="o" points="288.791 317.248 273.307 308.679 255.807 298.994"/></g><g id="g"><g><polygon class="k" points="106.735 89.331 132.12 79.888 143.772 125.231 134.56 131.886 106.735 89.331"/><polygon class="k" points="212.786 56.75 240.094 52.875 237.826 101.511 223.214 103.788 212.786 56.75"/><polygon class="k" points="329.373 62.88 353.775 82.742 315.596 121.43 304.83 112.049 329.373 62.88"/></g><polygon class="k" points="359.96 379.222 338.595 395.868 313.835 356.136 320.616 347.017 359.96 379.222"/><polygon class="k" points="258.989 412.766 231.795 417.375 232.752 368.696 247.297 366.026 258.989 412.766"/><polygon class="k" points="121.37 398.324 100.805 374.511 145.145 343.073 154.11 354.187 121.37 398.324"/></g><g id="h"><path class="l" d="M157.051,266.797l-14.531,13.328-10.58,9.705,10.935,10.935,12.79,12.79,22.687-32.038c-.28-3.521-2.982-8.67-7.352-12.029-3.639-2.797-8.434-4.352-13.95-2.692Z"/><path class="l" d="M185.798,284.115l-23.552,30.826,11.004,7.046,13.068,8.367,19.05-31.865c.746-9.161-12.364-16.763-19.569-14.374Z"/><path class="l" d="M214.027,300.567l-20.435,31.865,11.158,5.687,15.684,7.994,14.893-36.021c-1.01-3.587-4.23-7.592-8.518-9.717-3.708-1.837-8.215-2.269-12.783,.192Z"/><path class="l" d="M245.026,313.902l-13.681,30.306,12.78,3.639,13.37,3.807,6.234-30.133c-2.432-5.451-5.969-7.819-9.479-8.588-3.461-.758-6.896,.039-9.224,.968Z"/><polygon class="i" points="211.408 206.949 221.927 207.929 219.064 224.662 209.785 224.245 211.408 206.949"/><path class="i" d="M159.761,267.979l-9.797,9.355,15.773,14.963,9.03-10.311s-2.03-12.107-15.007-14.007Z"/><path class="i" d="M186.831,287.765c3.29-1.031,6.364-.381,8.919,1.054,4.05,2.275,6.797,6.523,7.031,9.173l-6.003,8.004c-4.48,.62-15.054-6.585-16.008-11.005,0,0,3.41-6.395,6.061-7.226Z"/><path class="i" d="M216.018,302.036c3.608-.703,6.587-.212,8.982,.801,5.363,2.269,7.796,7.162,7.796,7.162l-5.002,11.005s-11.688-2.275-17.441-10.022l5.666-8.947Z"/><path class="i" d="M246.769,315.767l-2.677,6.724c1.907,3.614,8.861,6.623,14.802,6.935l1.916-7.421c-.51-5.242-9.516-8.485-14.041-6.237Z"/></g></g></svg>