<svg width="72" height="72" viewBox="0 0 72 72" fill="none" xmlns="http://www.w3.org/2000/svg">
<path fill-rule="evenodd" clip-rule="evenodd" d="M72 36C72 55.8824 55.8824 72 36 72C16.1179 72 0 55.8824 0 36C0 16.1179 16.1179 0 36 0C55.8824 0 72 16.1179 72 36Z" fill="#B96D82"/>
<mask id="mask0_0_5539" style="mask-type:alpha" maskUnits="userSpaceOnUse" x="0" y="0" width="72" height="72">
<path fill-rule="evenodd" clip-rule="evenodd" d="M72 36C72 55.8824 55.8824 72 36 72C16.1179 72 0 55.8824 0 36C0 16.1179 16.1179 0 36 0C55.8824 0 72 16.1179 72 36Z" fill="white"/>
</mask>
<g mask="url(#mask0_0_5539)">
<path fill-rule="evenodd" clip-rule="evenodd" d="M60.5368 39.3606C59.0859 45.2395 54.3986 47.9893 49.4635 49.3C49.2735 49.9899 49.0803 50.6855 48.884 51.387C54.1435 50.1772 59.3306 47.4624 60.8708 41.2215C61.3558 39.2555 61.3012 37.211 60.7958 35.1665C60.9494 36.5846 60.8744 37.9916 60.5368 39.3606Z" fill="#B78467"/>
<path fill-rule="evenodd" clip-rule="evenodd" d="M53.3944 38.9334C53.4077 38.9596 53.4156 38.9875 53.4281 39.014C53.4725 38.3398 53.3608 37.6773 53.0604 37.0725C52.9761 36.9023 52.8757 36.7446 52.7683 36.5933C52.6735 36.9834 52.5765 37.3794 52.4784 37.7792C52.8548 38.0957 53.169 38.4792 53.3944 38.9334Z" fill="#B78467"/>
<path fill-rule="evenodd" clip-rule="evenodd" d="M20.2241 70.1098C14.1174 68.756 -2.5793 56.768 -5.71173 42.7939C-3.74025 57.5501 14.1819 70.5573 20.5581 71.9708C25.7531 73.1223 32.7864 74.6734 35.9901 69.3609C37.3371 67.1273 37.4282 65.2838 36.8521 63.7176C36.8518 64.8428 36.504 66.0936 35.6558 67.4997C32.4524 72.8125 25.4191 71.2614 20.2241 70.1098Z" fill="#B78467"/>
<path fill-rule="evenodd" clip-rule="evenodd" d="M36.7819 50.6076C32.5691 50.8368 29.4672 53.5645 31.0414 55.8528C31.5261 54.1531 34.0219 52.6369 37.1159 52.4685C38.5342 52.3914 40.9732 52.4149 43.7719 52.1673C43.96 51.5124 44.1478 50.8627 44.3353 50.2183C41.1652 50.5601 38.3501 50.5223 36.7819 50.6076Z" fill="#B78467"/>
<path fill-rule="evenodd" clip-rule="evenodd" d="M46.1998 37.5765C46.9374 37.1893 47.699 36.9451 48.4428 36.8305C48.6574 36.1692 48.869 35.5259 49.0791 34.8931C48.0423 34.8916 46.9289 35.1573 45.8658 35.7156C43.0422 37.1983 41.6352 40.1837 42.6799 42.4252C42.8004 40.5928 44.1109 38.6734 46.1998 37.5765Z" fill="#B78467"/>
<path fill-rule="evenodd" clip-rule="evenodd" d="M55.5307 19.5705C55.1817 19.4648 54.5094 20.5623 53.6064 22.6019C53.4517 22.951 53.2908 23.3266 53.1231 23.7296C53.0187 23.9816 52.9121 24.2402 52.8027 24.5125L54.5394 25.0377C54.7479 25.242 54.9518 25.4485 55.152 25.6563C55.1769 25.5189 55.2029 25.3784 55.2264 25.2452C55.2787 24.9469 55.3265 24.6624 55.3717 24.3851C55.8548 21.4401 55.9382 19.6935 55.5307 19.5705Z" fill="#404E74"/>
<path fill-rule="evenodd" clip-rule="evenodd" d="M55.1521 25.6559C54.9518 25.4482 54.7479 25.2419 54.5395 25.0374L52.8025 24.5122C52.4252 25.4499 52.0199 26.5073 51.5909 27.6702L54.585 28.5753C54.8025 27.5209 54.9911 26.548 55.1521 25.6559Z" fill="#165ED9"/>
<path fill-rule="evenodd" clip-rule="evenodd" d="M52.7683 36.5933C53.4931 33.6067 54.1054 30.9029 54.5851 28.5753L51.5909 27.6704C50.8208 29.7577 49.9744 32.1927 49.079 34.8933C50.6178 34.8953 51.9837 35.4897 52.7683 36.5933Z" fill="#404E74"/>
<path fill-rule="evenodd" clip-rule="evenodd" d="M49.0791 34.8936C48.8692 35.5261 48.6577 36.1694 48.4427 36.831C48.2886 37.3047 48.1336 37.7844 47.9772 38.2721C47.3324 40.2849 46.6681 42.4178 45.9941 44.6381C47.2179 44.7899 48.6003 44.5496 49.9083 43.863C50.3582 43.6264 50.768 43.3486 51.1419 43.0448C51.4578 41.8339 51.761 40.6509 52.0497 39.5031C52.1965 38.9186 52.3388 38.3457 52.4785 37.7795C52.5766 37.3797 52.6736 36.9837 52.7683 36.5936C51.9838 35.49 50.6176 34.8956 49.0791 34.8936Z" fill="#2A3961"/>
<path fill-rule="evenodd" clip-rule="evenodd" d="M43.7718 52.1672C43.7107 52.3799 43.6497 52.59 43.5889 52.8038C38.2392 71.535 34.9119 87.0246 36.1574 87.4011C37.4029 87.7776 42.7495 72.8983 48.0991 54.1672C48.3667 53.2307 48.6272 52.306 48.8839 51.3872C47.1447 51.7873 45.3977 52.0235 43.7718 52.1672Z" fill="#2A3961"/>
<path fill-rule="evenodd" clip-rule="evenodd" d="M44.3353 50.2185C44.1478 50.863 43.96 51.5127 43.7719 52.1676C45.3978 52.0239 47.1447 51.7876 48.884 51.3876C49.0803 50.6858 49.2735 49.9901 49.4635 49.3003C47.7418 49.7577 45.9906 50.0402 44.3353 50.2185Z" fill="#B78467"/>
<path fill-rule="evenodd" clip-rule="evenodd" d="M60.7958 35.1666C60.3985 31.4966 58.442 27.7509 55.3718 24.3849C55.3265 24.6621 55.2787 24.9467 55.2264 25.2449C55.2029 25.3782 55.1769 25.5187 55.152 25.656C54.9908 26.5481 54.8025 27.521 54.5847 28.5754C54.1053 30.9027 53.4928 33.6065 52.7682 36.5931C52.8757 36.7444 52.9761 36.9018 53.0604 37.0723C53.3607 37.6772 53.4724 38.34 53.428 39.0141C53.3335 40.4514 52.5041 41.9391 51.1418 43.0447C50.7679 43.3481 50.3584 43.6263 49.9084 43.8625C48.6001 44.5495 47.2177 44.7898 45.994 44.6376C44.5449 44.4578 43.3189 43.7255 42.7137 42.5058C42.7006 42.4794 42.6922 42.4517 42.68 42.4252C41.6353 40.1838 43.0423 37.1983 45.8659 35.7156C46.929 35.1573 48.0421 34.892 49.0789 34.8934C49.9746 32.1928 50.8208 29.7578 51.5909 27.6703C52.0199 26.5073 52.4252 25.45 52.8024 24.5123C52.9122 24.24 53.0188 23.9813 53.1231 23.7293C53.2908 23.3264 53.4518 22.9508 53.6065 22.6016C42.6017 12.3718 21.1337 6.8388 3.57779 20.7768C-5.33617 27.8533 -7.32717 35.5876 -5.71175 42.7942C-2.57932 56.7679 14.1174 68.756 20.2241 70.1098C25.4191 71.2616 32.4524 72.8124 35.6561 67.4999C36.5039 66.0938 36.8518 64.843 36.8521 63.7176C36.8527 60.5913 34.1467 58.4412 31.8435 56.6775C31.4984 56.413 31.236 56.1363 31.0414 55.8529C29.4673 53.5646 32.5689 50.8369 36.7819 50.6076C38.3501 50.5221 41.1655 50.5602 44.3353 50.2184C45.9903 50.04 47.7418 49.7575 49.4633 49.3001C54.3986 47.9894 59.086 45.2396 60.5368 39.3607C60.8745 37.9917 60.9494 36.585 60.7958 35.1666Z" fill="#FFC996"/>
<path fill-rule="evenodd" clip-rule="evenodd" d="M4.23279 47.9482C5.54335 47.8813 6.87879 47.808 8.10535 47.3288C9.33219 46.8499 10.455 45.89 10.8079 44.5901C11.1609 43.2898 10.5149 41.6858 9.25554 41.3064C9.4258 40.8487 9.18116 40.2732 8.73885 40.0908C8.50553 39.9951 8.24166 39.9997 8.01117 39.8968C7.64917 39.735 7.43989 39.3437 7.12031 39.1051C6.36152 38.538 5.32106 38.9791 4.41464 39.2264C3.50795 39.4737 2.19881 39.1964 2.1824 38.2319C1.82578 39.4391 0.374385 39.8872 -0.345655 40.9081C-2.77417 44.35 1.06388 48.1103 4.23279 47.9482Z" fill="#D56164"/>
<path fill-rule="evenodd" clip-rule="evenodd" d="M13.3814 60.0547C14.692 59.9878 16.0274 59.9144 17.2543 59.4352C18.4811 58.9563 19.6036 57.9965 19.9565 56.6965C20.3095 55.3963 19.6635 53.7923 18.4042 53.4129C18.5744 52.9552 18.3298 52.3794 17.8875 52.1973C17.6544 52.1015 17.3903 52.1062 17.1601 52.0032C16.7981 51.8414 16.5885 51.4501 16.2692 51.2115C15.5102 50.6445 14.47 51.0855 13.5636 51.3328C12.6569 51.5802 11.3474 51.3029 11.331 50.3384C10.9744 51.5455 9.52301 51.9936 8.80297 53.0145C6.37475 56.4565 10.2125 60.2167 13.3814 60.0547Z" fill="#EF9580"/>
<path fill-rule="evenodd" clip-rule="evenodd" d="M9.55818 33.8091C10.8687 33.7421 12.2042 33.6688 13.431 33.1896C14.6579 32.7107 15.7806 31.7509 16.1336 30.4509C16.4865 29.1507 15.8403 27.5466 14.5809 27.1672C14.7512 26.7096 14.5065 26.1338 14.0645 25.9517C13.8312 25.8559 13.567 25.8606 13.3368 25.7576C12.9748 25.5958 12.7653 25.2045 12.446 24.9659C11.6872 24.3989 10.6467 24.8399 9.74031 25.0872C8.83362 25.3346 7.52419 25.0573 7.50779 24.0928C7.15117 25.2999 5.69977 25.748 4.97973 26.7689C2.5515 30.2109 6.38927 33.9711 9.55818 33.8091Z" fill="#0084D6"/>
<path fill-rule="evenodd" clip-rule="evenodd" d="M23.1995 26.8306C24.51 26.7636 25.8455 26.6903 27.0723 26.2111C28.2989 25.7322 29.4216 24.7724 29.7746 23.4724C30.1275 22.1721 29.4816 20.5681 28.2222 20.1887C28.3925 19.7311 28.1478 19.1556 27.7055 18.9731C27.4722 18.8774 27.2083 18.8821 26.9778 18.7791C26.6158 18.6173 26.4066 18.226 26.087 17.9874C25.3282 17.4203 24.2877 17.8614 23.3813 18.1087C22.4746 18.356 21.1655 18.0788 21.1491 17.1143C20.7925 18.3214 19.3411 18.7695 18.621 19.7904C16.1925 23.2324 20.0306 26.9926 23.1995 26.8306Z" fill="#62BBB8"/>
<path fill-rule="evenodd" clip-rule="evenodd" d="M38.51 29.0547C39.8206 28.9878 41.156 28.9144 42.3829 28.4352C43.6097 27.9563 44.7325 26.9965 45.0854 25.6965C45.4384 24.3963 44.7921 22.7923 43.5328 22.4129C43.703 21.9552 43.4584 21.3797 43.0164 21.1973C42.783 21.1015 42.5189 21.1062 42.2887 21.0032C41.9267 20.8414 41.7171 20.4501 41.3978 20.2115C40.639 19.6445 39.5986 20.0855 38.6922 20.3328C37.7855 20.5802 36.4763 20.3029 36.4596 19.3384C36.103 20.5455 34.6516 20.9936 33.9316 22.0145C31.5033 25.4565 35.3411 29.2167 38.51 29.0547Z" fill="#404E74"/>
<path fill-rule="evenodd" clip-rule="evenodd" d="M53.91 15.1456C53.5082 16.225 52.5548 17.0545 51.8882 18.0193C50.6899 19.7545 50.4481 21.9745 51.2253 24.1048C51.4917 24.8354 51.9001 25.5857 52.6298 26.133C53.3594 26.68 54.4748 26.9582 55.211 26.6148C55.5617 26.451 55.7893 26.172 55.9947 25.8933C57.4551 23.9125 58.2685 21.5409 57.9775 19.0542C57.7328 16.966 56.4435 13.6827 53.9109 12.3804C53.9836 13.3088 54.2432 14.2497 53.91 15.1456Z" fill="#7C4410"/>
</g>
</svg>
