<svg width="32" height="32" viewBox="0 0 32 32" fill="none" xmlns="http://www.w3.org/2000/svg">
<path fill-rule="evenodd" clip-rule="evenodd" d="M32 16C32 24.8366 24.8365 32 16 32C7.16339 32 0 24.8366 0 16C0 7.16352 7.16339 0 16 0C24.8365 0 32 7.16352 32 16Z" fill="#404E74"/>
<mask id="mask0_0_5543" style="mask-type:alpha" maskUnits="userSpaceOnUse" x="0" y="0" width="32" height="32">
<path fill-rule="evenodd" clip-rule="evenodd" d="M32 16C32 24.8366 24.8365 32 16 32C7.16339 32 0 24.8366 0 16C0 7.16352 7.16339 0 16 0C24.8365 0 32 7.16352 32 16Z" fill="white"/>
</mask>
<g mask="url(#mask0_0_5543)">
<path fill-rule="evenodd" clip-rule="evenodd" d="M19.9425 16.049C19.9425 22.973 18.2406 28.586 16.1413 28.586C14.0417 28.586 12.3398 22.973 12.3398 16.049C12.3398 9.12523 14.0417 3.51221 16.1413 3.51221C18.2406 3.51221 19.9425 9.12523 19.9425 16.049Z" stroke="#132A5D" stroke-width="0.84"/>
<path fill-rule="evenodd" clip-rule="evenodd" d="M18.042 12.773C24.0678 16.2349 28.1017 20.5081 27.0521 22.3173C26.0023 24.1265 20.2665 22.7867 14.2406 19.3247C8.21476 15.8628 4.18084 11.5897 5.23044 9.7805C6.28017 7.97118 12.0161 9.311 18.042 12.773Z" stroke="#132A5D" stroke-width="0.84"/>
<path fill-rule="evenodd" clip-rule="evenodd" d="M14.2406 12.773C20.2664 9.311 26.0023 7.97118 27.0521 9.7805C28.1017 11.5897 24.0678 15.8628 18.0419 19.3247C12.016 22.7867 6.28023 24.1265 5.23038 22.3173C4.18078 20.5081 8.2147 16.2349 14.2406 12.773Z" stroke="#132A5D" stroke-width="0.84"/>
<path fill-rule="evenodd" clip-rule="evenodd" d="M17.9237 15.8027C17.9237 16.7685 17.137 17.5515 16.1663 17.5515C15.1956 17.5515 14.4087 16.7685 14.4087 15.8027C14.4087 14.8367 15.1956 14.0537 16.1663 14.0537C17.137 14.0537 17.9237 14.8367 17.9237 15.8027Z" fill="#0084D6"/>
<path fill-rule="evenodd" clip-rule="evenodd" d="M19.5121 6.49401C19.5121 7.05763 19.053 7.51451 18.4866 7.51451C17.9204 7.51451 17.4614 7.05763 17.4614 6.49401C17.4614 5.93052 17.9204 5.47363 18.4866 5.47363C19.053 5.47363 19.5121 5.93052 19.5121 6.49401Z" fill="#FE9C86"/>
<path fill-rule="evenodd" clip-rule="evenodd" d="M27.2369 19.39C27.2369 19.9536 26.7777 20.4104 26.2113 20.4104C25.645 20.4104 25.186 19.9536 25.186 19.39C25.186 18.8265 25.645 18.3696 26.2113 18.3696C26.7777 18.3696 27.2369 18.8265 27.2369 19.39Z" fill="#FE9C86"/>
<path fill-rule="evenodd" clip-rule="evenodd" d="M6.81406 12.1029C6.81406 12.6665 6.35492 13.1233 5.78865 13.1233C5.22225 13.1233 4.76324 12.6665 4.76324 12.1029C4.76324 11.5394 5.22225 11.0825 5.78865 11.0825C6.35492 11.0825 6.81406 11.5394 6.81406 12.1029Z" fill="#FE9C86"/>
<path fill-rule="evenodd" clip-rule="evenodd" d="M15.1982 9.71909H14.6462V17.3772L21.6255 32.5467C21.809 32.9455 21.4472 33.3712 20.9262 33.369L2.40923 33.2925C1.89121 33.2903 1.5346 32.866 1.7179 32.4695L8.69693 17.3582V9.71909H8.14484C8.07854 9.71909 8.02465 9.66546 8.02465 9.59949V8.44639C8.02465 8.38028 8.07854 8.32666 8.14484 8.32666H15.1982C15.2647 8.32666 15.3185 8.38028 15.3185 8.44639V9.59949C15.3185 9.66546 15.2647 9.71909 15.1982 9.71909Z" fill="#F1F1F1"/>
<path fill-rule="evenodd" clip-rule="evenodd" d="M20.6899 32.4575L15.8609 21.9619H7.51529L2.70134 32.3854C2.62236 32.5563 2.77609 32.7395 2.99958 32.7404L20.3884 32.8122C20.6129 32.8131 20.769 32.6297 20.6899 32.4575Z" fill="#62BBB8"/>
<path fill-rule="evenodd" clip-rule="evenodd" d="M4.92917 32.3027L3.8468 32.2818L10.1593 17.7876V9.06641H11.0865V17.9787L4.92917 32.3027Z" fill="white" fill-opacity="0.7"/>
<path d="M9.98383 25.1431H14.2571" stroke="#F1F1F1" stroke-width="0.5"/>
<path d="M10.6203 26.9717H13.6206" stroke="#F1F1F1" stroke-width="0.5"/>
<path d="M10.6203 23.3145H13.6206" stroke="#F1F1F1" stroke-width="0.5"/>
<path d="M9.98383 28.8003H14.2571" stroke="#F1F1F1" stroke-width="0.5"/>
<path d="M10.6203 31.0859H13.6206" stroke="#F1F1F1" stroke-width="0.5"/>
<path fill-rule="evenodd" clip-rule="evenodd" d="M12.6971 5.69644C12.6971 6.22477 12.2666 6.65313 11.7356 6.65313C11.2048 6.65313 10.7743 6.22477 10.7743 5.69644C10.7743 5.1681 11.2048 4.73975 11.7356 4.73975C12.2666 4.73975 12.6971 5.1681 12.6971 5.69644Z" fill="#62BBB8"/>
<path fill-rule="evenodd" clip-rule="evenodd" d="M12.3284 5.34074C12.3284 5.52288 12.1801 5.67038 11.9971 5.67038C11.8142 5.67038 11.6658 5.52288 11.6658 5.34074C11.6658 5.15873 11.8142 5.01123 11.9971 5.01123C12.1801 5.01123 12.3284 5.15873 12.3284 5.34074Z" fill="white"/>
<path fill-rule="evenodd" clip-rule="evenodd" d="M13.5686 3.48755C13.5686 3.83095 13.2888 4.10938 12.9437 4.10938C12.5986 4.10938 12.3188 3.83095 12.3188 3.48755C12.3188 3.14416 12.5986 2.86572 12.9437 2.86572C13.2888 2.86572 13.5686 3.14416 13.5686 3.48755Z" fill="#62BBB8"/>
<path fill-rule="evenodd" clip-rule="evenodd" d="M10.9356 2.76978C10.9356 3.11317 10.6558 3.39161 10.3107 3.39161C9.9656 3.39161 9.68579 3.11317 9.68579 2.76978C9.68579 2.42638 9.9656 2.14795 10.3107 2.14795C10.6558 2.14795 10.9356 2.42638 10.9356 2.76978Z" fill="#62BBB8"/>
<path fill-rule="evenodd" clip-rule="evenodd" d="M13.3581 3.235C13.3581 3.34696 13.2668 3.43778 13.1542 3.43778C13.0416 3.43778 12.9504 3.34696 12.9504 3.235C12.9504 3.12304 13.0416 3.03223 13.1542 3.03223C13.2668 3.03223 13.3581 3.12304 13.3581 3.235Z" fill="white"/>
<path fill-rule="evenodd" clip-rule="evenodd" d="M10.8538 2.61355C10.8538 2.72551 10.7626 2.81632 10.6501 2.81632C10.5374 2.81632 10.4462 2.72551 10.4462 2.61355C10.4462 2.50146 10.5374 2.41064 10.6501 2.41064C10.7626 2.41064 10.8538 2.50146 10.8538 2.61355Z" fill="white"/>
</g>
</svg>
