<?xml version="1.0" encoding="UTF-8"?><svg xmlns="http://www.w3.org/2000/svg" viewBox="0 0 482.223 479.25"><defs><style>.k{fill:#68b7b8;}.l{fill:#ebe1e0;}.m,.n{fill:#e8dfde;}.o{fill:#fbcd91;}.p{fill:#fec02d;}.q{fill:#ba6c82;}.r{fill:#167ec9;}.s{fill:#142a5c;}.t{fill:#4c8585;}.n{stroke:#c7c6c6;stroke-width:4px;}.n,.u{stroke-miterlimit:10;}.u{fill:none;stroke:#c4c4c4;stroke-width:5px;}</style></defs><g id="a"/><g id="b"><g id="c"><circle class="t" cx="239.625" cy="239.625" r="239.625"/><path class="k" d="M280.157,475.667C-58.43,340.406,131.005,26.858,131.005,26.858c0,0,68.185,181.171,335.294,151.923,34.786,34.786,28.63,252.456-186.141,296.887Z"/></g><g id="d"><polyline class="m" points="292.226 315.942 343.401 315.793 350.877 406.113 276.131 406.113"/></g><g id="e"><polygon class="r" points="147.244 299.421 174.064 299.763 174.584 302.51 197.243 327.91 201.384 406.113 134.113 406.113 147.244 299.421"/></g><g id="f"><polygon class="l" points="207.821 183.608 276.342 196.586 277.224 303.827 199.881 305.877 207.821 183.608"/></g><g id="g"><path class="q" d="M210.996,57.353l-.285,36.665-.048,54.219c25.053,11.518,39.832,11.239,59.254,0V56.214s-27.872-27.467-58.92,1.139Z"/><path class="q" d="M202.283,90.196c-4.75,13.351,.2,22.346,.2,22.346h11.218l-.645-22.346h-10.773Z"/><path class="q" d="M270.253,90.196h11.619c5.346,11.673-.401,21.54-.401,21.54l-16.605,.112,5.387-21.652Z"/><polygon class="q" points="230.485 150.023 230.4 171.117 219.382 177.156 243.021 193.462 262.805 177.088 252.032 170.923 252.636 149.375 230.485 150.023"/><polyline class="u" points="208.291 180.288 221.367 212.783 241.094 197.792 264.866 214.209 277.224 181.503"/></g><g id="h"><path class="s" d="M210.996,95.244V51.94c7.433-4.817,26.306-16.092,46.058-6.513,6.874,3.333,10.265,3.799,13.195,6.513,.956,.885,2.388,47.839,0,43.305-2.188-4.155,.871-43.817-17.462-46.496-6.741-.985-8.91,5.407-13.151,5.399-4.552-.009-11.893-10.929-21.241-.902-8.671,9.3-4.028,37.886-7.399,42Z"/></g><g id="i"><g><polygon class="m" points="229.55 170.326 242.647 193.611 239.093 196.199 221.964 208.675 210.996 176.662 229.55 170.326"/><line class="u" x1="241.238" y1="304.819" x2="241.426" y2="199.105"/><polygon class="m" points="252.901 170.326 239.804 193.611 260.488 208.675 271.455 176.662 252.901 170.326"/><polygon class="p" points="221.634 171.028 216.815 303.097 173.283 305.877 179.238 193.803 221.634 171.028"/><polygon class="p" points="259.476 171.028 264.296 303.097 307.827 305.877 301.872 193.803 259.476 171.028"/></g></g><g id="j"><g><path class="q" d="M136.317,212.316v71.12c29.105,22.136,49.402,0,49.402,0v-71.12h-49.402Z"/><polygon class="q" points="148.667 289.363 148.667 299.421 172.855 299.756 173.368 289.363 148.667 289.363"/><polygon class="n" points="174.584 302.51 178.961 406.113 208.859 406.113 232.08 376.101 208.859 308.942 174.584 302.51"/><polygon class="n" points="146.906 301.891 141.587 406.113 111.689 406.113 81.79 376.214 111.689 308.942 146.906 301.891"/><path class="s" d="M183.06,233.761l1.972,49.84c-1.9,2.222-12.396,6.957-11.109,7.432,22.322,8.23,41.237-3.302,41.237-3.302,0,0-11.386-5.702-11.386-9.587,0-40.543,5.776-73.879-42.758-73.879-62.266,0-34.702,71.395-38.137,71.875l-15.842,11.208c18.288,12.985,43.008,3.547,41.629,3.237-.881-.198-9.688-5.417-12.35-7.972,0,0,1.522-47.071,0-48.566l46.744-.286Z"/></g><g><path class="o" d="M291.099,223.085v66.233c27.679,20.615,46.981,0,46.981,0v-66.233h-46.981Z"/><polygon class="o" points="302.845 294.838 302.845 311.396 295.262 311.645 314.59 327.954 332.208 311.396 326.335 311.396 326.335 294.838 302.845 294.838"/><polygon class="s" points="326.335 305.877 335.928 406.113 365.826 406.113 388.25 376.214 360.955 315.076 326.335 305.877"/><polygon class="s" points="302.845 305.877 298.555 406.113 268.656 406.113 246.232 376.214 273.482 316.915 302.845 305.877"/><path class="q" d="M292.405,224.312c-.345-3.6,41.27,14.668,45.231,26.717l.445,38.289c.104,1.998-12.144,6.203-11.217,7.075,14.525,13.651,40.052-4.16,36.871-10.749-11.968-24.791-5.083-25.795-7.768-33.573-7.55-21.878-12.129-28.985-12.129-28.985,0,0-17.439-21.619-52.083-5.759-19.853,9.089-4.967,34.792-11.602,44.359-4.425,6.381-11.301,3.073-11.602,6.195-1.018,10.577,7.814,9.466,4.549,11.576-11.319,7.313-5.192,15.526,1.9,19.024,12.682,6.256,29.155-3.355,27.843-3.643-3.984-.874-9.912-3.756-11.745-5.519l1.305-65.007Z"/></g></g></g></svg>