<?xml version="1.0" encoding="UTF-8"?><svg xmlns="http://www.w3.org/2000/svg" viewBox="0 0 479.315 481.042"><defs><style>.e{fill:#fff;}.f{fill:#fbcd91;}.g{fill:#cfcfcf;}.h{fill:#cba03c;}.i{fill:#0582d6;}</style></defs><g id="a"/><g id="b"><g id="c"><circle class="f" cx="239.69" cy="239.625" r="239.625"/><path class="h" d="M478.743,262.631c-9.871,69.385-33.901,117.194-64.125,149.942-86.898,94.154-225,63.808-225,63.808-30.061-8.308-55.761-19.436-77.625-32.634C-28.977,358.653-10.517,187.494,26.493,131.006c0,0,72.462,119.464,203.819,159.75,67.759,20.782,151.19,20.495,248.431-28.125Z"/></g><g id="d"><polygon class="i" points="109.617 145.222 109.617 332.386 182.855 332.386 166.58 373.074 239.818 332.386 386.294 332.386 386.294 145.222 109.617 145.222"/><rect class="e" x="117.754" y="153.359" width="260.402" height="170.889"/><ellipse class="g" cx="210.64" cy="237.221" rx="11.51" ry="10.624"/><ellipse class="g" cx="252.363" cy="237.221" rx="11.51" ry="10.624"/><ellipse class="g" cx="294.087" cy="237.221" rx="11.51" ry="10.624"/></g></g></svg>