<svg width="32" height="32" viewBox="0 0 32 32" fill="none" xmlns="http://www.w3.org/2000/svg">
<path fill-rule="evenodd" clip-rule="evenodd" d="M32 16C32 24.8366 24.8366 32 16 32C7.16352 32 0 24.8366 0 16C0 7.16352 7.16352 0 16 0C24.8366 0 32 7.16352 32 16Z" fill="#2E9E9E"/>
<mask id="mask0_0_5541" style="mask-type:alpha" maskUnits="userSpaceOnUse" x="0" y="0" width="32" height="32">
<path fill-rule="evenodd" clip-rule="evenodd" d="M32 16C32 24.8366 24.8366 32 16 32C7.16352 32 0 24.8366 0 16C0 7.16352 7.16352 0 16 0C24.8366 0 32 7.16352 32 16Z" fill="white"/>
</mask>
<g mask="url(#mask0_0_5541)">
<path fill-rule="evenodd" clip-rule="evenodd" d="M2.39606 30.4525C2.39606 30.4525 21.2806 0.860692 25.5383 -1.69629C30.1422 2.83581 27.8367 1.36443 27.8367 1.36443C27.8367 1.36443 6.68013 31.3318 6.67284 32.921C3.39848 31.8747 2.39606 30.4525 2.39606 30.4525Z" fill="#F1F1F1"/>
<path fill-rule="evenodd" clip-rule="evenodd" d="M15.1007 12.2117C15.1007 17.9313 10.5627 22.5679 4.96471 22.5679C-0.633384 22.5679 -5.17139 17.9313 -5.17139 12.2117C-5.17139 6.49208 -0.633384 1.85547 4.96471 1.85547C10.5627 1.85547 15.1007 6.49208 15.1007 12.2117Z" fill="#EF9580"/>
<mask id="mask1_0_5541" style="mask-type:alpha" maskUnits="userSpaceOnUse" x="-6" y="1" width="22" height="22">
<path fill-rule="evenodd" clip-rule="evenodd" d="M15.1007 12.2117C15.1007 17.9313 10.5627 22.5679 4.96471 22.5679C-0.633384 22.5679 -5.17139 17.9313 -5.17139 12.2117C-5.17139 6.49208 -0.633384 1.85547 4.96471 1.85547C10.5627 1.85547 15.1007 6.49208 15.1007 12.2117Z" fill="white"/>
</mask>
<g mask="url(#mask1_0_5541)">
<path fill-rule="evenodd" clip-rule="evenodd" d="M5.46073 9.98419C5.91285 9.98419 6.32392 9.97661 6.73409 9.99281C6.79175 9.99517 6.88164 10.1075 6.89468 10.1805C7.02523 10.913 7.25576 11.6087 7.64509 12.2384C8.06191 12.9124 8.61568 13.4707 9.16087 14.035C9.94235 14.8434 10.7365 15.6403 11.4902 16.4751C11.9347 16.9671 12.2833 17.542 12.4286 18.2117C12.5476 18.7611 12.4586 19.2599 12.0376 19.6702C10.6732 20.9992 9.07252 21.8805 7.23607 22.3028C6.73153 22.4189 6.21204 22.4647 5.70098 22.5524C5.50868 22.5854 5.45651 22.5183 5.45741 22.3258C5.4638 20.9882 5.46073 19.6506 5.46073 18.313V10.2669V9.98419Z" fill="#ED8870"/>
<path fill-rule="evenodd" clip-rule="evenodd" d="M4.4608 16.263C4.4608 18.2694 4.46092 20.2757 4.46067 22.2819C4.46067 22.5703 4.4599 22.571 4.1781 22.5473C1.84772 22.3497 -0.183202 21.4474 -1.92823 19.8581C-2.35004 19.4737 -2.44121 18.9982 -2.34749 18.4699C-2.24175 17.8734 -1.95624 17.3473 -1.58519 16.8914C-1.02145 16.1985 -0.420127 15.5364 0.181838 14.8772C0.779838 14.2223 1.40443 13.5931 2.00627 12.9418C2.70426 12.1869 3.08259 11.2689 3.25661 10.258C3.29011 10.0636 3.34931 9.96341 3.56143 9.97308C3.80334 9.98406 4.04691 9.9655 4.28946 9.95362C4.41029 9.94761 4.46399 9.99634 4.46105 10.1202C4.45773 10.2579 4.4608 10.396 4.4608 10.5339V16.263Z" fill="#ED8870"/>
<path fill-rule="evenodd" clip-rule="evenodd" d="M-5.16748 10.5689C-5.01085 9.97372 -4.88926 9.36612 -4.69133 8.7857C-3.92609 6.54107 -2.54367 4.78138 -0.608252 3.47016C-0.52412 3.4132 -0.435641 3.36252 -0.349081 3.30922C-0.00731087 3.09823 -0.00245237 3.09262 0.305179 3.36421C0.958798 3.94098 1.38138 4.68235 1.71675 5.48068C2.15327 6.51952 2.34966 7.61061 2.37945 8.73762C2.38431 8.91738 2.3439 8.9844 2.15237 8.9972C0.420637 9.11255 -1.29639 9.33568 -2.9775 9.79122C-3.66219 9.97673 -4.33498 10.2008 -4.96342 10.5441C-5.0042 10.5662 -5.04768 10.5833 -5.08987 10.6029C-5.1157 10.5916 -5.14165 10.5803 -5.16748 10.5689Z" fill="#ED8870"/>
<path fill-rule="evenodd" clip-rule="evenodd" d="M2.24448 10.0543C2.11022 10.9585 1.75094 11.7233 1.14936 12.3618C0.344478 13.2158 -0.474592 14.0558 -1.2796 14.9095C-1.92197 15.5909 -2.52904 16.3044 -2.9529 17.1544C-3.09265 17.4345 -3.18164 17.7411 -3.29288 18.0359C-3.31116 18.0848 -3.3251 18.1352 -3.36282 18.2532C-3.63056 17.7881 -3.88602 17.3834 -4.10377 16.9585C-4.85878 15.4857 -5.22983 13.913 -5.24223 12.2507C-5.24415 11.9996 -5.0833 11.8485 -4.90545 11.7462C-4.50806 11.5176 -4.10658 11.2839 -3.68196 11.1193C-2.47112 10.6503 -1.20032 10.4282 0.077507 10.2556C0.705299 10.1708 1.33744 10.1192 1.96804 10.0555C2.05333 10.0467 2.14027 10.0543 2.24448 10.0543Z" fill="#ED8870"/>
<path fill-rule="evenodd" clip-rule="evenodd" d="M15.0325 10.5893C14.5898 10.4069 14.1589 10.2141 13.7177 10.0508C12.7567 9.69533 11.7577 9.48905 10.7501 9.3413C9.82974 9.20648 8.90288 9.11647 7.97781 9.01718C7.83921 9.00242 7.79037 8.95735 7.79191 8.82031C7.81096 6.96956 8.25489 5.26264 9.43299 3.81099C9.59013 3.61752 9.79585 3.46193 9.99404 3.30895C10.049 3.26636 10.1792 3.26022 10.2384 3.29771C12.8677 4.9627 14.4593 7.35351 15.0196 10.4614C15.0277 10.5062 15.0289 10.5524 15.0325 10.5893Z" fill="#ED8870"/>
<path fill-rule="evenodd" clip-rule="evenodd" d="M7.91467 10.0508C8.41435 10.1045 8.88206 10.1519 9.34926 10.2056C10.5827 10.3471 11.8046 10.5554 12.9983 10.9105C13.6071 11.0916 14.2008 11.3104 14.7325 11.6806C15.0351 11.8912 15.1908 12.1385 15.1728 12.5372C15.0857 14.4534 14.5377 16.2143 13.5284 17.8282C13.5044 17.8665 13.4704 17.8982 13.4515 17.9208C13.2811 17.539 13.1343 17.149 12.9393 16.7862C12.4834 15.938 11.8327 15.2459 11.1755 14.5611C10.4154 13.7694 9.65178 12.981 8.89907 12.1818C8.35336 11.6025 8.07731 10.8846 7.91467 10.0508Z" fill="#ED8870"/>
<path fill-rule="evenodd" clip-rule="evenodd" d="M6.73917 8.91633C6.34613 8.91633 5.95641 8.91934 5.56682 8.91124C5.53051 8.91045 5.48358 8.84409 5.46351 8.79824C5.44612 8.75774 5.45916 8.70326 5.45916 8.65506V2.09663V1.83496C6.7292 1.86618 7.90257 2.18781 9.04602 2.66804C7.33883 4.40683 6.82714 6.5817 6.73917 8.91633Z" fill="#ED8870"/>
<path fill-rule="evenodd" clip-rule="evenodd" d="M4.43885 1.81738V8.90267H3.39731C3.40498 7.74404 3.21638 6.61154 2.83012 5.51235C2.44488 4.41643 1.92155 3.41195 1.04187 2.60422C2.13852 2.12987 3.25385 1.87904 4.43885 1.81738Z" fill="#ED8870"/>
<path fill-rule="evenodd" clip-rule="evenodd" d="M10.374 18.3675C4.87202 19.4227 -0.425339 15.721 -1.45806 10.0996C-1.88307 7.78615 -1.51829 5.50874 -0.55972 3.55518C-3.94123 5.76322 -5.85235 9.91712 -5.06653 14.1943C-4.0338 19.8157 1.26356 23.5173 6.76537 22.4622C10.003 21.8411 12.5885 19.7105 13.959 16.9174C12.8963 17.6115 11.6896 18.1151 10.374 18.3675Z" fill="#2A3961" fill-opacity="0.3"/>
</g>
<path fill-rule="evenodd" clip-rule="evenodd" d="M31.3038 21.8408C31.3038 27.5299 26.7898 32.142 21.2215 32.142C15.6535 32.142 11.1395 27.5299 11.1395 21.8408C11.1395 16.1516 15.6535 11.5396 21.2215 11.5396C26.7898 11.5396 31.3038 16.1516 31.3038 21.8408Z" fill="#2A3961" fill-opacity="0.3"/>
<ellipse cx="23.4057" cy="21.7464" rx="9.69143" ry="9.82988" fill="#2A3961"/>
<mask id="mask2_0_5541" style="mask-type:alpha" maskUnits="userSpaceOnUse" x="13" y="11" width="21" height="21">
<ellipse cx="23.4057" cy="21.7464" rx="9.69143" ry="9.82988" fill="white"/>
</mask>
<g mask="url(#mask2_0_5541)">
<path fill-rule="evenodd" clip-rule="evenodd" d="M23.6554 16.6885C23.266 16.2567 22.8855 15.8158 22.4803 15.4005C22.3935 15.3115 22.204 15.258 22.0824 15.2848C21.0665 15.5089 20.0566 15.7621 19.0414 15.9903C18.8261 16.0388 18.7121 16.1215 18.648 16.351C18.3764 17.3245 18.0867 18.2928 17.7903 19.2589C17.7272 19.4646 17.7582 19.5929 17.9127 19.7474C18.6647 20.4987 19.4109 21.2569 20.1377 22.0333C20.3176 22.2254 20.4745 22.2599 20.7105 22.2041C21.7712 21.953 22.8367 21.7233 23.8956 21.4651C24.0157 21.436 24.1652 21.295 24.2002 21.1751C24.4796 20.2169 24.7435 19.2535 24.987 18.2852C25.02 18.1541 24.9552 17.9508 24.8651 17.842C24.5101 17.4134 24.1269 17.009 23.7541 16.5957C23.7214 16.6265 23.6882 16.6576 23.6554 16.6885Z" fill="white"/>
<path fill-rule="evenodd" clip-rule="evenodd" d="M23.7541 16.5957C23.3647 16.1639 22.8855 15.8158 22.4803 15.4005C22.3935 15.3115 22.204 15.258 22.0824 15.2848C21.0665 15.5089 20.0566 15.7621 19.0414 15.9903C18.8261 16.0388 18.7121 16.1215 18.648 16.351C18.3764 17.3245 18.0867 18.2928 17.7903 19.2589C17.7272 19.4646 17.7582 19.5929 17.9127 19.7474C18.6647 20.4987 19.4109 21.2569 20.1377 22.0333C20.3176 22.2254 20.4745 22.2599 20.7105 22.2041C21.7712 21.953 22.8367 21.7233 23.8956 21.4651C24.0157 21.436 24.1652 21.295 24.2002 21.1751C24.4796 20.2169 24.7435 19.2535 24.987 18.2852C25.02 18.1541 24.9552 17.9508 24.8651 17.842C24.5101 17.4134 24.1269 17.009 23.7541 16.5957C23.7214 16.6265 23.7541 16.5957 23.6554 16.6885L23.7541 16.5957Z" fill="#F1F1F1"/>
<path fill-rule="evenodd" clip-rule="evenodd" d="M24.3713 22.327C24.2787 22.234 24.0878 22.1686 23.9636 22.1948C22.8487 22.4295 21.7372 22.6826 20.6288 22.9471C20.5288 22.9711 20.4079 23.0992 20.3781 23.2032C20.1023 24.1635 19.8357 25.1268 19.5913 26.0958C19.5569 26.2321 19.6114 26.4418 19.7017 26.5519C19.8745 26.7628 20.0552 26.9672 20.2384 27.1693C20.4215 27.3716 20.6072 27.5717 20.7898 27.7743C20.9684 27.9724 21.1489 28.1687 21.3279 28.3662C21.5071 28.5636 21.6845 28.7626 21.8574 28.9656C22.0067 29.1412 22.1492 29.1718 22.3686 29.1194C23.4527 28.861 24.5431 28.6286 25.6268 28.3686C25.7342 28.3429 25.8624 28.2074 25.8971 28.0956C26.2005 27.1183 26.4792 26.1327 26.7796 25.1542C26.8437 24.9457 26.8038 24.8175 26.6534 24.6655C25.8877 23.8912 25.1397 23.0984 24.3713 22.327Z" fill="white"/>
<path fill-rule="evenodd" clip-rule="evenodd" d="M24.3713 22.327C24.2787 22.234 24.0878 22.1686 23.9636 22.1948C22.8487 22.4295 21.7372 22.6826 20.6288 22.9471C20.5288 22.9711 20.4079 23.0992 20.3781 23.2032C20.1023 24.1635 19.8357 25.1268 19.5913 26.0958C19.5569 26.2321 19.6114 26.4418 19.7017 26.5519C19.8745 26.7628 20.0552 26.9672 20.2384 27.1693C20.4215 27.3716 20.6072 27.5717 20.7898 27.7743C20.9684 27.9724 21.1489 28.1687 21.3279 28.3662C21.5071 28.5636 21.6845 28.7626 21.8574 28.9656C22.0067 29.1412 22.1492 29.1718 22.3686 29.1194C23.4527 28.861 24.5431 28.6286 25.6268 28.3686C25.7342 28.3429 25.8624 28.2074 25.8971 28.0956C26.2005 27.1183 26.4792 26.1327 26.7796 25.1542C26.8437 24.9457 26.8038 24.8175 26.6534 24.6655C25.8877 23.8912 25.1397 23.0984 24.3713 22.327Z" fill="#F1F1F1"/>
<path fill-rule="evenodd" clip-rule="evenodd" d="M23.4565 12.1848C23.2526 12.906 23.0403 13.6252 22.8149 14.3398C22.7479 14.5522 22.8028 14.6803 22.9549 14.8253C23.4564 15.3032 23.9439 15.7966 24.4367 16.2843C24.4317 16.2895 24.4267 16.2949 24.4216 16.3001C24.7123 16.6227 24.9939 16.955 25.3001 17.2614C25.3859 17.3474 25.5574 17.4175 25.6677 17.3929C26.7324 17.1559 27.7935 16.902 28.8518 16.6369C28.957 16.6106 29.0852 16.4961 29.1204 16.3931C29.3544 15.7082 29.5732 15.0175 29.7762 14.3221C29.7853 14.2908 29.7853 14.2499 29.7793 14.207C29.0395 13.5762 28.2286 13.073 27.3744 12.6986C26.2483 12.2362 25.0542 11.9757 23.7869 11.9335C23.5868 11.9269 23.5096 11.997 23.4565 12.1848Z" fill="white"/>
<path fill-rule="evenodd" clip-rule="evenodd" d="M23.4565 12.1848C23.2526 12.906 23.0403 13.6252 22.8149 14.3398C22.7479 14.5522 22.8028 14.6803 22.9549 14.8253C23.4564 15.3032 23.9439 15.7966 24.4367 16.2843C24.4317 16.2895 24.4267 16.2949 24.4216 16.3001C24.7123 16.6227 24.9939 16.955 25.3001 17.2614C25.3859 17.3474 25.5574 17.4175 25.6677 17.3929C26.7324 17.1559 27.7935 16.902 28.8518 16.6369C28.957 16.6106 29.0852 16.4961 29.1204 16.3931C29.3544 15.7082 29.5732 15.0175 29.7762 14.3221C29.7853 14.2908 29.7853 14.2499 29.7793 14.207C29.0395 13.5762 28.2286 13.073 27.3744 12.6986C26.2483 12.2362 25.0542 11.9757 23.7869 11.9335C23.5868 11.9269 23.5096 11.997 23.4565 12.1848Z" fill="#F1F1F1"/>
<path fill-rule="evenodd" clip-rule="evenodd" d="M32.5029 25.9108C32.6008 25.5578 32.4375 25.3761 31.9456 24.8305C31.771 24.6371 31.6135 24.4224 31.4155 24.2585C31.3052 24.1669 31.1126 24.0931 30.9835 24.1246C29.8289 24.4061 28.6815 24.7185 27.5287 25.0072C27.3277 25.0575 27.2224 25.1368 27.1671 25.3502C26.9227 26.2937 26.6655 27.2338 26.3974 28.1704C26.3372 28.3809 26.3782 28.5087 26.5317 28.6578C27.099 29.2098 27.657 29.7725 28.2046 30.3448C28.3597 30.5072 28.4672 30.5351 28.6705 30.4148C28.9211 30.2665 29.16 30.1069 29.3896 29.9386C29.6509 29.7378 29.9051 29.5223 30.1506 29.2912C31.1905 28.3123 31.9742 27.156 32.5029 25.9108Z" fill="white"/>
<path fill-rule="evenodd" clip-rule="evenodd" d="M32.5029 25.9108C32.6008 25.5578 32.4375 25.3761 31.9456 24.8305C31.771 24.6371 31.6135 24.4224 31.4155 24.2585C31.3052 24.1669 31.1126 24.0931 30.9835 24.1246C29.8289 24.4061 28.6815 24.7185 27.5287 25.0072C27.3277 25.0575 27.2224 25.1368 27.1671 25.3502C26.9227 26.2937 26.6655 27.2338 26.3974 28.1704C26.3372 28.3809 26.3782 28.5087 26.5317 28.6578C27.099 29.2098 27.657 29.7725 28.2046 30.3448C28.3597 30.5072 28.4672 30.5351 28.6705 30.4148C28.9211 30.2665 29.16 30.1069 29.3896 29.9386C29.6509 29.7378 29.9051 29.5223 30.1506 29.2912C31.1905 28.3123 31.9742 27.156 32.5029 25.9108Z" fill="#F1F1F1"/>
<path fill-rule="evenodd" clip-rule="evenodd" d="M18.8739 27.018C18.3116 27.1416 17.7552 27.2951 17.1973 27.4397C16.7159 27.5643 16.235 27.6908 15.712 27.8276C17.1177 29.7631 18.9356 30.955 21.1713 31.5656C21.3186 30.9997 21.4652 30.4711 21.5869 29.9367C21.6088 29.8407 21.5578 29.6925 21.4896 29.6153C20.7491 28.779 20.0026 27.9479 19.244 27.1289C19.1658 27.0445 18.9869 26.9932 18.8739 27.018Z" fill="white"/>
<path fill-rule="evenodd" clip-rule="evenodd" d="M18.7047 27.0282C18.1424 27.1518 17.586 27.3053 17.0281 27.4499C16.5467 27.5746 16.0658 27.701 15.5428 27.8378C16.9485 29.7733 18.7665 30.9653 21.0021 31.5759C21.1494 31.01 21.296 30.4814 21.4178 29.947C21.4396 29.8509 21.3886 29.7028 21.3205 29.6256C20.5799 28.7892 19.8334 27.9581 19.0748 27.1392C18.9966 27.0548 18.8177 27.0034 18.7047 27.0282Z" fill="#F1F1F1"/>
<path fill-rule="evenodd" clip-rule="evenodd" d="M17.3838 19.081C17.6255 18.1498 17.8567 17.2158 18.0829 16.2805C18.1068 16.1811 18.1216 16.0306 18.0684 15.9683C17.6762 15.5081 17.2655 15.0642 16.8264 14.5771C15.2358 16.1285 14.3706 18.0073 13.9364 20.2131C15.0609 19.9206 16.1264 19.6489 17.1866 19.3576C17.272 19.3341 17.3564 19.1866 17.3838 19.081Z" fill="white"/>
<path fill-rule="evenodd" clip-rule="evenodd" d="M17.1617 19.0068C17.4034 18.0756 17.6346 17.1416 17.8608 16.2063C17.8847 16.1069 17.8995 15.9564 17.8463 15.8941C17.4541 15.4339 17.0434 14.9899 16.6043 14.5029C15.0137 16.0543 14.1485 17.9331 13.7143 20.1389C14.8388 19.8464 15.9043 19.5747 16.9645 19.2834C17.0499 19.2599 17.1343 19.1124 17.1617 19.0068Z" fill="#F1F1F1"/>
<path fill-rule="evenodd" clip-rule="evenodd" d="M29.8668 16.871C30.5568 17.6163 31.2554 18.3556 31.9025 19.1389C32.2271 19.5318 32.5464 19.7313 33.0301 19.5082C32.6477 17.9202 31.8801 16.4054 30.7189 15.1175C30.5564 14.9372 30.387 14.7671 30.2149 14.6016C30.0456 15.2128 29.903 15.7632 29.736 16.3042C29.6644 16.5362 29.7025 16.6935 29.8668 16.871Z" fill="white"/>
<path fill-rule="evenodd" clip-rule="evenodd" d="M29.8668 16.871C30.5568 17.6163 31.2554 18.3556 31.9025 19.1389C32.2271 19.5318 32.5464 19.7313 33.0301 19.5082C32.6477 17.9202 31.8801 16.4054 30.7189 15.1175C30.5564 14.9372 30.387 14.7671 30.2149 14.6016C30.0456 15.2128 29.903 15.7632 29.736 16.3042C29.6644 16.5362 29.7025 16.6935 29.8668 16.871Z" fill="#F1F1F1"/>
<path fill-rule="evenodd" clip-rule="evenodd" d="M32.4091 20.4065C32.0954 21.4059 31.8012 22.4117 31.5134 23.4193C31.4847 23.5203 31.496 23.6892 31.5596 23.7531C31.9666 24.1626 32.3926 24.5529 32.8452 24.9795C33.3467 23.3782 33.4476 21.6706 33.1394 20.0225C32.9801 20.0496 32.8405 20.0669 32.7188 20.1223C32.5959 20.1782 32.4464 20.2879 32.4091 20.4065Z" fill="white"/>
<path fill-rule="evenodd" clip-rule="evenodd" d="M32.4091 20.4065C32.0954 21.4059 31.8012 22.4117 31.5134 23.4193C31.4847 23.5203 31.496 23.6892 31.5596 23.7531C31.9666 24.1626 32.3926 24.5529 32.8452 24.9795C33.3467 23.3782 33.4476 21.6706 33.1394 20.0225C32.9801 20.0496 32.8405 20.0669 32.7188 20.1223C32.5959 20.1782 32.4464 20.2879 32.4091 20.4065Z" fill="#F1F1F1"/>
<path fill-rule="evenodd" clip-rule="evenodd" d="M33.0301 19.5084C33.0754 19.4877 33.1214 19.4644 33.1696 19.4359C32.6175 17.5715 31.6707 15.9429 30.2303 14.5459C30.225 14.565 30.22 14.5829 30.2148 14.6017C30.387 14.7672 30.5563 14.9374 30.7189 15.1177C31.8802 16.4055 32.6477 17.9204 33.0301 19.5084Z" fill="white"/>
<path fill-rule="evenodd" clip-rule="evenodd" d="M29.6777 13.9897C28.9439 13.4587 28.1762 13.0276 27.3743 12.6982C28.2286 13.0727 29.0395 13.576 29.7793 14.2069C29.7672 14.1201 29.7283 14.0262 29.6777 13.9897Z" fill="white"/>
<path fill-rule="evenodd" clip-rule="evenodd" d="M30.1505 29.291C29.9051 29.5221 29.651 29.7377 29.3896 29.9385C30.5717 29.0723 31.4834 27.9481 32.1788 26.6157C32.3054 26.3735 32.3999 26.1914 32.4589 26.0422C32.4775 25.9952 32.4914 25.9521 32.5028 25.9106C31.9742 27.1559 31.1906 28.3122 30.1505 29.291Z" fill="white"/>
</g>
<path fill-rule="evenodd" clip-rule="evenodd" d="M4.074 14.3754C4.83489 14.2792 9.53617 14.5228 12.429 20.9375C14.5979 26.9652 11.1099 31.3806 10.6244 31.7489C10.139 32.1174 9.42007 32.5 8.90774 32.4534C8.08164 32.3779 2.76829 30.5829 1.10074 25.0851C-0.566679 19.5874 3.04524 14.5057 4.074 14.3754Z" fill="#2A3961" fill-opacity="0.3"/>
<path fill-rule="evenodd" clip-rule="evenodd" d="M5.26833 13.6899C6.02922 13.5936 10.7305 13.8372 13.6233 20.252C15.7923 26.2796 12.3043 30.6951 11.8188 31.0633C11.3334 31.4319 10.6145 31.8145 10.1022 31.7679C9.27609 31.6923 3.96275 29.8974 2.2952 24.3996C0.62778 18.9018 4.23969 13.8201 5.26833 13.6899Z" fill="#C59D85"/>
<mask id="mask3_0_5541" style="mask-type:alpha" maskUnits="userSpaceOnUse" x="1" y="13" width="14" height="19">
<path fill-rule="evenodd" clip-rule="evenodd" d="M5.26833 13.6899C6.02922 13.5936 10.7305 13.8372 13.6233 20.252C15.7923 26.2796 12.3043 30.6951 11.8188 31.0633C11.3334 31.4319 10.6145 31.8145 10.1022 31.7679C9.27609 31.6923 3.96275 29.8974 2.2952 24.3996C0.62778 18.9018 4.23969 13.8201 5.26833 13.6899Z" fill="white"/>
</mask>
<g mask="url(#mask3_0_5541)">
<path fill-rule="evenodd" clip-rule="evenodd" d="M9.04218 16.9895C9.6825 16.7787 10.324 16.5714 10.9622 16.3539C11.087 16.3114 11.1685 16.327 11.2634 16.4218C12.0033 17.162 12.6459 17.9809 13.1534 18.9029C13.6367 19.7809 13.9962 20.7081 14.2046 21.6995C14.5004 23.1065 14.4882 24.5108 14.2583 25.9221C14.2356 26.0611 14.1772 26.1282 14.0453 26.1711C12.7684 26.5864 11.4926 27.006 10.2187 27.4316C10.0647 27.4831 9.99179 27.4597 9.94921 27.2942C9.8927 27.0746 9.82417 26.8573 9.74451 26.6454C9.68378 26.4836 9.73211 26.4142 9.88784 26.3741C10.0612 26.3294 10.2283 26.261 10.4002 26.2098C10.4999 26.1801 10.532 26.1281 10.4966 26.0262C10.4512 25.8957 10.4098 25.7635 10.3715 25.6306C10.344 25.5345 10.2926 25.5118 10.201 25.5442C10.0165 25.6096 9.82813 25.6641 9.64414 25.7306C9.52932 25.772 9.459 25.751 9.42384 25.6229C9.38305 25.4735 9.33498 25.326 9.2846 25.1796C9.2479 25.0727 9.27744 25.0144 9.3851 24.982C9.57753 24.9242 9.76638 24.8531 9.95919 24.7965C10.0622 24.7662 10.0876 24.7145 10.0515 24.614C10.0084 24.4945 9.96916 24.3731 9.93681 24.2501C9.90446 24.1275 9.84514 24.0896 9.72303 24.1354C9.53981 24.2041 9.35019 24.255 9.16671 24.3228C9.06596 24.3601 9.0152 24.3325 8.98553 24.2314C8.93887 24.072 8.88926 23.9135 8.83581 23.7565C8.8027 23.6594 8.83709 23.6156 8.92825 23.588C9.12068 23.5296 9.30928 23.4577 9.5026 23.4026C9.62138 23.3688 9.64606 23.3087 9.60438 23.1958C9.55681 23.0662 9.51666 22.9335 9.47907 22.8002C9.4521 22.7047 9.40504 22.6791 9.31107 22.7131C9.12183 22.7814 8.92851 22.8379 8.73902 22.9054C8.62881 22.9447 8.56564 22.9187 8.53329 22.7996C8.49251 22.6501 8.44341 22.5029 8.39457 22.3561C8.36337 22.2624 8.3906 22.2129 8.48496 22.1849C8.66716 22.1307 8.84502 22.06 9.02837 22.0107C9.17656 21.9707 9.20571 21.8947 9.1506 21.7559C9.10381 21.6381 9.06967 21.5148 9.03451 21.3925C9.00702 21.2966 8.95562 21.274 8.86368 21.307C8.67931 21.3729 8.49084 21.4268 8.30685 21.4937C8.19127 21.5357 8.12197 21.5133 8.08732 21.3857C8.0496 21.2471 8.00638 21.1094 7.95754 20.9743C7.91241 20.8501 7.95562 20.7909 8.07377 20.756C8.26134 20.7006 8.44507 20.6319 8.63239 20.5753C8.72585 20.5471 8.75462 20.498 8.72253 20.4038C8.67637 20.2677 8.63405 20.13 8.59224 19.9923C8.5659 19.9053 8.51731 19.8823 8.43203 19.9124C8.24727 19.9773 8.05881 20.0311 7.8752 20.0992C7.75284 20.1444 7.68098 20.1215 7.64518 19.9856C7.60721 19.8412 7.56105 19.6986 7.51067 19.5582C7.46912 19.4417 7.5076 19.3835 7.6191 19.3498C7.80641 19.2934 7.99015 19.2248 8.17759 19.1693C8.27489 19.1404 8.31529 19.0969 8.27757 18.9907C8.22924 18.8554 8.18641 18.7177 8.14767 18.5793C8.11801 18.4736 8.0629 18.455 7.96521 18.4901C7.77611 18.5585 7.58189 18.6126 7.3933 18.6825C7.285 18.7228 7.23501 18.6913 7.20291 18.583C7.12901 18.3337 7.0514 18.0854 6.96803 17.8391C6.92904 17.7236 6.95793 17.6722 7.07377 17.6348C7.7311 17.4238 8.38626 17.2053 9.04218 16.9895Z" fill="#B78467"/>
<path fill-rule="evenodd" clip-rule="evenodd" d="M3.05538 24.357C3.23017 24.9156 3.80387 25.2245 4.34945 25.0534C4.88928 24.8842 5.19435 24.2817 5.02136 23.7273C4.84964 23.1777 4.25228 22.8621 3.72243 23.0409C3.19091 23.2204 2.88725 23.8196 3.05538 24.357ZM6.59122 18.9449C6.34381 19.0264 6.11916 19.1058 5.89106 19.1732C5.78084 19.2058 5.75438 19.2571 5.79542 19.3655C5.84426 19.4946 5.88505 19.6273 5.92034 19.761C5.94796 19.8651 5.99578 19.8921 6.0973 19.855C6.28615 19.7859 6.47934 19.7295 6.6696 19.6637C6.76562 19.6305 6.82073 19.6508 6.84988 19.7578C6.89323 19.918 6.94271 20.0769 6.99986 20.2325C7.03771 20.3354 7.01111 20.3856 6.91074 20.4163C6.71857 20.475 6.52959 20.5449 6.33691 20.6024C6.23615 20.6323 6.20623 20.6816 6.24331 20.784C6.29037 20.914 6.33128 21.0463 6.36836 21.1796C6.39572 21.2778 6.44699 21.297 6.53816 21.2646C6.7279 21.1975 6.92135 21.1418 7.11046 21.0732C7.21825 21.0342 7.26837 21.0638 7.29752 21.176C7.33767 21.3312 7.386 21.485 7.44226 21.6349C7.4847 21.748 7.44507 21.797 7.34253 21.8286C7.15559 21.8862 6.97199 21.9554 6.78403 22.009C6.67164 22.0411 6.65068 22.0965 6.6907 22.2027C6.73724 22.3267 6.77547 22.4545 6.81114 22.5822C6.83991 22.6853 6.89565 22.7116 6.99347 22.678C7.21888 22.6007 7.44571 22.5282 7.69542 22.4459C7.76779 22.6755 7.84067 22.8934 7.90089 23.1149C7.90779 23.1403 7.85179 23.2042 7.81369 23.2182C7.61985 23.2896 7.42384 23.3559 7.22541 23.413C7.1134 23.4452 7.09192 23.4987 7.13296 23.6054C7.18027 23.729 7.22067 23.8564 7.25264 23.985C7.28179 24.1022 7.33958 24.117 7.44302 24.08C7.66691 24.0001 7.89424 23.9296 8.13884 23.8489C8.21184 24.0803 8.28332 24.2936 8.34226 24.5106C8.34929 24.5367 8.29598 24.6014 8.2589 24.6152C8.07043 24.6851 7.87928 24.7485 7.68647 24.8053C7.57485 24.8382 7.53189 24.8918 7.57676 25.0096C7.63737 25.1686 7.6499 25.4062 7.75999 25.4687C7.86471 25.5281 8.07018 25.4117 8.22795 25.3618C8.58021 25.2503 8.57944 25.2474 8.69247 25.606C8.70423 25.643 8.71638 25.6797 8.72725 25.7168C8.81458 26.0121 8.88017 25.9788 8.53162 26.0931C8.39213 26.139 8.25391 26.1889 8.11314 26.2297C8.01405 26.2583 7.97965 26.3061 8.01814 26.4107C8.06596 26.5402 8.10585 26.673 8.14344 26.806C8.17042 26.9017 8.2199 26.9279 8.3126 26.8954C8.50758 26.8271 8.70551 26.7678 8.90063 26.6998C8.99166 26.6679 9.03846 26.6869 9.06748 26.7871C9.14151 27.0421 9.21797 27.2968 9.30786 27.5462C9.35836 27.6863 9.30415 27.73 9.18511 27.7684C8.56947 27.967 7.95561 28.1713 7.34125 28.3738C6.66998 28.5949 5.99769 28.813 5.32809 29.0397C5.20957 29.0797 5.12722 29.0653 5.0376 28.9757C4.20702 28.1456 3.50519 27.2192 2.96435 26.1641C2.4818 25.2223 2.15014 24.2284 1.98149 23.1846C1.77794 21.9243 1.79967 20.6599 2.04619 19.4045C2.05769 19.3462 2.12571 19.273 2.18236 19.2541C3.4974 18.8152 4.81486 18.3837 6.13067 17.9471C6.22938 17.9143 6.27477 17.9246 6.3066 18.0341C6.39278 18.331 6.49021 18.6244 6.59122 18.9449Z" fill="#B78467"/>
<path fill-rule="evenodd" clip-rule="evenodd" d="M2.23376 18.4806C2.38349 18.0337 2.52171 17.6167 2.66542 17.2018C2.67693 17.1687 2.72321 17.1379 2.75965 17.1259C3.72359 16.8065 4.68829 16.4895 5.65299 16.1727C5.66744 16.168 5.68393 16.1704 5.70938 16.1689C5.81985 16.5193 5.93007 16.8689 6.04284 17.2262C4.78457 17.6405 3.53282 18.0529 2.23376 18.4806Z" fill="#B78467"/>
<path fill-rule="evenodd" clip-rule="evenodd" d="M10.5317 15.7487C9.23648 16.1754 7.98448 16.5875 6.72365 17.0028C6.61113 16.6462 6.50092 16.2967 6.38763 15.9375C6.44517 15.9155 6.49401 15.8945 6.54413 15.8779C7.45168 15.5785 8.36013 15.2814 9.2664 14.9785C9.36907 14.9442 9.44604 14.9504 9.53388 15.0165C9.85507 15.2579 10.1812 15.4924 10.5317 15.7487Z" fill="#B78467"/>
<path fill-rule="evenodd" clip-rule="evenodd" d="M5.7569 29.6436C7.05161 29.2172 8.30335 28.8051 9.56469 28.3896C9.67695 28.7456 9.78717 29.0951 9.90084 29.4553C9.84535 29.4767 9.79676 29.4979 9.74651 29.5143C8.83896 29.8137 7.93077 30.1109 7.02424 30.4138C6.92234 30.4476 6.84524 30.4442 6.75651 30.3773C6.43545 30.1355 6.10877 29.901 5.7569 29.6436Z" fill="#B78467"/>
<path fill-rule="evenodd" clip-rule="evenodd" d="M10.2465 28.1667C11.5042 27.7526 12.7559 27.3404 14.0208 26.9238C14.0169 26.9594 14.019 26.9954 14.0088 27.0273C13.8903 27.3952 13.7725 27.7633 13.647 28.1287C13.6283 28.1825 13.5785 28.2482 13.5292 28.2648C12.5663 28.5872 11.6013 28.9033 10.6366 29.2201C10.6222 29.2248 10.6057 29.2224 10.58 29.2242C10.4695 28.8737 10.3593 28.5243 10.2465 28.1667Z" fill="#B78467"/>
<path fill-rule="evenodd" clip-rule="evenodd" d="M10.8005 29.9246C11.5974 29.6622 12.388 29.4018 13.2168 29.1289C12.7228 30.0784 12.1874 30.9428 11.3177 31.564C11.1412 31.0043 10.9724 30.4693 10.8005 29.9246Z" fill="#B78467"/>
<path fill-rule="evenodd" clip-rule="evenodd" d="M4.98143 13.8501C5.15302 14.3939 5.32039 14.9246 5.49146 15.467C4.69438 15.7296 3.90357 15.9899 3.11353 16.2502C3.20495 15.6901 4.43815 14.0974 4.98143 13.8501Z" fill="#B78467"/>
<path fill-rule="evenodd" clip-rule="evenodd" d="M6.16698 15.2414C5.99718 14.703 5.8284 14.1679 5.65106 13.6056C6.71396 13.58 7.63788 13.9841 8.58519 14.4449C7.75985 14.7167 6.96764 14.9776 6.16698 15.2414Z" fill="#B78467"/>
<path fill-rule="evenodd" clip-rule="evenodd" d="M10.1218 30.1509C10.2919 30.6903 10.4607 31.2255 10.6378 31.7869C9.57503 31.8119 8.65086 31.4081 7.70227 30.9478C8.52927 30.6754 9.32187 30.4144 10.1218 30.1509Z" fill="#B78467"/>
<path fill-rule="evenodd" clip-rule="evenodd" d="M3.84628 23.4502C3.51998 23.562 3.35184 23.9168 3.46513 24.2543C3.57483 24.5811 3.91801 24.7542 4.23855 24.6449C4.55654 24.5362 4.73017 24.1835 4.62724 23.8557C4.52253 23.5218 4.17053 23.339 3.84628 23.4502ZM3.05534 24.3569C2.8872 23.8196 3.19087 23.2204 3.72238 23.0409C4.25236 22.8621 4.84972 23.1777 5.02131 23.7273C5.19443 24.2817 4.88923 24.8843 4.34953 25.0534C3.80395 25.2245 3.23025 24.9157 3.05534 24.3569Z" fill="#C59D85"/>
<path fill-rule="evenodd" clip-rule="evenodd" d="M3.84624 23.4501C4.17049 23.3389 4.52249 23.5216 4.62721 23.8556C4.73013 24.1833 4.5565 24.536 4.23851 24.6447C3.91797 24.7541 3.57479 24.581 3.46509 24.2541C3.35181 23.9167 3.51994 23.5619 3.84624 23.4501Z" fill="#B78467"/>
</g>
</g>
</svg>
