<?xml version="1.0" encoding="UTF-8"?><svg xmlns="http://www.w3.org/2000/svg" viewBox="0 0 479.25 479.25"><defs><style>.f{fill:#f4bc58;}.g{fill:#68b7b8;}.h{fill:#fbcc8f;}.i{fill:#3c8c8c;}</style></defs><g id="a"/><g id="b"><g id="c"><circle class="h" cx="239.625" cy="239.625" r="239.625"/><g id="d"><path class="f" d="M320.625,13.5C-25.875-86.625-136.125,418.5,216,478.125c-42.75,2.25-164.25-338.625,104.625-464.625Z"/></g></g><g id="e"><polyline class="i" points="66.719 222.171 111.496 176.42 204.945 300.045 214.68 300.045 365.561 95.625 413.259 148.19 225.387 418.803 197.158 418.803"/><polyline class="g" points="47.25 224.118 92.028 178.366 185.477 301.992 195.211 301.992 346.092 97.572 393.79 150.137 205.919 420.75 177.689 420.75"/><polyline class="g" points="47.25 224.118 92.028 178.366 185.477 301.992 195.211 301.992 346.092 97.572 393.79 150.137 205.919 420.75 177.689 420.75"/></g></g></svg>