<svg width="24" height="24" viewBox="0 0 24 24" fill="none" xmlns="http://www.w3.org/2000/svg">
<path fill-rule="evenodd" clip-rule="evenodd" d="M24 12C24 18.6275 18.6275 24 12 24C5.37264 24 0 18.6275 0 12C0 5.37264 5.37264 0 12 0C18.6275 0 24 5.37264 24 12Z" fill="#62BBB8"/>
<mask id="mask0_0_5542" style="mask-type:alpha" maskUnits="userSpaceOnUse" x="0" y="0" width="24" height="24">
<path fill-rule="evenodd" clip-rule="evenodd" d="M24 12C24 18.6275 18.6275 24 12 24C5.37264 24 0 18.6275 0 12C0 5.37264 5.37264 0 12 0C18.6275 0 24 5.37264 24 12Z" fill="white"/>
</mask>
<g mask="url(#mask0_0_5542)">
<path fill-rule="evenodd" clip-rule="evenodd" d="M12.7396 2.5638C8.8319 2.39788 4.92414 2.23186 1.01647 2.06594C0.823783 2.05781 0.548202 2.14637 0.604398 2.32961C2.96683 2.39146 5.32647 2.56236 7.673 2.84145C6.4526 3.38708 5.17273 3.80125 3.86297 4.07431C3.86856 4.27192 3.87406 4.46953 3.87975 4.66714C7.28888 3.39435 11.0418 3.5146 14.6814 3.65199C16.2677 3.71193 17.8877 3.77856 19.369 4.34525C20.6301 4.82779 21.7259 5.64896 22.8029 6.45951C22.9268 5.5538 22.4459 4.64981 21.7682 4.0317C19.5372 1.9972 15.5684 2.68395 12.7396 2.5638Z" fill="#B78467"/>
<path fill-rule="evenodd" clip-rule="evenodd" d="M4.62526 9.20443C5.87487 9.09011 7.25007 9.13128 8.22024 9.92191C9.0624 10.6084 9.42184 11.719 10.1381 12.5342C11.7533 14.3728 14.615 14.2518 17.0564 13.9795C16.826 16.3126 18.9414 18.6006 21.3015 18.5705C21.8829 18.5631 22.5731 18.4779 22.942 18.9243C23.3566 19.4261 23.0179 20.1771 22.6286 20.6985C20.9098 23 18.283 24.6133 15.4422 25.1124C13.5385 25.4468 11.5808 25.2964 9.66986 25.0059C7.17826 24.6273 4.67259 23.9906 2.55769 22.6289C0.0551994 21.0177 -1.77323 18.4057 -2.42261 15.5147C-2.77926 13.9272 -3.17581 9.36738 -1.57303 8.22107C-0.600159 7.52551 -0.297397 8.65181 0.64135 9.07661C1.86233 9.62923 3.34838 9.32133 4.62526 9.20443Z" fill="#0084D6"/>
<path fill-rule="evenodd" clip-rule="evenodd" d="M11.6853 5.13428C11.6459 5.17028 11.6139 5.19737 11.5842 5.22676C9.68351 7.11478 7.7823 9.00232 5.88582 10.8946C5.8276 10.9528 5.79136 11.06 5.79126 11.1445C5.78644 14.0171 5.78722 16.8896 5.78722 19.7622V19.9411L17.5774 19.9391V19.7734C17.5774 16.8902 17.5768 14.0069 17.5798 11.1238C17.58 11.0119 17.5423 10.9378 17.4648 10.861C15.5805 8.99447 11.7322 5.17832 11.6853 5.13428Z" fill="#FFC996"/>
<mask id="mask1_0_5542" style="mask-type:alpha" maskUnits="userSpaceOnUse" x="5" y="5" width="13" height="15">
<path fill-rule="evenodd" clip-rule="evenodd" d="M11.6853 5.13428C11.6459 5.17028 11.6139 5.19737 11.5842 5.22676C9.68351 7.11478 7.7823 9.00232 5.88582 10.8946C5.8276 10.9528 5.79136 11.06 5.79126 11.1445C5.78644 14.0171 5.78722 16.8896 5.78722 19.7622V19.9411L17.5774 19.9391V19.7734C17.5774 16.8902 17.5768 14.0069 17.5798 11.1238C17.58 11.0119 17.5423 10.9378 17.4648 10.861C15.5805 8.99447 11.7322 5.17832 11.6853 5.13428Z" fill="white"/>
</mask>
<g mask="url(#mask1_0_5542)">
<path fill-rule="evenodd" clip-rule="evenodd" d="M18.5066 11.5904C18.5347 11.5989 18.4219 13.0282 18.4695 13.0282C16.3362 10.9106 13.8322 8.59874 11.6947 6.47684C9.54082 8.60911 7.08916 10.8821 4.95854 12.9913C4.94798 13.1046 4.92453 11.1743 4.95854 11.1849C7.41075 8.74918 9.23011 7.06007 11.6709 4.63574C14.1123 7.06085 16.0394 9.13981 18.5066 11.5904Z" fill="#404E74" fill-opacity="0.3"/>
</g>
<path fill-rule="evenodd" clip-rule="evenodd" d="M20.4284 11.6513C20.0726 11.9944 19.7034 12.3503 19.3271 12.7131C16.7916 10.1961 14.2442 7.66731 11.7035 5.14529C9.14367 7.67975 6.59501 10.2029 4.06273 12.71C3.68122 12.342 3.30665 11.9805 2.94354 11.6301C5.8582 8.73511 8.77439 5.83856 11.6753 2.95703C14.5772 5.83942 17.4959 8.73846 20.4284 11.6513Z" fill="#132A5D"/>
<path fill-rule="evenodd" clip-rule="evenodd" d="M14.1631 13.2457C14.1631 14.6734 12.9979 15.8307 11.5606 15.8307C10.1232 15.8307 8.95801 14.6734 8.95801 13.2457C8.95801 11.818 10.1232 10.6606 11.5606 10.6606C12.9979 10.6606 14.1631 11.818 14.1631 13.2457Z" fill="#132A5D"/>
<path fill-rule="evenodd" clip-rule="evenodd" d="M13.8739 18.3681C13.8739 18.8967 13.4423 19.3255 12.91 19.3255C12.3777 19.3255 11.9461 18.8967 11.9461 18.3681C11.9461 17.8394 12.3777 17.4106 12.91 17.4106C13.4423 17.4106 13.8739 17.8394 13.8739 18.3681Z" fill="#B39888"/>
<path fill-rule="evenodd" clip-rule="evenodd" d="M10.179 14.4268L10.7574 14.0438C10.7574 14.0438 11.2071 12.7673 12.8137 13.1503C13.8419 13.4694 13.8419 15.5119 15.4483 15.7034C14.87 16.3416 13.3277 17.1076 12.2353 16.597C11.1429 16.0864 10.9501 14.6183 10.9501 14.6183L10.179 14.4268Z" fill="#0084D6"/>
<path fill-rule="evenodd" clip-rule="evenodd" d="M12.5566 17.5545H12.7494V16.3418H12.5566V17.5545Z" fill="#132A5D"/>
<path fill-rule="evenodd" clip-rule="evenodd" d="M13.1028 17.5545H13.2956V16.3418H13.1028V17.5545Z" fill="#132A5D"/>
<path fill-rule="evenodd" clip-rule="evenodd" d="M11.6731 14.0278C11.6731 14.1158 11.6011 14.1873 11.5124 14.1873C11.4236 14.1873 11.3517 14.1158 11.3517 14.0278C11.3517 13.9396 11.4236 13.8682 11.5124 13.8682C11.6011 13.8682 11.6731 13.9396 11.6731 14.0278Z" fill="#FFC996"/>
<path fill-rule="evenodd" clip-rule="evenodd" d="M10.179 14.4269L10.7574 14.0439L10.9661 14.2035L10.9501 14.6184L10.179 14.4269Z" fill="#FFC996"/>
<path fill-rule="evenodd" clip-rule="evenodd" d="M13.9837 15.9613C13.9837 15.9613 12.9985 14.0142 12.0676 14.8927C11.6634 15.4659 12.3459 16.3673 13.9837 15.9613Z" fill="#404E74"/>
</g>
</svg>
