<?xml version="1.0" encoding="UTF-8"?><svg xmlns="http://www.w3.org/2000/svg" viewBox="0 0 480.319 479.25"><defs><style>.g{fill:#fff;}.h{fill:#ffc02e;}.i{fill:#c29327;}.j{fill:#ba6d82;}.k{fill:#c89e3d;}.l{fill:#0581d6;}.m{fill:#142a5c;}.n{fill:none;stroke:#ffc02e;stroke-miterlimit:10;stroke-width:20px;}</style></defs><g id="a"/><g id="b"><g id="c"><circle class="l" cx="240.694" cy="239.625" r="239.625"/><g id="d"><path class="m" d="M3.319,207l474.75,66.375s-324-7.875-407.25,136.125c0,0-88.875-84.375-67.5-202.5Z"/></g></g><g id="e"><polyline class="n" points="347.287 160.238 400.021 152.855 400.021 248.832 331.467 236.176"/></g><g id="f"><g><g><path class="i" d="M148.705,93.109c108.152-22.362,193.101,.311,193.101,.311l-94.714,50.998-98.387-51.309Z"/><path class="h" d="M148.505,92.066c117.688,41.293,193.514,.205,193.514,.205,0,0,40.29,149.402-73.833,221.952-7.784,4.949-44.571,4.593-53.789-1.055-119.844-73.425-65.892-221.102-65.892-221.102Z"/><polygon class="h" points="198.576 395.433 221.779 307.894 263.967 307.894 282.951 395.433 198.576 395.433"/><polygon class="h" points="164.826 420.746 198.576 395.433 282.951 395.433 317.756 420.746 164.826 420.746"/><polygon class="j" points="243.401 138.09 249.803 158.625 257.468 183.21 277.819 183.21 302.99 183.21 281.194 199.713 266.162 211.095 271.9 229.5 280.229 256.215 256.444 238.205 243.401 228.329 226.069 241.452 206.572 256.215 213.849 232.875 220.639 211.095 205.819 199.873 183.811 183.21 206.944 183.21 229.333 183.21 237.349 157.5 243.401 138.09"/><polygon class="k" points="198.576 395.433 282.951 395.433 317.756 420.746 165.881 420.746 198.576 395.433"/><path class="g" d="M338.85,102.23c-.456-2.629-7.839,3.699-7.383,6.328,26.437,152.335-68.564,202.457-68.564,202.457,0,0,104.324-45.269,75.946-208.785Z"/></g><polyline class="n" points="137.905 159.866 89.944 152.855 89.944 248.832 151.115 235.121"/></g></g></g></svg>