<?xml version="1.0" encoding="UTF-8"?><svg xmlns="http://www.w3.org/2000/svg" viewBox="0 0 479.606 479.52"><defs><style>.m{fill:#ca9f3c;}.m,.n{stroke:#ca9f3c;stroke-miterlimit:10;stroke-width:5px;}.o{fill:#68b7b8;}.p{fill:#fec02d;}.q{fill:#ba6c82;}.r{fill:#4c8585;}.n{fill:none;}</style></defs><g id="a"/><g id="b"><g id="c"><circle class="o" cx="239.625" cy="239.625" r="239.625"/><path class="r" d="M.345,242.697c0-130.638,41.625,102.168,164.25,94.394,132.069-8.372,312.75-327.603,315-94.394,1.254,129.925-107.284,236.541-239.625,236.541S.345,373.335,.345,242.697Z"/></g><g id="d"><path class="p" d="M141.943,383.95l1.543-128.057v-83.314c30.128-4.945,41.657,13.886,41.657,13.886v-20.829c40.694-2.823,41.657,13.886,41.657,13.886v-20.829c32.265-8.407,41.657,13.886,41.657,13.886l6.943-118.029c2.804-15.067,27.399-24.806,34.714-13.886l-2.234,177.91,43.12,125.261c-22.319,10.454-36,52.164-36,52.164v72s-45,18-99,9c0,0,8.746-56.533,3.857-61.421"/></g><g id="e"><path class="p" d="M253.242,203.136c29.075,18.139,71.948,22.484,71.948,22.484-8.138,25.586,19.639,99.702,19.639,99.702l-58.31-17.862,2.998-50.963-40.47-13.19s-4.37-45.515,4.197-40.171Z"/></g><g id="f"><line class="n" x1="269.241" y1="175.306" x2="271.158" y2="209.812"/></g><g id="g"><path class="n" d="M183.81,186.965l8.275,68.927c14.366,13.122,41.657,0,41.657,0l-9.403-78.813"/></g><g id="h"><path class="n" d="M150.429,242.007v13.886c17.134,15.705,41.657,0,41.657,0"/></g><g id="i"><path class="n" d="M233.743,255.893c25.158,15.143,34.714-6.943,34.714-6.943"/></g><g id="j"><path class="n" d="M324,228.122c-17.823-1.143-69.429-27.771-69.429-27.771-13.172,21.277-6.943,34.714-6.943,34.714,18.87,22.122,36.624,16.905,41.657,20.829v48.6c-107.505-17.961-62.486,76.371-62.486,76.371"/></g><g id="k"><line class="m" x1="314.206" y1="233.605" x2="298.494" y2="251.316"/></g><g id="l"><polygon class="q" points="241.518 89.43 199.029 82.322 208.745 132.377 241.518 89.43"/><polygon class="q" points="170.763 82.322 129.6 96.147 167.38 135.775 170.763 82.322"/><polygon class="q" points="101.829 117.036 81 151.75 129.6 158.693 101.829 117.036"/></g></g></svg>