<?xml version="1.0" encoding="UTF-8"?><svg xmlns="http://www.w3.org/2000/svg" viewBox="0 0 479.25 479.25"><defs><style>.d{fill:#68b7b8;}.e{fill:#d8b164;}.f{fill:#0581d6;}.g{fill:#fccd90;stroke:#0581d6;stroke-miterlimit:10;stroke-width:20px;}</style></defs><g id="a"/><g id="b"><g id="c"><circle class="d" cx="239.625" cy="239.625" r="239.625"/><path class="g" d="M396,241.312c0,38.055-13.945,72.853-37.003,99.563-27.953,32.381-69.301,52.875-115.435,52.875-40.23,0-76.82-15.584-104.063-41.045-29.768-27.821-48.375-67.434-48.375-111.392,0-45.597,20.02-86.519,51.75-114.454,26.854-23.643,62.096-37.983,100.688-37.983,45.597,0,86.519,20.02,114.454,51.75,23.643,26.854,37.983,62.096,37.983,100.688Z"/><path class="e" d="M254.87,305.616c48.88-36.741,5.005-122.241,5.005-122.241,0,0-115.875,20.25-100.125,64.125"/><polygon class="f" points="230.055 174.742 242.598 174.742 242.598 249.031 340.042 249.031 340.042 260.608 230.055 260.608 230.055 174.742"/></g></g></svg>