<?xml version="1.0" encoding="UTF-8"?><svg xmlns="http://www.w3.org/2000/svg" viewBox="0 0 479.261 480.183"><defs><style>.e{fill:#68b7b8;}.f{fill:#fbcd91;}.g{fill:#ba6c82;}.h{fill:#4c8585;}.i{fill:none;stroke:#dd98aa;stroke-miterlimit:10;stroke-width:4px;}</style></defs><g id="a"/><g id="b"><g id="c"><circle class="e" cx="239.625" cy="239.625" r="239.625"/><path class="h" d="M10.433,311.106c121.135,311.272,552.403,153.089,454.49-153.923,0,0-165.126,421.255-454.49,153.923Z"/></g><g id="d"><g><path class="g" d="M87.263,159.5l40.151,134.324,32.009,3.482,1.403,168.685c30.392,11.871,65.924,12.92,65.924,12.92l-11.322-179.996,26.158-6.545-.287-164.04s-9.458-12.41-22.984-6.759l-1.702-22.538s-15.835-12.559-26.603-4.484l-1.89-25.965s-18.732-13.023-27.446-4.308l.997,23.805s-16.29-10.255-26.774-2.986l8.384,122.25s-5.385,3.766-6.301,2.356c-6.579-10.135-8.775-30.044-16.28-41.605-8.683-13.377-33.435-8.594-33.435-8.594Z"/><line class="i" x1="161.629" y1="87.515" x2="165.017" y2="187.047"/><line class="i" x1="191.057" y1="93.986" x2="193.899" y2="195.353"/><line class="i" x1="218.15" y1="121.716" x2="218.492" y2="199.167"/><path class="i" d="M136.191,211.037c40.108,0,44.696,9.378,50.469,20.51,1.167,2.249,2.155,4.615,2.99,7.032,5.851,16.923,4.248,36.4,4.248,36.4"/></g><g><path class="f" d="M391.987,220.974l-33.9,90.378-27.025,2.343,3.323,146.084s-34.141,15.549-68.816,18.082l18.207-163.084-22.085-4.404,.242-110.372s7.985-8.35,19.406-4.548l1.437-15.165s13.37-8.45,22.462-3.017l1.596-17.47s15.815-8.762,23.173-2.899l-.842,16.017s13.754-6.9,22.606-2.009l-7.078,82.254s4.547,2.534,5.32,1.585c5.555-6.819,7.409-20.214,13.745-27.993,7.331-9,28.229-5.782,28.229-5.782Z"/><line class="i" x1="329.199" y1="172.54" x2="326.338" y2="239.509"/><line class="i" x1="304.353" y1="176.894" x2="301.953" y2="245.097"/><line class="i" x1="281.478" y1="195.552" x2="281.189" y2="247.663"/><path class="i" d="M350.677,255.65c-33.864,0-37.738,6.31-42.612,13.8-.985,1.513-1.819,3.105-2.525,4.732-4.94,11.387-3.587,24.491-3.587,24.491"/></g></g></g></svg>