<svg width="120" height="120" viewBox="0 0 120 120" fill="none" xmlns="http://www.w3.org/2000/svg">
<path fill-rule="evenodd" clip-rule="evenodd" d="M120 60C120 93.1373 93.1368 120 60 120C26.8627 120 0 93.1373 0 60C0 26.8632 26.8627 0 60 0C93.1368 0 120 26.8632 120 60Z" fill="#2A3961"/>
<mask id="mask0_0_5538" style="mask-type:alpha" maskUnits="userSpaceOnUse" x="0" y="0" width="120" height="120">
<path fill-rule="evenodd" clip-rule="evenodd" d="M120 60C120 93.1373 93.1368 120 60 120C26.8627 120 0 93.1373 0 60C0 26.8632 26.8627 0 60 0C93.1368 0 120 26.8632 120 60Z" fill="white"/>
</mask>
<g mask="url(#mask0_0_5538)">
<path fill-rule="evenodd" clip-rule="evenodd" d="M69.3761 104.354H50.1151C46.7551 104.354 44.0306 101.63 44.0306 98.2695V21.2041C44.0306 17.8441 46.7551 15.1196 50.1151 15.1196H69.3761C72.7366 15.1196 75.4606 17.8441 75.4606 21.2041V98.2695C75.4606 101.63 72.7366 104.354 69.3761 104.354Z" fill="#0084D6"/>
<path fill-rule="evenodd" clip-rule="evenodd" d="M16.1017 69.3674V50.1069C16.1017 46.7465 18.8257 44.0225 22.1862 44.0225H97.3052C100.666 44.0225 103.39 46.7465 103.39 50.1069V69.3674C103.39 72.7279 100.666 75.4519 97.3052 75.4519H22.1862C18.8257 75.4519 16.1017 72.7279 16.1017 69.3674Z" fill="#57B1B1"/>
<path fill-rule="evenodd" clip-rule="evenodd" d="M44.0309 75.4519H75.4608V44.022H44.0309V75.4519Z" fill="#005C95"/>
<path fill-rule="evenodd" clip-rule="evenodd" d="M52.7162 20.8707C52.7162 21.3219 52.3505 21.6876 51.8998 21.6876C51.4481 21.6876 51.0828 21.3219 51.0828 20.8707C51.0828 20.42 51.4481 20.0542 51.8998 20.0542C52.3505 20.0542 52.7162 20.42 52.7162 20.8707Z" fill="#132A5D"/>
<path fill-rule="evenodd" clip-rule="evenodd" d="M68.7236 20.8707C68.7236 21.3219 68.3578 21.6876 67.9071 21.6876C67.4554 21.6876 67.0901 21.3219 67.0901 20.8707C67.0901 20.42 67.4554 20.0542 67.9071 20.0542C68.3578 20.0542 68.7236 20.42 68.7236 20.8707Z" fill="#132A5D"/>
<path fill-rule="evenodd" clip-rule="evenodd" d="M61.1284 30.753C61.1284 31.2037 60.7622 31.5695 60.3115 31.5695C59.8603 31.5695 59.495 31.2037 59.495 30.753C59.495 30.3018 59.8603 29.936 60.3115 29.936C60.7622 29.936 61.1284 30.3018 61.1284 30.753Z" fill="#132A5D"/>
<path fill-rule="evenodd" clip-rule="evenodd" d="M70.112 39.6548C70.112 40.1056 69.7463 40.4713 69.2951 40.4713C68.8439 40.4713 68.4786 40.1056 68.4786 39.6548C68.4786 39.2036 68.8439 38.8379 69.2951 38.8379C69.7463 38.8379 70.112 39.2036 70.112 39.6548Z" fill="#132A5D"/>
<path fill-rule="evenodd" clip-rule="evenodd" d="M52.4711 38.838C52.4711 39.2892 52.1053 39.6549 51.6546 39.6549C51.2034 39.6549 50.8381 39.2892 50.8381 38.838C50.8381 38.3872 51.2034 38.0215 51.6546 38.0215C52.1053 38.0215 52.4711 38.3872 52.4711 38.838Z" fill="#132A5D"/>
<path fill-rule="evenodd" clip-rule="evenodd" d="M53.1508 81.7777C53.1508 82.2035 52.8052 82.5486 52.3799 82.5486C51.9542 82.5486 51.6086 82.2035 51.6086 81.7777C51.6086 81.352 51.9542 81.0068 52.3799 81.0068C52.8052 81.0068 53.1508 81.352 53.1508 81.7777Z" fill="#132A5D"/>
<path fill-rule="evenodd" clip-rule="evenodd" d="M68.2614 81.7777C68.2614 82.2035 67.9162 82.5486 67.491 82.5486C67.0647 82.5486 66.7196 82.2035 66.7196 81.7777C66.7196 81.352 67.0647 81.0068 67.491 81.0068C67.9162 81.0068 68.2614 81.352 68.2614 81.7777Z" fill="#132A5D"/>
<path fill-rule="evenodd" clip-rule="evenodd" d="M61.0914 91.1063C61.0914 91.5321 60.7463 91.8772 60.321 91.8772C59.8948 91.8772 59.5497 91.5321 59.5497 91.1063C59.5497 90.6806 59.8948 90.3354 60.321 90.3354C60.7463 90.3354 61.0914 90.6806 61.0914 91.1063Z" fill="#132A5D"/>
<path fill-rule="evenodd" clip-rule="evenodd" d="M69.572 99.5097C69.572 99.9354 69.2269 100.281 68.8016 100.281C68.3754 100.281 68.0303 99.9354 68.0303 99.5097C68.0303 99.0839 68.3754 98.7388 68.8016 98.7388C69.2269 98.7388 69.572 99.0839 69.572 99.5097Z" fill="#132A5D"/>
<path fill-rule="evenodd" clip-rule="evenodd" d="M52.9192 98.7391C52.9192 99.1649 52.5741 99.51 52.1488 99.51C51.7226 99.51 51.3775 99.1649 51.3775 98.7391C51.3775 98.3134 51.7226 97.9683 52.1488 97.9683C52.5741 97.9683 52.9192 98.3134 52.9192 98.7391Z" fill="#132A5D"/>
<path fill-rule="evenodd" clip-rule="evenodd" d="M23.5867 50.5323C23.5867 50.9518 23.2469 51.2912 22.8278 51.2912C22.4088 51.2912 22.069 50.9518 22.069 50.5323C22.069 50.1133 22.4088 49.7734 22.8278 49.7734C23.2469 49.7734 23.5867 50.1133 23.5867 50.5323Z" fill="#132A5D"/>
<path fill-rule="evenodd" clip-rule="evenodd" d="M38.4611 50.5323C38.4611 50.9518 38.1212 51.2912 37.7022 51.2912C37.2827 51.2912 36.9433 50.9518 36.9433 50.5323C36.9433 50.1133 37.2827 49.7734 37.7022 49.7734C38.1212 49.7734 38.4611 50.1133 38.4611 50.5323Z" fill="#132A5D"/>
<path fill-rule="evenodd" clip-rule="evenodd" d="M31.4031 59.7149C31.4031 60.134 31.0638 60.4738 30.6443 60.4738C30.2252 60.4738 29.8854 60.134 29.8854 59.7149C29.8854 59.2959 30.2252 58.9561 30.6443 58.9561C31.0638 58.9561 31.4031 59.2959 31.4031 59.7149Z" fill="#132A5D"/>
<path fill-rule="evenodd" clip-rule="evenodd" d="M39.7511 67.9864C39.7511 68.4055 39.4113 68.7453 38.9922 68.7453C38.5732 68.7453 38.2333 68.4055 38.2333 67.9864C38.2333 67.5674 38.5732 67.2275 38.9922 67.2275C39.4113 67.2275 39.7511 67.5674 39.7511 67.9864Z" fill="#132A5D"/>
<path fill-rule="evenodd" clip-rule="evenodd" d="M23.3594 67.2276C23.3594 67.6467 23.0195 67.9865 22.6005 67.9865C22.181 67.9865 21.8416 67.6467 21.8416 67.2276C21.8416 66.8086 22.181 66.4688 22.6005 66.4688C23.0195 66.4688 23.3594 66.8086 23.3594 67.2276Z" fill="#132A5D"/>
<path fill-rule="evenodd" clip-rule="evenodd" d="M81.1032 50.7275C81.1032 51.1495 80.761 51.4917 80.3391 51.4917C79.9167 51.4917 79.5749 51.1495 79.5749 50.7275C79.5749 50.3056 79.9167 49.9634 80.3391 49.9634C80.761 49.9634 81.1032 50.3056 81.1032 50.7275Z" fill="#132A5D"/>
<path fill-rule="evenodd" clip-rule="evenodd" d="M96.0803 50.7275C96.0803 51.1495 95.738 51.4917 95.3161 51.4917C94.8942 51.4917 94.552 51.1495 94.552 50.7275C94.552 50.3056 94.8942 49.9634 95.3161 49.9634C95.738 49.9634 96.0803 50.3056 96.0803 50.7275Z" fill="#132A5D"/>
<path fill-rule="evenodd" clip-rule="evenodd" d="M88.974 59.9736C88.974 60.3956 88.6318 60.7378 88.2094 60.7378C87.7875 60.7378 87.4452 60.3956 87.4452 59.9736C87.4452 59.5517 87.7875 59.2095 88.2094 59.2095C88.6318 59.2095 88.974 59.5517 88.974 59.9736Z" fill="#132A5D"/>
<path fill-rule="evenodd" clip-rule="evenodd" d="M97.3792 68.3027C97.3792 68.7246 97.0374 69.0669 96.615 69.0669C96.1931 69.0669 95.8509 68.7246 95.8509 68.3027C95.8509 67.8808 96.1931 67.5386 96.615 67.5386C97.0374 67.5386 97.3792 67.8808 97.3792 68.3027Z" fill="#132A5D"/>
<path fill-rule="evenodd" clip-rule="evenodd" d="M80.874 67.5386C80.874 67.9605 80.5318 68.3027 80.1099 68.3027C79.6875 68.3027 79.3457 67.9605 79.3457 67.5386C79.3457 67.1167 79.6875 66.7744 80.1099 66.7744C80.5318 66.7744 80.874 67.1167 80.874 67.5386Z" fill="#132A5D"/>
<path fill-rule="evenodd" clip-rule="evenodd" d="M59.515 69.0928C59.1262 68.7184 58.7518 68.3594 58.3793 67.9989C56.3691 66.0568 54.3584 64.1148 52.3496 62.1712C50.1032 59.9973 50.37 56.2332 52.916 54.4164C53.8395 53.7573 54.884 53.4405 56.0264 53.5764C56.7804 53.6661 57.4184 54.0487 58.0121 54.4956C58.3544 54.7528 58.6764 55.0394 58.9956 55.326C59.3892 55.6797 59.6696 55.6941 60.0545 55.3346C60.9012 54.5431 61.8833 54.0324 63.0296 53.8264C64.807 53.5072 66.5168 54.2815 67.4403 55.8448C68.6139 57.832 68.4416 60.15 66.9204 61.8861C66.2278 62.6767 65.4372 63.3828 64.6812 64.1162C63.0152 65.7324 61.3433 67.3408 59.6734 68.9522C59.6302 68.9935 59.5846 69.0319 59.515 69.0928Z" fill="#EF9580"/>
</g>
</svg>
