<?xml version="1.0" encoding="UTF-8"?><svg xmlns="http://www.w3.org/2000/svg" viewBox="0 0 480.185 480.431"><defs><style>.f{fill:#68b7b8;}.g{fill:#ed7f3b;}.h{fill:#ba6d82;}.i{fill:#cf5b25;}.j{fill:#de99ab;}.k{fill:#4c8585;}</style></defs><g id="a"/><g id="b"><g id="c"><circle class="f" cx="240.56" cy="240.718" r="239.625"/><g id="d"><path class="k" d="M448.685,119.218C259.685-156.407-125.065,95.593,40.31,372.343c0,0,65.25-447.75,408.375-253.125Z"/></g></g><g id="e"><g><ellipse class="i" cx="190.713" cy="152.732" rx="83.072" ry="62.071"/><ellipse class="g" cx="189.78" cy="139.198" rx="83.072" ry="61.604"/><path class="h" d="M196.314,139.198l27.068,130.675h4.667l-3.734-55.07,24.268-3.734,11.201,60.671h4.667v-55.07l25.202-1.867,4.667,59.737h5.6l7.467-43.87,26.135,.933,16.162,143.485-48.551,20.962,8.051,75.292s-38.25,10.125-65.25,9l-5.761-81.446-54.927-11.416-10.267-110.141,8.401-19.601-5.6-116.674c7.819-31.627,20.535-1.867,20.535-1.867Z"/><path class="j" d="M178.579,143.865l15.868-.933s-3.029-8.032-4.667-10.267c-1.532-2.09-7.405-1.922-9.334,0-1.85,1.844-1.867,11.201-1.867,11.201Z"/></g></g></g></svg>