<svg width="50" height="50" viewBox="0 0 50 50" fill="none" xmlns="http://www.w3.org/2000/svg">
<path fill-rule="evenodd" clip-rule="evenodd" d="M25 50C11.193 50 0 38.8072 0 25C0 11.193 11.193 0 25 0C38.8072 0 50 11.193 50 25C50 38.8072 38.8072 50 25 50Z" fill="#FFC996"/>
<mask id="mask0_11_5235" style="mask-type:alpha" maskUnits="userSpaceOnUse" x="0" y="0" width="50" height="50">
<path fill-rule="evenodd" clip-rule="evenodd" d="M25 50C11.193 50 0 38.8072 0 25C0 11.193 11.193 0 25 0C38.8072 0 50 11.193 50 25C50 38.8072 38.8072 50 25 50Z" fill="white"/>
</mask>
<g mask="url(#mask0_11_5235)">
<path fill-rule="evenodd" clip-rule="evenodd" d="M3.8978 39.1209H35.2974V29.0938H3.8978V39.1209Z" fill="#F1F1F1"/>
<path fill-rule="evenodd" clip-rule="evenodd" d="M2.63599 49.2005H38.4476V41.3911H2.63599V49.2005Z" fill="#F1F1F1"/>
<path fill-rule="evenodd" clip-rule="evenodd" d="M36.4255 40.2562H3.8977C3.4825 40.2562 3.1459 39.9173 3.1459 39.4995V29.0938C3.1459 28.6758 3.4825 28.3369 3.8977 28.3369H36.2375C36.6529 28.3369 36.9895 28.6758 36.9895 29.0938C36.9895 29.5116 36.6529 29.8507 36.2375 29.8507H4.6499V38.7426H36.4255C36.8409 38.7426 37.1777 39.0815 37.1777 39.4995C37.1777 39.9173 36.8409 40.2562 36.4255 40.2562" fill="#0084D6"/>
<path fill-rule="evenodd" clip-rule="evenodd" d="M38.8698 50.5652H2.39365C1.97845 50.5652 1.64145 50.2263 1.64145 49.8085V41.0128C1.64145 40.5948 1.97845 40.2559 2.39365 40.2559H38.659C39.0742 40.2559 39.411 40.5948 39.411 41.0128C39.411 41.4307 39.0742 41.7696 38.659 41.7696H3.14585V49.0516H38.8698C39.285 49.0516 39.6218 49.3905 39.6218 49.8085C39.6218 50.2263 39.285 50.5652 38.8698 50.5652" fill="#2A3961"/>
<path fill-rule="evenodd" clip-rule="evenodd" d="M18.9488 5.49588C17.906 4.71061 16.726 4.46227 15.455 4.54559C15.1638 6.95029 16.587 9.72287 20.0816 9.88548L20.691 8.71241C20.486 7.38538 19.9946 6.28396 18.9488 5.49588" fill="#57B1B1"/>
<path fill-rule="evenodd" clip-rule="evenodd" d="M28.2085 11.6405C26.3895 9.85463 23.7475 9.43704 21.4195 10.469C21.2605 10.5393 21.0933 10.597 20.9073 10.6604C20.2911 11.0102 19.7633 10.9156 19.3603 10.691C18.9867 10.5962 18.6141 10.4888 18.2535 10.3533C17.2101 9.96129 16.1433 9.77192 15.0329 9.94318C11.3203 10.5167 8.98832 14.0456 9.95792 17.6994C10.6697 20.3823 11.9439 22.8061 13.5369 25.0631C14.2469 26.0695 15.0443 26.9983 16.0671 27.6994C16.8699 28.2496 17.7161 28.4962 18.6939 28.1399C19.6179 27.8035 20.5559 27.8995 21.4885 28.1967C21.7845 28.2907 22.1289 28.3205 22.4357 28.2744C23.3637 28.1357 24.0915 27.5922 24.7207 26.9381C27.3003 24.2559 29.0157 21.0611 29.9483 17.4761C30.5283 15.2466 29.8421 13.2446 28.2085 11.6405" fill="#D56164"/>
<path fill-rule="evenodd" clip-rule="evenodd" d="M20.9074 10.6605C20.8 10.6974 20.6876 10.7354 20.563 10.7805C20.6522 10.6012 20.6952 10.509 20.743 10.4192C21.5484 8.90284 22.3546 7.38685 23.16 5.87025C23.3022 5.60219 23.447 5.33533 23.5772 5.06124C23.682 4.84047 23.5824 4.67162 23.3932 4.55772C23.201 4.442 23.0292 4.50519 22.8946 4.66739C22.8354 4.73864 22.7966 4.82799 22.7522 4.9107C22.1278 6.0727 21.504 7.23531 20.8794 8.39731C20.8314 8.48686 20.778 8.5734 20.6924 8.72112C20.692 8.7183 20.6914 8.71568 20.691 8.71266L20.0816 9.88573C19.9444 10.1427 19.8414 10.3728 19.7016 10.5778C19.6496 10.6541 19.4984 10.7261 19.4158 10.7056C19.3972 10.7008 19.3788 10.6958 19.3604 10.6911C19.7634 10.9159 20.2912 11.0103 20.9074 10.6605" fill="#B78467"/>
</g>
</svg>
