<?xml version="1.0" encoding="UTF-8"?><svg xmlns="http://www.w3.org/2000/svg" viewBox="0 0 479.25 479.773"><defs><style>.n{fill:#68b7b8;}.o{fill:#ebe1e0;}.p{fill:#fbcd91;}.q{fill:#ba6c82;}.r,.s{fill:#167ec9;}.t{fill:#142a5c;}.u{fill:#4c8585;}.v{fill:#7a7a7a;}.w{fill:none;stroke:#915e6d;stroke-width:2px;}.w,.s{stroke-miterlimit:10;}.s{stroke:#142a5c;stroke-width:3px;}</style></defs><g id="a"/><g id="b"><g id="c"><circle class="n" cx="239.625" cy="239.625" r="239.625"/><path class="u" d="M170.572,10.277C-140.7,131.412,17.483,562.68,324.495,464.767c0,0-421.255-165.126-153.923-454.49Z"/></g><g id="d"><path class="o" d="M323.716,289.029l-80.672,190.221c16.403,3.408,68.443-10.965,68.443-10.965l42.478-184.215-10.166-8.678-20.083,13.637Z"/></g><g id="e"><path class="t" d="M345.996,273.944l-86.549,204.504c73.739-6.54,111.596-38.172,117.282-42.272l-7.082-147.69-23.651-14.541Z"/></g><g id="f"><polygon class="o" points="212.351 170.665 212.351 223.995 278.571 223.995 278.417 170.824 212.351 170.665"/><polygon class="o" points="285.297 236.955 261.888 220.781 276.785 221.207 285.297 236.955"/></g><g id="g"><path class="o" d="M166.099,289.257l40.849,187.781s-45.417-6.655-73.476-22.525,16.584-175.034,16.584-175.034l16.044,9.778Z"/></g><g id="h"><path class="q" d="M102.99,156.581l26.304,90.636s18.993,5.045,36.42,.629c10.456-2.65,20.348-8.706,25.235-21.302l-25.949-90.811s-36.221-13.351-62.01,20.848Z"/><polygon class="q" points="166.485 289.55 167.755 244.367 146.611 248.075 146.785 281.402 166.485 289.55"/><path class="p" d="M301.731,137.329l.964,105.077c8.99,2.608,17.244,3.968,24.569,4.541,21.972,1.719,35.575-3.644,35.575-3.644l-.995-105.31c-32.656-19.968-60.112-.663-60.112-.663Z"/><polygon class="p" points="330.778 276.232 330.171 244.454 346.161 244.251 346.566 275.828 323.694 295.664 330.778 276.232"/></g><g id="i"><path class="r" d="M128.637,267.603l28.868,16.006,10.25,184.675s-54.582-18.413-81.276-44.356l42.158-156.325Z"/><polygon class="q" points="232.247 329.077 246.08 322.63 246.08 295.22 252.298 298.226 255.136 308.723 298.549 295.694 295.517 317.362 238.378 349.418 232.247 329.077"/><line class="w" x1="297.682" y1="300.133" x2="269.877" y2="312.278"/><line class="w" x1="296.824" y1="308.022" x2="275.268" y2="317.522"/><line class="w" x1="296.276" y1="314.599" x2="281.844" y2="321.175"/><path class="q" d="M301.731,137.329l62.621,47.419,12.497-.184s8.861-34.311,.622-39.965c-45.186-31.007-75.74-7.269-75.74-7.269Z"/><path class="q" d="M359.946,148.48l43.546-2.968c13.091,13.091,7.971,44.645,.197,53.023-5.888,6.345-7.83-2.635-41.1,18.331"/></g><g id="j"><path class="t" d="M165.698,136.017s-6.065,60.366-21.933,58.086c-45.729-6.573,.93,28.598,6.09,67.965,2.098,16.006-20.338,53.279-36.481,53.279-36.755,0-57.239-35.402-44.686-45.124,43.076-33.361,25.542-30.693,13.251-59.55-5.649-13.264,12.081-42.685,21.051-54.092,28.502-36.243,62.707-20.564,62.707-20.564Z"/></g><g id="k"><polyline class="s" points="157.506 299.282 186.373 359.085 238.378 322.634 254.048 343.393 179.206 393.718 128.637 342.584"/></g><g id="l"><circle class="v" cx="230.807" cy="197.33" r="2.536"/><circle class="v" cx="244.335" cy="197.33" r="2.536"/><circle class="v" cx="257.863" cy="197.33" r="2.536"/><polygon class="o" points="212.351 170.665 212.351 223.995 278.571 223.995 278.417 170.824 212.351 170.665"/><circle class="v" cx="230.807" cy="197.33" r="2.536"/><circle class="v" cx="244.335" cy="197.33" r="2.536"/><circle class="v" cx="257.863" cy="197.33" r="2.536"/><polygon class="o" points="180.897 157.602 215.491 134.96 193.477 135.556 180.897 157.602"/><polygon class="o" points="288.696 64.801 288.696 139.459 190.838 139.459 191.065 65.023 288.696 64.801"/><ellipse class="v" cx="261.422" cy="102.13" rx="3.748" ry="3.55"/><ellipse class="v" cx="241.431" cy="102.13" rx="3.748" ry="3.55"/><ellipse class="v" cx="221.44" cy="102.13" rx="3.748" ry="3.55"/></g><g id="m"><path class="p" d="M361.859,184.748l13.653-2.899s4.926,11.496,0,21.059c-2.008,3.898-15.566,1.125-15.566,1.125l1.913-19.284Z"/></g></g></svg>