<?xml version="1.0" encoding="UTF-8"?><svg xmlns="http://www.w3.org/2000/svg" viewBox="0 0 479.504 479.38"><defs><style>.h{fill:#fbcd91;}.i{fill:#ba6c82;}.j{fill:#de99ab;}.k{fill:#cba03c;}.l{fill:#0582d6;}.m{fill:#142a5c;}.n{fill:#fff;}.n,.o,.p{stroke-miterlimit:10;}.n,.p{stroke:#ebe1e0;stroke-width:7px;}.o{stroke:#cba03c;}.o,.p{fill:none;}</style></defs><g id="a"/><g id="b"><g id="c"><circle class="i" cx="239.814" cy="239.69" r="239.625"/><path class="j" d="M45.814,98.931C380.876-44.842,468.638,310.82,468.638,310.82c0,0-176.322-79.893-344.515,129.663-49.195,0-198.758-158.269-78.309-341.552Z"/></g><g id="d"><rect class="n" x="107.031" y="113.308" width="278.495" height="229.636"/><path class="p" d="M356.166,154.366l-211.387-1.147,211.387,1.147Z"/><line class="p" x1="339.392" y1="189.991" x2="152.328" y2="189.466"/><line class="p" x1="148.247" y1="235.934" x2="345.755" y2="237.789"/><line class="p" x1="169.265" y1="280.134" x2="343.592" y2="280.134"/></g><g id="e"><path class="m" d="M95.077,292.975l24.649,22.238,22.846-22.578,32.36,174.91s-32.145,.333-89.517-44.078c-32.03-24.794,9.662-130.492,9.662-130.492Z"/><path class="h" d="M258.483,349.325l-13.444,15.194,11.804,11.648,10.632-17.748,10.61,9.896,25.972-34.983-23.549-15.132,5.9-6.893c2.606-8.301-2.972-10.374-2.972-10.374-7.908,10.199-23.318,14.983-23.318,14.983l-15.631,20.977"/></g><g id="f"><polyline class="o" points="280.559 318.176 275.321 324.598 289.067 335.331"/><polyline class="o" points="276.303 325.365 271.289 332.439 283.837 342.943"/><polyline class="o" points="272.098 333.233 266.934 339.886 277.943 349.746"/><polyline class="o" points="280.448 317.905 270.857 324.583 271.383 334.154 264.921 341.922"/><polygon class="k" points="280.229 318.287 270.844 324.529 271.467 332.462 276.285 325.335 274.743 324.526 280.229 318.287"/><polygon class="k" points="371.413 161.403 270.857 324.583 270.404 335.331 270.844 329.913 275.321 324.598 280.448 317.905 285.439 321.366 371.413 161.403"/></g><g id="g"><g><path class="h" d="M91.932,175.078v90.595c35.583,28.197,60.396,0,60.396,0v-90.595h-60.396Z"/><polygon class="h" points="107.031 273.222 107.031 295.871 97.283 296.211 122.13 318.519 144.779 295.871 137.229 295.871 137.229 273.222 107.031 273.222"/><path class="l" d="M137.229,288.321l6.621,171.005s20.941,9.121,36.421,12.532l-12.843-115.591,37.748,60.396,60.396-45.297-15.561-15.362-37.286,22.911-37.748-75.496-37.748-15.099Z"/><path class="l" d="M107.031,288.321l-10.828,142.898c-23.386-13.7-53.378-55.053-53.378-55.053l26.458-72.746,37.748-15.099Z"/><path class="m" d="M93.609,176.756c-.444-4.924,53.055,20.064,58.146,36.544l.572,52.373c.134,2.733-15.612,8.485-14.42,9.677,18.673,18.673,51.489-5.69,47.4-14.703-15.385-33.91-6.535-35.283-9.986-45.922-9.706-29.924-15.593-39.646-15.593-39.646,0,0-22.419-29.571-66.955-7.878-25.523,12.432-6.385,47.589-14.915,60.675-5.689,8.729-14.528,4.203-14.915,8.474-1.308,14.468,10.046,12.948,5.848,15.834-14.552,10.003-6.674,21.237,2.442,26.021,16.304,8.557,37.48-4.589,35.794-4.983-5.121-1.196-12.743-5.138-15.099-7.55l1.678-88.917Z"/></g></g></g></svg>