<?xml version="1.0" encoding="UTF-8"?><svg xmlns="http://www.w3.org/2000/svg" viewBox="0 0 479.261 479.25"><defs><style>.f{stroke-width:3px;}.f,.g{fill:none;stroke:#142a5c;stroke-miterlimit:10;}.h{fill:#fbcd91;}.i{fill:#cba03c;}.j{fill:#142a5c;}.g{stroke-width:8px;}</style></defs><g id="a"/><g id="b"><g id="c"><circle class="h" cx="239.63" cy="239.625" r="239.625"/><path class="i" d="M479.261,237.02c0,130.638-41.625-102.168-164.25-94.394C182.942,150.998,2.261,470.229,.011,237.02-1.243,107.095,107.294,.479,239.636,.479s239.625,105.903,239.625,236.541Z"/></g><g id="d"><path class="j" d="M238.516,39.567l-17.418,326.255c-52.81,6.361-92.493,43.15-92.493,43.15l221.332-.238s-43.108-36.782-94.394-42.755L238.516,39.567Z"/><path class="g" d="M114.649,120.738l249.244,.874-249.244-.874Z"/></g><g id="e"><polygon class="g" points="115.101 140.095 87.428 270.552 147.452 270.552 115.101 140.095"/><polygon class="g" points="362.579 140.572 334.906 271.028 394.93 271.028 362.579 140.572"/><path class="j" d="M82.615,274.357s33.347,49.04,69.65-.059"/><path class="j" d="M330.093,274.833s33.347,49.04,69.65-.059"/><polyline class="f" points="362.746 153.653 362.874 186.065 363.219 273.29"/><polyline class="f" points="115.744 156.035 115.873 188.446 116.218 275.672"/></g></g></svg>