<?xml version="1.0" encoding="UTF-8"?><svg xmlns="http://www.w3.org/2000/svg" viewBox="0 0 479.662 479.25"><defs><style>.j{fill:#fbcd91;}.k{fill:#fec02d;}.l{fill:#ba6c82;}.m{fill:#bf6a7c;}.n{fill:#cba03c;}.o{fill:#0581d6;}.p{fill:#142a5c;}.q{fill:none;stroke:#de99ab;stroke-miterlimit:10;stroke-width:5px;}</style></defs><g id="a"/><g id="b"><g id="c"><circle class="p" cx="240.037" cy="239.625" r="239.625"/><path class="o" d="M15.495,157.15c66.108-188.557,441.829-18.237,441.829-18.237,0,0-319.971,161.328-362.815,290.264,0,0-140.301-97.22-79.014-272.027Z"/></g><g id="d"><path class="l" d="M211.809,300.338c125.116-36.277,35.014-51.504,58.781-119.079,28.612-81.351,174.459,6.952,144.42,92.36-71.584,203.531-245.686,46.696-245.686,46.696,0,0,32.909-17.199,42.485-19.976Z"/></g><g id="e"><path class="j" d="M130.396,171.717c98.304-54.69,85.682,92.795,79.834,119.75-10.702,49.325,57.82-10.579,52.412-2.535-85.256,126.813-256.878-13.942-156.196-85.282,26.477-18.761,23.95-31.933,23.95-31.933Z"/></g><g id="f"><path class="l" d="M98.462,307.434c-36.471-30.671,54.671-36.268,59.806-35.641,58.462,7.135,56.038-21.928,56.038-21.928,0,0-4.985,55.001-4.39,56.222,9.211,18.9,56.196-22.603,56.196-22.603,0,0-63.037,111.927-167.651,23.95Z"/><path class="k" d="M327.151,313.351c-11.302-.831-21.606-5.651-28.254-13.296l6.481-8.476c6.98,6.482,15.457,10.471,25.595,10.471,12.299,0,18.448-7.147,18.448-17.95,0-23.268-46.37-22.769-46.37-52.519,0-14.792,9.64-25.429,24.1-27.589v-16.786h10.138v16.454c10.471,1.163,17.949,6.149,23.601,12.963l-7.479,7.479c-5.318-5.817-11.468-9.141-20.442-9.141-9.972,0-16.453,6.482-16.453,15.955,0,21.439,46.369,20.609,46.369,52.187,0,16.121-9.972,27.589-25.595,29.916v16.786h-10.138v-16.454Z"/></g><g id="g"><path class="q" d="M213.392,255.545c-18.415,102.093,49.249,33.387,49.249,33.387,0,0-63.842,115.4-172.659,6.582"/><path class="m" d="M229.25,178.284c-8.503,17.039,52.008-36.804,46.62-59.426-5.123-21.51-34.375-27.822-56.155-.944-11.85,14.624,26.925,25.521,9.535,60.371Z"/></g><g id="h"><path class="k" d="M58.889,82.757l87.473,88.96s15.967,39.917-31.933,39.917L32.357,120.009s8.068-16.932,26.532-37.251Z"/></g><g id="i"><path class="n" d="M32.357,120.009c3.101-6.84,11.621-18.805,11.621-18.805l97.323,102.612c-1.277,4.448-22.22,8.898-26.872,7.817L32.357,120.009Z"/></g></g></svg>