<?xml version="1.0" encoding="UTF-8"?><svg xmlns="http://www.w3.org/2000/svg" viewBox="0 0 479.25 479.412"><defs><style>.f{fill:#ebe1e1;}.g{fill:#fff;}.h{fill:#ba6d82;}.i{fill:#de99ab;}.j{fill:none;stroke:#283962;stroke-miterlimit:10;stroke-width:2px;}</style></defs><g id="a"/><g id="b"><g id="c"><circle class="h" cx="239.625" cy="239.787" r="239.625"/><g id="d"><path class="i" d="M0,218.412C9.871,149.027,33.901,101.218,64.125,68.47,151.023-25.684,289.125,4.662,289.125,4.662c30.061,8.308,55.761,19.436,77.625,32.634,140.97,85.093,122.509,256.252,85.5,312.741,0,0-72.462-119.464-203.819-159.75-67.759-20.782-151.19-20.495-248.431,28.125Z"/></g></g><g id="e"><rect class="f" x="93.375" y="75.537" width="174.728" height="277.798"/><g><line class="j" x1="113.007" y1="100.077" x2="249.452" y2="100.077"/><line class="j" x1="113.007" y1="118.728" x2="249.452" y2="118.728"/><line class="j" x1="113.007" y1="137.379" x2="249.452" y2="137.379"/><line class="j" x1="113.007" y1="157.011" x2="249.452" y2="157.011"/><line class="j" x1="113.007" y1="175.662" x2="249.452" y2="175.662"/><line class="j" x1="113.007" y1="195.294" x2="249.452" y2="195.294"/><line class="j" x1="113.007" y1="215.908" x2="249.452" y2="215.908"/><line class="j" x1="113.007" y1="238.485" x2="249.452" y2="238.485"/><line class="j" x1="113.007" y1="261.062" x2="249.452" y2="261.062"/><line class="j" x1="113.007" y1="282.658" x2="249.452" y2="282.658"/><line class="j" x1="113.007" y1="327.812" x2="249.452" y2="327.812"/><line class="j" x1="113.007" y1="305.235" x2="249.452" y2="305.235"/></g><rect class="g" x="219.022" y="121.673" width="174.728" height="277.798"/><g><line class="j" x1="240.618" y1="150.14" x2="371.141" y2="150.14"/><line class="j" x1="240.618" y1="168.79" x2="371.141" y2="168.79"/><line class="j" x1="240.618" y1="187.441" x2="371.141" y2="187.441"/><line class="j" x1="240.618" y1="207.073" x2="371.141" y2="207.073"/><line class="j" x1="240.618" y1="225.724" x2="371.141" y2="225.724"/><line class="j" x1="240.618" y1="245.357" x2="371.141" y2="245.357"/><line class="j" x1="240.618" y1="265.97" x2="371.141" y2="265.97"/><line class="j" x1="240.618" y1="288.548" x2="371.141" y2="288.548"/><line class="j" x1="240.618" y1="311.125" x2="371.141" y2="311.125"/><line class="j" x1="240.618" y1="332.72" x2="371.141" y2="332.72"/><line class="j" x1="240.618" y1="377.875" x2="371.141" y2="377.875"/><line class="j" x1="240.618" y1="355.298" x2="371.141" y2="355.298"/></g></g></g></svg>