<svg width="51" height="51" viewBox="0 0 51 51" fill="none" xmlns="http://www.w3.org/2000/svg">
<path fill-rule="evenodd" clip-rule="evenodd" d="M51 25.5C51 39.5833 39.5833 51 25.5 51C11.4169 51 0 39.5833 0 25.5C0 11.4169 11.4169 0 25.5 0C39.5833 0 51 11.4169 51 25.5Z" fill="#404E74"/>
<mask id="mask0_11_5019" style="mask-type:alpha" maskUnits="userSpaceOnUse" x="0" y="0" width="51" height="51">
<path fill-rule="evenodd" clip-rule="evenodd" d="M51 25.5C51 39.5833 39.5833 51 25.5 51C11.4169 51 0 39.5833 0 25.5C0 11.4169 11.4169 0 25.5 0C39.5833 0 51 11.4169 51 25.5Z" fill="white"/>
</mask>
<g mask="url(#mask0_11_5019)">
<path fill-rule="evenodd" clip-rule="evenodd" d="M15.514 29.9544C15.1694 29.9895 14.6132 30.0436 14.5445 30.2319C14.415 30.5863 14.4584 31.1002 14.6293 31.4496C15.0393 32.2866 15.8397 32.5352 16.7189 32.5411C17.9648 32.5495 19.2107 32.5441 20.4566 32.5444C20.697 32.5446 20.9377 32.5446 21.1813 32.5446C21.387 32.5444 21.5536 32.7116 21.5536 32.918C21.5536 33.1242 21.3865 33.2914 21.1811 33.2914H20.819C16.4476 33.2876 12.0767 33.2795 7.70558 33.2863C7.29504 33.2871 6.86754 33.3265 6.47934 33.4484C5.97942 33.6054 5.59526 33.9371 5.57211 34.5286C5.54788 35.1484 5.91562 35.5228 6.43869 35.7071C6.79889 35.8344 7.20755 35.8679 7.59467 35.8689C11.3321 35.8806 15.0695 35.8765 18.8069 35.8768H19.13C19.3413 35.8768 19.5128 36.0486 19.5128 36.2607C19.5128 36.4725 19.3413 36.6446 19.13 36.6446H18.7337C14.4498 36.6446 10.1661 36.64 5.88224 36.6522C5.4297 36.6536 4.9104 36.6355 4.54373 36.8432C4.1768 37.051 3.81337 37.4954 3.71834 37.9002C3.59262 38.4349 4.00774 38.8655 4.52327 39.0252C4.95158 39.1581 5.42081 39.207 5.87228 39.2084C10.1562 39.2216 14.4398 39.2165 18.7237 39.2168H19.1458C19.358 39.2168 19.5276 39.3954 19.5165 39.6077C19.506 39.8131 19.3426 39.9681 19.1453 39.9681H18.7302C15.1021 39.9681 11.474 39.9638 7.84557 39.9744C7.43476 39.9757 7.00779 40.0065 6.61664 40.1211C6.08441 40.277 5.67683 40.6379 5.65852 41.2394C5.64022 41.8427 6.02411 42.2269 6.55256 42.4049C6.91653 42.5273 7.32304 42.567 7.71043 42.5681C11.4042 42.5797 15.098 42.5751 18.7916 42.5751H19.0678C19.3241 42.5751 19.5276 42.7918 19.5122 43.0485C19.5023 43.2103 19.3747 43.3314 19.2201 43.3314C19.0478 43.3314 18.8904 43.3314 18.7331 43.3311C16.1103 43.3306 13.4874 43.3208 10.8647 43.3381C10.4141 43.3411 9.89909 43.3468 9.53269 43.5586C9.18919 43.7572 8.88363 44.1978 8.77811 44.5904C8.63462 45.1248 9.05647 45.5061 9.51681 45.6941C9.86894 45.8378 10.2795 45.8908 10.6642 45.8913C16.7181 45.9032 22.7723 45.9054 28.8268 45.8838C29.1332 45.8827 29.5007 45.7168 29.7354 45.5088C30.8486 44.5218 31.9389 43.507 33.0049 42.4684C33.0973 42.3784 33.1805 42.2571 33.2456 42.1261H51V33.5054H33.094C33.059 33.4578 33.0232 33.4125 32.985 33.3725C31.9381 32.2836 30.8672 31.2167 29.7669 30.1824C29.4675 29.9009 29.0594 29.6672 28.6623 29.5697C25.96 28.905 23.2448 29.1311 20.5223 29.48C18.8597 29.6929 17.1822 29.7853 15.514 29.9544Z" fill="#62BBB8"/>
<path fill-rule="evenodd" clip-rule="evenodd" d="M30.3884 34.9789C30.4237 35.3186 30.4788 35.8668 30.6699 35.9348C31.0295 36.0621 31.5508 36.0194 31.905 35.8512C32.7541 35.4468 33.0066 34.6581 33.0123 33.7912C33.0211 32.5631 33.0156 31.3352 33.0159 30.1071V29.3925C33.0159 29.1898 33.1856 29.0255 33.395 29.0255C33.6041 29.0255 33.7738 29.1903 33.7738 29.393V29.7497C33.7699 34.0586 33.7615 38.3673 33.7686 42.676C33.7691 43.0804 33.8094 43.5018 33.933 43.8845C34.0923 44.3773 34.4289 44.7559 35.0289 44.7788C35.6577 44.8029 36.0376 44.4402 36.2245 43.9248C36.3533 43.5695 36.3876 43.167 36.3884 42.7851C36.4002 39.1013 36.3964 35.417 36.3967 31.733V31.4146C36.3967 31.2065 36.5707 31.0372 36.7861 31.0372C37.001 31.0372 37.1754 31.2065 37.1754 31.4146V31.8052C37.1756 36.0279 37.1707 40.2506 37.1833 44.4731C37.1847 44.9191 37.1663 45.4313 37.3771 45.7924C37.5879 46.1544 38.0388 46.5124 38.4491 46.6063C38.9916 46.73 39.4285 46.3208 39.5907 45.8126C39.7253 45.3904 39.7752 44.9279 39.7766 44.4829C39.79 40.2604 39.7848 36.0377 39.7851 31.815V31.3989C39.7851 31.1898 39.9663 31.0229 40.1817 31.0335C40.39 31.0439 40.5474 31.2052 40.5474 31.3994V31.8086C40.5474 35.3852 40.543 38.9612 40.5537 42.5378C40.5548 42.943 40.5863 43.3636 40.7025 43.7492C40.8607 44.274 41.2266 44.6755 41.8367 44.6936C42.4491 44.7119 42.8386 44.3332 43.0192 43.8123C43.1436 43.4535 43.1837 43.0531 43.185 42.671C43.1965 39.0302 43.1922 35.3892 43.1922 31.7481V31.4761C43.1922 31.2235 43.412 31.0226 43.6721 31.038C43.8366 31.0476 43.9591 31.1736 43.9591 31.3257V31.8057C43.9585 34.3911 43.9484 36.9766 43.9659 39.5617C43.9692 40.006 43.975 40.5136 44.1896 40.8747C44.3911 41.2134 44.8384 41.5148 45.2367 41.6188C45.7786 41.76 46.1653 41.3442 46.3564 40.8904C46.5022 40.5433 46.5556 40.1389 46.5565 39.7597C46.5682 33.792 46.5704 27.8242 46.5488 21.8565C46.5477 21.5542 46.3794 21.192 46.1683 20.9609C45.167 19.8633 44.1375 18.7886 43.0839 17.738C42.9923 17.6468 42.8695 17.5645 42.7366 17.5005V0H33.9906V17.6502C33.9426 17.6844 33.8963 17.7197 33.856 17.7574C32.7514 18.7894 31.669 19.845 30.6197 20.9296C30.3341 21.2249 30.097 21.6272 29.9981 22.0183C29.3238 24.6821 29.5532 27.3585 29.9068 30.0421C30.123 31.681 30.2168 33.3345 30.3884 34.9789Z" fill="#FFC996"/>
<path fill-rule="evenodd" clip-rule="evenodd" d="M35.4861 21.0459C35.8304 21.011 36.3866 20.9567 36.4556 20.7684C36.5848 20.4139 36.5417 19.9 36.3708 19.551C35.9605 18.7139 35.1604 18.4651 34.2809 18.4594C33.0353 18.4508 31.7894 18.4562 30.5435 18.4559H29.8185C29.6128 18.4559 29.4462 18.2887 29.4462 18.0822C29.4462 17.8761 29.6133 17.7088 29.819 17.7088H30.1808C34.5522 17.7126 38.9234 17.721 43.2945 17.714C43.7048 17.7134 44.1326 17.6737 44.5208 17.5519C45.0204 17.3949 45.4048 17.0631 45.428 16.4717C45.4522 15.8519 45.0842 15.4774 44.5614 15.2931C44.2009 15.1662 43.7926 15.1324 43.4052 15.1316C39.668 15.12 35.9306 15.1237 32.1929 15.1235H31.8699C31.6588 15.1235 31.487 14.9519 31.487 14.7395C31.487 14.5277 31.6588 14.3559 31.8699 14.3559H32.2661C36.55 14.3556 40.834 14.3605 45.1176 14.348C45.5701 14.3467 46.0897 14.3648 46.4561 14.157C46.8233 13.9492 47.1865 13.5048 47.2818 13.1003C47.4072 12.5656 46.9921 12.1347 46.4768 11.975C46.0483 11.8424 45.579 11.7932 45.1276 11.7918C40.8439 11.7786 36.56 11.7837 32.2761 11.7835H31.854C31.6418 11.7835 31.4725 11.6049 31.4833 11.3925C31.494 11.1872 31.6574 11.0321 31.8545 11.0321H32.2696C35.898 11.0321 39.5261 11.0364 43.1543 11.0259C43.5653 11.0248 43.992 10.9937 44.3832 10.8792C44.9157 10.7233 45.323 10.3626 45.3413 9.76114C45.3599 9.15755 44.9757 8.77362 44.4473 8.59557C44.0833 8.4729 43.6771 8.43346 43.2897 8.43211C39.5959 8.42076 35.9021 8.42508 32.2085 8.42508H31.9323C31.676 8.42508 31.4722 8.20839 31.4878 7.95199C31.4975 7.78988 31.6254 7.66911 31.7797 7.66911H32.2667C34.8898 7.66965 37.5125 7.67965 40.1351 7.66235C40.586 7.65911 41.101 7.65344 41.4671 7.44188C41.8106 7.2433 42.1165 6.80236 42.222 6.40978C42.3655 5.87563 41.9436 5.4944 41.483 5.30609C41.1312 5.16235 40.7206 5.10966 40.3359 5.10885C34.2817 5.09723 28.2275 5.0948 22.1732 5.11642C21.8666 5.1175 21.4991 5.28339 21.2647 5.49143C20.1512 6.47841 19.0612 7.49322 17.9951 8.5318C17.9025 8.62205 17.8193 8.74309 17.7542 8.87413H0V17.4951H17.906C17.9407 17.5424 17.9765 17.5881 18.0148 17.6278C19.0617 18.7166 20.1326 19.7836 21.2332 20.8178C21.5325 21.0994 21.9406 21.3331 22.3375 21.4306C25.04 22.0953 27.755 21.8691 30.4775 21.5206C32.1401 21.3074 33.8176 21.215 35.4861 21.0459Z" fill="#0084D6"/>
<path fill-rule="evenodd" clip-rule="evenodd" d="M21.3506 16.021C21.3152 15.6816 21.2601 15.1333 21.0691 15.0654C20.7095 14.9378 20.1881 14.9805 19.834 15.149C18.9848 15.5534 18.7324 16.3421 18.7266 17.209C18.7179 18.4368 18.7234 19.6649 18.7231 20.893V21.6074C18.7231 21.8101 18.5534 21.9744 18.344 21.9744C18.1349 21.9744 17.9652 21.8099 17.9652 21.6071V21.2505C17.969 16.9415 17.9775 12.6328 17.9704 8.32412C17.9699 7.91971 17.9296 7.49805 17.8059 7.1154C17.6467 6.62262 17.3101 6.24395 16.7101 6.22112C16.0816 6.19724 15.7014 6.55999 15.5145 7.07533C15.3857 7.43065 15.3514 7.8332 15.3506 8.21479C15.3388 11.8988 15.3426 15.5829 15.3424 19.2671V19.5853C15.3424 19.7936 15.1683 19.9627 14.9531 19.9627C14.738 19.9627 14.5637 19.7936 14.5637 19.5856V19.1947C14.5634 14.9723 14.5683 10.7495 14.5557 6.52709C14.5543 6.08075 14.5727 5.56886 14.3619 5.20744C14.1511 4.84575 13.7002 4.48751 13.2899 4.39384C12.7475 4.27018 12.3106 4.67937 12.1483 5.18727C12.0137 5.60973 11.9641 6.07199 11.9625 6.517C11.949 10.7397 11.9542 14.9624 11.954 19.1849V19.601C11.954 19.8103 11.7728 19.9773 11.5574 19.9664C11.349 19.956 11.1917 19.795 11.1917 19.6004V19.1913C11.192 15.615 11.1961 12.0387 11.1854 8.46238C11.1843 8.05717 11.1528 7.63657 11.0366 7.251C10.8784 6.72611 10.5125 6.32435 9.90236 6.30631C9.29002 6.28826 8.90053 6.66667 8.7199 7.18757C8.59546 7.54661 8.55544 7.94704 8.55407 8.3289C8.54256 11.9699 8.54695 15.611 8.54695 19.2518V19.524C8.54695 19.7766 8.32712 19.9775 8.067 19.9621C7.90282 19.9526 7.78002 19.8265 7.78002 19.6745V19.1942C7.78057 16.6087 7.79071 14.0236 7.77317 11.4384C7.76988 10.9939 7.76412 10.4863 7.54951 10.1251C7.34804 9.7868 6.90099 9.48535 6.50245 9.38133C5.96056 9.23989 5.57381 9.65571 5.38277 10.1097C5.23695 10.4566 5.1835 10.8613 5.18268 11.2405C5.17089 17.2082 5.1687 23.1757 5.19035 29.1437C5.19172 29.4459 5.35974 29.8081 5.5708 30.0393C6.57208 31.1366 7.60158 32.2113 8.65549 33.2621C8.74676 33.3534 8.86956 33.4354 9.00249 33.4996V51.0002H17.7484V33.3499C17.7964 33.3157 17.8427 33.2804 17.883 33.2427C18.9876 32.2107 20.07 31.1549 21.1192 30.0703C21.4048 29.7752 21.6422 29.373 21.7409 28.9815C22.4154 26.3178 22.186 23.6416 21.8322 20.9578C21.6159 19.3192 21.5224 17.6657 21.3506 16.021Z" fill="#B96D82"/>
<mask id="mask1_11_5019" style="mask-type:alpha" maskUnits="userSpaceOnUse" x="6" y="28" width="23" height="18">
<rect x="6.65216" y="28.4141" width="22.1739" height="17.4857" fill="white"/>
</mask>
<g mask="url(#mask1_11_5019)">
<path fill-rule="evenodd" clip-rule="evenodd" d="M20.5222 29.4795C18.8596 29.6924 17.1822 29.7848 15.5139 29.9539C15.1693 29.989 14.6131 30.0431 14.5445 30.2314C14.415 30.5859 14.4583 31.0997 14.6293 31.4491C15.0393 32.2861 15.8396 32.5347 16.7189 32.5406C17.9648 32.549 19.2107 32.5436 20.4566 32.5439C20.697 32.5441 20.9376 32.5441 21.1813 32.5441C21.3869 32.5439 21.5536 32.7111 21.5536 32.9175C21.5536 33.1237 21.3864 33.2909 21.181 33.2909H20.8189C16.4475 33.2871 12.0766 33.279 7.70552 33.2858C7.29498 33.2866 6.86748 33.326 6.47928 33.4479C5.97936 33.6049 5.5952 33.9367 5.57205 34.5281C5.54782 35.1479 5.91556 35.5224 6.43863 35.7066C6.79883 35.8339 7.20749 35.8674 7.59461 35.8685C11.332 35.8801 15.0694 35.876 18.8068 35.8763H19.1299C19.3412 35.8763 19.5127 36.0481 19.5127 36.2602C19.5127 36.472 19.3412 36.6441 19.1299 36.6441H18.7336C14.4497 36.6441 10.1661 36.6396 5.88217 36.6517C5.42964 36.6531 4.91033 36.635 4.54367 36.8427C4.17674 37.0505 3.81331 37.495 3.71828 37.8997C3.59256 38.4344 4.00768 38.865 4.52321 39.0247C4.95152 39.1577 5.42075 39.2066 5.87221 39.2079C10.1561 39.2211 14.4398 39.216 18.7237 39.2163H19.1458C19.3579 39.2163 19.5275 39.3949 19.5165 39.6072L19.5162 39.6151C19.506 39.8126 19.3426 39.9677 19.1452 39.9677H18.7301C15.102 39.9677 11.4739 39.9633 7.84551 39.9739C7.4347 39.9752 7.00773 40.006 6.61657 40.1206C6.08435 40.2765 5.67677 40.6374 5.65846 41.2389C5.64016 41.8422 6.02405 42.2264 6.5525 42.4044C6.91647 42.5268 7.32298 42.5665 7.71037 42.5676C11.4042 42.5792 15.098 42.5746 18.7915 42.5746H19.0677C19.324 42.5746 19.5275 42.7913 19.5122 43.048L19.5116 43.0553C19.5022 43.2098 19.3746 43.3309 19.2201 43.3309C19.0478 43.3309 18.8903 43.3309 18.7331 43.3306C16.1102 43.3301 13.4873 43.3203 10.8647 43.3376C10.414 43.3406 9.89903 43.3463 9.53263 43.5581C9.18913 43.7567 8.88357 44.1974 8.77804 44.5899C8.63456 45.1243 9.05641 45.5056 9.51675 45.6936C9.86888 45.8374 10.2794 45.8903 10.6641 45.8909C16.7181 45.9027 22.7723 45.9049 28.8268 45.8833C29.1331 45.8822 29.5006 45.7163 29.7353 45.5083C30.8485 44.5213 31.9388 43.5065 33.0049 42.4679C33.0972 42.3779 33.1804 42.2566 33.2455 42.1256H45.0869V33.5049H33.094C33.059 33.4574 33.0232 33.412 32.985 33.372C31.938 32.2831 30.8671 31.2162 29.7668 30.1819C29.4675 29.9004 29.0594 29.6667 28.6623 29.5692C25.96 28.9045 23.2447 29.1307 20.5222 29.4795Z" fill="#62BBB8"/>
</g>
</g>
</svg>
