<svg width="120" height="120" viewBox="0 0 120 120" fill="none" xmlns="http://www.w3.org/2000/svg">
<path fill-rule="evenodd" clip-rule="evenodd" d="M120 60C120 93.1373 93.1368 120 60 120C26.8627 120 0 93.1373 0 60C0 26.8632 26.8627 0 60 0C93.1368 0 120 26.8632 120 60Z" fill="#132A5D"/>
<mask id="mask0_11_3597" style="mask-type:alpha" maskUnits="userSpaceOnUse" x="0" y="0" width="120" height="120">
<path fill-rule="evenodd" clip-rule="evenodd" d="M120 60C120 93.1373 93.1368 120 60 120C26.8627 120 0 93.1373 0 60C0 26.8632 26.8627 0 60 0C93.1368 0 120 26.8632 120 60Z" fill="white"/>
</mask>
<g mask="url(#mask0_11_3597)">
<path fill-rule="evenodd" clip-rule="evenodd" d="M125.248 56.3861C125.248 56.3861 83.4737 64.1986 80.1974 45.6955C76.5113 36.649 51.9381 124.233 51.9381 124.233L78.9682 125.877L112.962 99.1502L125.248 56.3861Z" fill="#005C95"/>
<path fill-rule="evenodd" clip-rule="evenodd" d="M27.7742 3.34229C32.689 7.86581 42.9277 16.0896 54.8048 16.0896C66.682 16.0896 85.9312 25.5471 84.2928 34.1818C82.6544 42.8165 55.6238 121.765 55.6238 121.765L26.9553 123.821L-11.9525 67.8994L-2.94194 10.7439L27.7742 3.34229Z" fill="#0084D6"/>
<path fill-rule="evenodd" clip-rule="evenodd" d="M28.8578 27.816H93.4217V25.2754H28.8578V27.816Z" fill="#B3B3B3"/>
<path fill-rule="evenodd" clip-rule="evenodd" d="M70.1807 91.8862V90.1577H49.6378V91.8862C49.6378 92.8491 48.8604 93.6291 47.9014 93.6291H46.6736V97.8646H73.1449V93.6291H71.9171C70.9581 93.6291 70.1807 92.8491 70.1807 91.8862Z" fill="#F1F1F1"/>
<path fill-rule="evenodd" clip-rule="evenodd" d="M78.2881 71.5449L93.1567 26.5459L107.394 71.723L78.2881 71.5449Z" stroke="#B3B3B3" stroke-width="0.5"/>
<path fill-rule="evenodd" clip-rule="evenodd" d="M52.23 90.5794L60.7361 24.8516L68.8813 90.8396L52.23 90.5794Z" fill="#E6E6E6"/>
<path fill-rule="evenodd" clip-rule="evenodd" d="M52.23 90.3885L60.7361 24.6606L60.4445 90.6486L52.23 90.3885Z" fill="#B3B3B3"/>
<path fill-rule="evenodd" clip-rule="evenodd" d="M15.4626 71.5449L30.3311 26.5459L44.5681 71.723L15.4626 71.5449Z" stroke="#B3B3B3" stroke-width="0.5"/>
<path fill-rule="evenodd" clip-rule="evenodd" d="M63.8082 26.4739C63.8082 28.3104 62.3252 29.7993 60.496 29.7993C58.6669 29.7993 57.1843 28.3104 57.1843 26.4739C57.1843 24.6379 58.6669 23.1489 60.496 23.1489C62.3252 23.1489 63.8082 24.6379 63.8082 26.4739Z" fill="#F1F1F1"/>
<path fill-rule="evenodd" clip-rule="evenodd" d="M32.4277 26.5457C32.4277 27.8508 31.3744 28.9087 30.074 28.9087C28.7741 28.9087 27.7209 27.8508 27.7209 26.5457C27.7209 25.2405 28.7741 24.1826 30.074 24.1826C31.3744 24.1826 32.4277 25.2405 32.4277 26.5457Z" fill="#F1F1F1"/>
<path fill-rule="evenodd" clip-rule="evenodd" d="M95.8116 26.5457C95.8116 27.8508 94.7579 28.9087 93.458 28.9087C92.1581 28.9087 91.1044 27.8508 91.1044 26.5457C91.1044 25.2405 92.1581 24.1826 93.458 24.1826C94.7579 24.1826 95.8116 25.2405 95.8116 26.5457Z" fill="#F1F1F1"/>
<path fill-rule="evenodd" clip-rule="evenodd" d="M18.5692 78.3203V79.6873H41.601V78.4053C41.601 76.9638 42.7647 75.795 44.2004 75.795H44.9238V71.0464H15.2465V75.795H16.054C17.4433 75.795 18.5692 76.9259 18.5692 78.3203Z" fill="#F1F1F1"/>
<path fill-rule="evenodd" clip-rule="evenodd" d="M81.2071 78.3203V79.6873H104.239V78.4053C104.239 76.9638 105.403 75.795 106.838 75.795H107.562V71.0464H77.8844V75.795H78.6919C80.0812 75.795 81.2071 76.9259 81.2071 78.3203Z" fill="#F1F1F1"/>
</g>
</svg>
