<?xml version="1.0" encoding="UTF-8"?><svg xmlns="http://www.w3.org/2000/svg" viewBox="0 0 479.25 479.256"><defs><style>.l{fill:#ebe1e0;}.m{fill:#e8dfde;}.n{fill:#e8e8e8;}.o{fill:#fbcd91;}.p{fill:#fec02d;}.q{fill:#ba6c82;}.r{fill:#0582d6;}.s{fill:#142a5c;}.t{fill:none;stroke:#c4c4c4;stroke-miterlimit:10;stroke-width:5px;}</style></defs><g id="a"/><g id="b"><g id="c"><circle class="o" cx="239.625" cy="239.625" r="239.625"/></g><g id="d"><polygon class="m" points="329.491 278.011 384.996 281.676 387.615 369.123 314.306 364.934 329.491 278.011"/></g><g id="e"><polygon class="s" points="101.415 262.721 131.115 263.115 131.69 266.285 156.782 295.59 163.242 387.479 86.638 375.439 101.415 262.721"/></g><g id="f"><polygon class="l" points="199.779 272.075 286.762 279.168 287.882 337.778 189.7 338.898 199.779 272.075"/></g><g id="g"><path class="q" d="M203.809,112.584l-.362,46.316-.061,68.492c31.803,14.55,50.564,14.197,75.219,0V111.145s-35.382-34.697-74.795,1.439Z"/><path class="q" d="M192.749,154.072c-6.03,16.866,.254,28.228,.254,28.228h14.241l-.819-28.228h-13.676Z"/><path class="q" d="M279.032,154.072h14.75c6.786,14.746-.509,27.211-.509,27.211l-21.079,.142,6.838-27.352Z"/><polygon class="q" points="228.55 229.649 228.441 256.295 214.454 263.925 244.462 284.523 269.578 263.839 255.902 256.051 256.669 228.83 228.55 229.649"/><polygon class="s" points="236.834 307.309 225.409 378.733 240.379 393.519 254.541 379.812 248.991 307.72 236.834 307.309"/><polyline class="t" points="200.375 267.881 216.974 308.93 242.016 289.993 272.194 310.731 287.882 269.416"/></g><g id="h"><path class="s" d="M203.809,160.45v-54.704c9.436-6.085,33.394-20.328,58.468-8.228,8.726,4.211,13.031,4.799,16.751,8.228,1.213,1.118,3.031,60.433,0,54.704-2.778-5.249,1.105-55.352-22.167-58.736-8.558-1.244-11.311,6.83-16.695,6.82-5.778-.011-15.098-13.805-26.964-1.14-11.007,11.748-5.113,47.859-9.392,53.056Z"/></g><g id="i"><g><polygon class="s" points="229.119 290.217 235.957 310.731 249.633 310.731 256.472 290.217 242.795 283.379 229.119 290.217"/><polygon class="n" points="227.363 255.297 243.988 284.711 217.732 303.74 203.809 263.3 227.363 255.297"/><polygon class="n" points="257.005 255.297 240.379 284.711 266.636 303.74 280.558 263.3 257.005 255.297"/><polygon class="s" points="217.314 255.176 211.196 343.813 155.936 345.678 163.494 270.462 217.314 255.176"/><polygon class="s" points="265.352 256.183 271.47 344.819 326.73 346.684 319.171 271.468 265.352 256.183"/></g></g><g id="j"><g><path class="o" d="M326.707,162.222v82.057c32.229,25.54,54.704,0,54.704,0v-82.057h-54.704Z"/><polygon class="o" points="340.383 251.116 340.383 271.631 331.554 271.938 354.059 292.145 374.573 271.631 367.735 271.631 367.735 251.116 340.383 251.116"/><polygon class="r" points="367.735 264.793 374.573 387.877 401.926 387.877 430.038 350.414 408.047 276.189 367.735 264.793"/><path class="r" d="M340.383,264.793l-6.838,123.085c-18.593-13.458-45.663-37.464-45.663-37.464l18.311-71.945,34.19-13.676Z"/><path class="s" d="M328.227,163.741c-.402-4.46,48.055,18.173,52.666,33.1l.518,47.437c.121,2.475-14.141,7.685-13.061,8.765,16.913,16.913,46.637-5.154,42.933-13.317-13.935-30.714-5.919-31.958-9.045-41.594-8.791-27.104-14.123-35.91-14.123-35.91,0,0-20.306-26.784-60.645-7.135-23.117,11.26-5.784,43.104-13.509,54.957-5.153,7.906-13.159,3.807-13.509,7.676-1.185,13.104,9.099,11.728,5.297,14.342-13.18,9.061-6.045,19.235,2.212,23.569,14.767,7.75,33.948-4.156,32.421-4.513-4.638-1.083-11.542-4.653-13.676-6.838l1.52-80.537Z"/></g><g><path class="q" d="M89.315,162.222v82.057c32.229,25.54,54.704,0,54.704,0v-82.057h-54.704Z"/><polygon class="q" points="102.992 251.116 102.992 262.721 129.776 263.107 130.344 251.116 102.992 251.116"/><polygon class="p" points="131.69 266.285 139.893 388.655 167.246 388.655 195.358 351.192 173.367 276.967 131.69 266.285"/><path class="p" d="M101.042,265.571l-4.888,122.307c-18.593-13.458-45.663-37.464-45.663-37.464l18.311-71.945,32.24-12.898Z"/><path class="s" d="M141.076,186.964l2.184,57.504c-2.104,2.564-13.726,8.027-12.301,8.575,24.717,9.496,45.664-3.81,45.664-3.81,0,0-12.608-6.579-12.608-11.061,0-46.777,6.396-85.24-47.347-85.24-68.949,0-38.427,82.373-42.231,82.927l-17.542,12.932c20.25,14.981,47.624,4.092,46.097,3.735-.976-.228-10.728-6.25-13.676-9.198,0,0,1.685-54.309,0-56.034l51.761-.33Z"/></g></g><g id="k"><path class="s" d="M30.904,357.412c49.999-22.422,108.571-31.812,207.096-32.311,131.199-.665,211.6,30.074,211.6,30.074-19.562,38.345-86.015,126.684-207.584,124.023-152.631-3.341-211.112-121.786-211.112-121.786Z"/></g></g></svg>