<?xml version="1.0" encoding="UTF-8"?><svg xmlns="http://www.w3.org/2000/svg" viewBox="0 0 480.286 479.25"><defs><style>.h{fill:#fdc892;}.i{fill:#fff;}.j{fill:#ffc02e;}.k{fill:#0581d6;}.l{fill:#142a5c;}.m{fill:#4c8585;}.n{fill:none;stroke:#283962;stroke-miterlimit:10;stroke-width:2px;}</style></defs><g id="a"/><g id="b"><g id="c"><circle class="l" cx="240.661" cy="239.625" r="239.625"/><g id="d"><path class="k" d="M59.536,83.25C188.166-69.65,479.161,222.75,479.161,222.75c0,0-356.375,37.486-442.125,142.875,0,0-96.75-140.625,22.5-282.375Z"/></g></g><g id="e"><rect class="h" x="111.286" y="86.625" width="222.283" height="306.914"/><rect class="i" x="122.502" y="95.802" width="201.89" height="288.561"/><g><line class="n" x1="147.454" y1="125.372" x2="298.268" y2="125.372"/><line class="n" x1="147.454" y1="144.745" x2="298.268" y2="144.745"/><line class="n" x1="147.454" y1="164.118" x2="298.268" y2="164.118"/><line class="n" x1="147.454" y1="184.511" x2="298.268" y2="184.511"/><line class="n" x1="147.454" y1="203.885" x2="298.268" y2="203.885"/><line class="n" x1="147.454" y1="224.278" x2="298.268" y2="224.278"/><line class="n" x1="147.454" y1="245.69" x2="298.268" y2="245.69"/><line class="n" x1="147.454" y1="269.142" x2="298.268" y2="269.142"/><line class="n" x1="147.454" y1="292.594" x2="298.268" y2="292.594"/><line class="n" x1="147.454" y1="315.026" x2="298.268" y2="315.026"/><line class="n" x1="147.454" y1="361.93" x2="298.268" y2="361.93"/><line class="n" x1="147.454" y1="338.478" x2="298.268" y2="338.478"/></g></g><g id="f"><circle class="j" cx="341.911" cy="348.75" r="60.75"/></g><g id="g"><polyline class="m" points="297.881 336.328 313.165 324.203 345.06 356.967 348.383 356.967 399.88 302.791 416.161 316.722 352.037 388.441 342.402 388.441"/></g></g></svg>