<?xml version="1.0" encoding="UTF-8"?><svg xmlns="http://www.w3.org/2000/svg" viewBox="0 0 480.787 479.397"><defs><style>.e{fill:#68b7b8;}.f{fill:#fff;}.g{fill:#fbcc8f;}.h,.i{fill:#0581d6;}.j{fill:#283962;}.k{fill:#4c8585;}.i{stroke:#283962;stroke-miterlimit:10;}</style></defs><g id="a"/><g id="b"><g id="c"><circle class="k" cx="241.162" cy="239.625" r="239.625"/><path class="e" d="M479.261,239.625c0,132.341-41.625-103.5-164.25-95.625C182.942,152.482,2.261,475.875,.011,239.625-1.243,108.006,107.295,0,239.636,0s239.625,107.284,239.625,239.625Z"/></g><g id="d"><g><path class="g" d="M207.381,76.67l2.115,130.581c5.437,4.537,10.868,7.96,16.209,10.477,37.388,17.616,70.389-9.182,70.389-9.182l1.688-132.004-90.4,.129Z"/><path class="g" d="M236.22,245.672s-17.399,4.652-15.328,8.515c33.039,61.601,67.072,7.323,67.072,7.323l-4.059-44.791-59.607,.852"/><path class="f" d="M221.791,262.124l73.683-2.613s58.785,182.688,13.747,208.945c-23.995,13.989-98.193,13.673-115.471,4.087l28.041-210.42Z"/><path class="h" d="M227.621,241.11l-114.416,34.35-24.16,59.988-24.865,61.738s36.416,56.329,133.195,77.925l16.596-128.401,13.649-105.599Z"/><path class="h" d="M279.821,241.47l120.399,43.137,4.439,26.016,14.842,86.988c-5.606,12.908-20.237,27.398-39.29,40.312-20.75,14.065-46.745,26.26-72.041,32.507l-14.208-114.745-14.142-114.215Z"/><path class="j" d="M259.942,76.595c-6.891,69.966,37.053,61.443,37.053,61.443l-.949,70.509-15.53,9.654s-24.806,78.747,56.298,53.458c9.438-2.943,25.125-20.497-.069-41.362-4.604-3.813-22.095-4.473-22.095-4.473l3.138-149.284c-30.739-30.739-58.851-28.601-58.851-28.601,0,0-52.646-2.638-70.961,28.601l-.013,147.184s-25.781,3.181-27.056,10.306c-3.624,20.253,.346,31.443,24.287,37.628,60.202,15.551,55.175-46.717,48.441-50.81-28.493-17.319-24.208-12.55-24.208-17.611,0-65.647,1.334-66.283,1.334-126.573l49.178-.07Z"/><path class="g" d="M178.554,146.66c2.253,34.983,3.557,44.237,3.557,74.682,0,5.828-26.587,20.657-26.587,20.657l4.504,216.238c-23.955-26.553-32.93-21.782-59.202-24.311l23.337-192.398s-24.143-13.51-29.111-20.936l1.389-96.158s-.148-5.309,3.569-6.12c6.481-1.414,7.181,6.151,7.181,6.151l-.3,44.583c3.082,2.344,6.131,0,6.131,0,0,0,.234-41.307,.234-61.919,0-2.045,1.072-6.133,2.614-6.308,4.8-.542,6.846,.47,8.557,6.031l-.163,62.196c2.147,2.147,6.131,0,6.131,0l1.685-70.965s-.696-7.452,2.655-7.452c8.419,0,8.693,5.989,8.693,5.989l-1.792,72.428s2.541,2.569,5.109,0c0,0,2.242-17.514,2.242-63.911,0-.956,.674-6.195,3.992-6.195,5.54,0,6.518,4.178,6.767,6.019,0,0,1.701,37.886,1.701,76.389,0,.696,3.151,.974,3.461,.101,0,0,2.071-6.36,2.071-31.318,0-3.178,11.38-6.532,11.577-3.474Z"/><path class="i" d="M116.478,266.636l42.81-14.726,3.172,212.4s-16.154-6.61-32.901-14.822c-12.423-6.092-25.173-13.066-31.899-18.879l18.818-163.973Z"/><polyline class="j" points="116.219 266.311 122.284 256.497 121.401 265.87"/></g></g></g></svg>