<svg width="70" height="70" viewBox="0 0 70 70" fill="none" xmlns="http://www.w3.org/2000/svg">
<path fill-rule="evenodd" clip-rule="evenodd" d="M70 35C70 54.3301 54.3301 70 35 70C15.6702 70 0 54.3301 0 35C0 15.6702 15.6702 0 35 0C54.3301 0 70 15.6702 70 35Z" fill="#404E74"/>
<mask id="mask0" mask-type="alpha" maskUnits="userSpaceOnUse" x="0" y="0" width="70" height="70">
<path fill-rule="evenodd" clip-rule="evenodd" d="M70 35C70 54.3301 54.3301 70 35 70C15.6702 70 0 54.3301 0 35C0 15.6702 15.6702 0 35 0C54.3301 0 70 15.6702 70 35Z" fill="white"/>
</mask>
<g mask="url(#mask0)">
<path fill-rule="evenodd" clip-rule="evenodd" d="M21.9894 41.1136C21.5232 41.1618 20.7707 41.236 20.6779 41.4944C20.5027 41.981 20.5613 42.6863 20.7926 43.1658C21.3473 44.3147 22.4301 44.6558 23.6197 44.664C25.3053 44.6755 26.9909 44.6681 28.6766 44.6684C29.0018 44.6688 29.3274 44.6688 29.657 44.6688C29.9353 44.6684 30.1608 44.898 30.1608 45.1813C30.1608 45.4643 29.9346 45.6938 29.6567 45.6938H29.1668C23.2526 45.6886 17.339 45.6775 11.4252 45.6868C10.8697 45.6879 10.2913 45.742 9.76613 45.9093C9.08977 46.1247 8.57002 46.5801 8.5387 47.3919C8.50592 48.2426 9.00345 48.7566 9.71113 49.0095C10.1985 49.1841 10.7514 49.2301 11.2751 49.2316C16.3316 49.2475 21.3881 49.242 26.4446 49.2424H26.8817C27.1676 49.2424 27.3996 49.4782 27.3996 49.7693C27.3996 50.0601 27.1676 50.2963 26.8817 50.2963H26.3455C20.5497 50.2963 14.7542 50.29 8.95828 50.3067C8.34603 50.3085 7.64344 50.2837 7.14737 50.5688C6.65093 50.854 6.15923 51.464 6.03066 52.0196C5.86057 52.7534 6.4222 53.3446 7.11969 53.5637C7.69917 53.7462 8.33401 53.8133 8.94481 53.8152C14.7407 53.8333 20.5362 53.8263 26.3321 53.8267H26.9032C27.1902 53.8267 27.4196 54.0718 27.4047 54.3633C27.3905 54.6451 27.1694 54.858 26.9024 54.858H26.3408C21.4322 54.858 16.5235 54.852 11.6146 54.8665C11.0588 54.8683 10.4811 54.9106 9.95188 55.0678C9.23181 55.2818 8.68038 55.7773 8.65561 56.6027C8.63085 57.4308 9.15023 57.9582 9.8652 58.2025C10.3576 58.3705 10.9076 58.425 11.4317 58.4265C16.4292 58.4425 21.4267 58.4362 26.4238 58.4362H26.7975C27.1443 58.4362 27.4196 58.7336 27.3989 59.0859C27.3854 59.308 27.2127 59.4741 27.0037 59.4741C26.7706 59.4741 26.5575 59.4741 26.3448 59.4738C22.7962 59.473 19.2476 59.4597 15.6993 59.4834C15.0896 59.4875 14.3928 59.4953 13.8971 59.786C13.4324 60.0586 13.019 60.6634 12.8762 61.2022C12.6821 61.9358 13.2528 62.459 13.8757 62.7171C14.3521 62.9144 14.9075 62.9871 15.428 62.9878C23.6186 63.0042 31.8096 63.0071 40.001 62.9775C40.4155 62.976 40.9126 62.7483 41.2302 62.4627C42.7363 61.1081 44.2114 59.7152 45.6537 58.2897C45.7786 58.1662 45.8912 57.9997 45.9793 57.8198H70V45.9875H45.7743C45.7269 45.9222 45.6785 45.8599 45.6267 45.8051C44.2103 44.3106 42.7614 42.8461 41.2728 41.4266C40.8678 41.0402 40.3157 40.7194 39.7784 40.5855C36.1224 39.6733 32.4488 39.9836 28.7654 40.4624C26.516 40.7546 24.2465 40.8814 21.9894 41.1136Z" fill="#62BBB8"/>
<path fill-rule="evenodd" clip-rule="evenodd" d="M42.1136 48.0103C42.1615 48.4765 42.236 49.229 42.4945 49.3222C42.981 49.497 43.6864 49.4384 44.1655 49.2075C45.3144 48.6524 45.6559 47.5699 45.6637 46.38C45.6756 44.6944 45.6682 43.0091 45.6685 41.3235V40.3427C45.6685 40.0644 45.8981 39.8389 46.1814 39.8389C46.4644 39.8389 46.6939 40.0651 46.6939 40.3434V40.8329C46.6887 46.7472 46.6772 52.661 46.6869 58.5749C46.6876 59.13 46.7421 59.7084 46.9094 60.2336C47.1248 60.91 47.5802 61.4297 48.392 61.461C49.2427 61.4942 49.7567 60.9963 50.0096 60.289C50.1839 59.8013 50.2303 59.2488 50.2314 58.7246C50.2473 53.6685 50.2421 48.6116 50.2425 43.5551V43.118C50.2425 42.8325 50.478 42.6001 50.7695 42.6001C51.0602 42.6001 51.2961 42.8325 51.2961 43.118V43.6542C51.2964 49.4501 51.2897 55.2459 51.3068 61.0415C51.3087 61.6537 51.2838 62.3567 51.569 62.8524C51.8542 63.3492 52.4642 63.8405 53.0194 63.9695C53.7532 64.1392 54.3444 63.5775 54.5639 62.8801C54.746 62.3006 54.8135 61.6657 54.8153 61.0549C54.8335 55.2594 54.8265 49.4635 54.8268 43.6677V43.0965C54.8268 42.8095 55.072 42.5804 55.3634 42.595C55.6453 42.6092 55.8581 42.8307 55.8581 43.0973V43.6589C55.8581 48.5679 55.8522 53.4762 55.8667 58.3852C55.8682 58.9414 55.9108 59.5186 56.068 60.0479C56.282 60.7683 56.7771 61.3194 57.6026 61.3441C58.431 61.3693 58.958 60.8495 59.2024 60.1345C59.3708 59.6421 59.4249 59.0925 59.4268 58.568C59.4423 53.5709 59.4364 48.5734 59.4364 43.5759V43.2025C59.4364 42.8558 59.7338 42.5801 60.0857 42.6012C60.3082 42.6143 60.474 42.7873 60.474 42.996V43.6549C60.4733 47.2035 60.4596 50.7522 60.4833 54.3004C60.4877 54.9101 60.4955 55.6069 60.7859 56.1026C61.0585 56.5673 61.6637 56.9811 62.2025 57.1239C62.9357 57.3176 63.4589 56.7469 63.7174 56.1241C63.9147 55.6477 63.987 55.0926 63.9881 54.5721C64.0041 46.3811 64.007 38.1901 63.9777 29.9991C63.9762 29.5842 63.7485 29.0871 63.463 28.7698C62.1083 27.2634 60.7154 25.7883 59.2899 24.3463C59.1661 24.221 58.9999 24.1081 58.8201 24.0204V0H46.9872V24.2258C46.9223 24.2728 46.8597 24.3212 46.8052 24.3729C45.3107 25.7894 43.8462 27.2383 42.4266 28.7269C42.0402 29.1322 41.7194 29.6844 41.5856 30.2213C40.6733 33.8773 40.9837 37.5509 41.4621 41.2343C41.7547 43.4837 41.8815 45.7532 42.1136 48.0103Z" fill="#FFC996"/>
<path fill-rule="evenodd" clip-rule="evenodd" d="M49.0107 28.8864C49.4765 28.8385 50.229 28.764 50.3222 28.5055C50.497 28.019 50.4388 27.3136 50.2075 26.8345C49.6524 25.6857 48.5699 25.3441 47.38 25.3363C45.6948 25.3245 44.0091 25.3319 42.3235 25.3315H41.3427C41.0644 25.3315 40.8389 25.1019 40.8389 24.8186C40.8389 24.5357 41.0651 24.3061 41.3434 24.3061H41.8329C47.7472 24.3113 53.6611 24.3228 59.5749 24.3132C60.13 24.3124 60.7088 24.2579 61.234 24.0907C61.91 23.8752 62.4301 23.4198 62.4614 22.6081C62.4942 21.7573 61.9963 21.2434 61.289 20.9904C60.8013 20.8162 60.2488 20.7698 59.7246 20.7687C54.6685 20.7527 49.612 20.7579 44.5551 20.7576H44.118C43.8325 20.7576 43.6001 20.5221 43.6001 20.2306C43.6001 19.9399 43.8325 19.704 44.118 19.704H44.6542C50.4501 19.7036 56.2459 19.7103 62.0415 19.6933C62.6537 19.6914 63.3567 19.7162 63.8524 19.4311C64.3492 19.1459 64.8405 18.5359 64.9695 17.9807C65.1392 17.2468 64.5776 16.6553 63.8804 16.4362C63.3006 16.2541 62.6657 16.1866 62.0549 16.1847C56.2594 16.1666 50.4635 16.1736 44.6677 16.1732H44.0965C43.8095 16.1732 43.5804 15.9281 43.595 15.6366C43.6096 15.3548 43.8307 15.1419 44.0973 15.1419H44.6589C49.5679 15.1419 54.4765 15.1479 59.3852 15.1334C59.9414 15.1319 60.5186 15.0893 61.0479 14.932C61.7683 14.7181 62.3194 14.223 62.3441 13.3975C62.3693 12.5691 61.8495 12.0421 61.1345 11.7977C60.6421 11.6293 60.0925 11.5752 59.5684 11.5733C54.5709 11.5578 49.5734 11.5637 44.5762 11.5637H44.2025C43.8558 11.5637 43.5801 11.2663 43.6012 10.9144C43.6143 10.6919 43.7873 10.5261 43.996 10.5261H44.6549C48.2039 10.5268 51.7522 10.5406 55.3004 10.5168C55.9105 10.5124 56.6073 10.5046 57.1026 10.2142C57.5673 9.94165 57.9811 9.33644 58.1239 8.79761C58.318 8.06446 57.7473 7.5412 57.1241 7.28273C56.648 7.08544 56.0926 7.01313 55.5721 7.01202C47.3811 6.99607 39.1901 6.99273 30.9991 7.0224C30.5842 7.02388 30.0871 7.25158 29.7698 7.53713C28.2634 8.8918 26.7887 10.2847 25.3463 11.7102C25.221 11.834 25.1085 12.0002 25.0204 12.18H1V24.0128H25.2258C25.2728 24.0777 25.3212 24.1404 25.3729 24.1949C26.7894 25.6894 28.2383 27.1538 29.7272 28.5734C30.1322 28.9598 30.6844 29.2806 31.2213 29.4144C34.8777 30.3267 38.5509 30.0163 42.2343 29.5379C44.4837 29.2453 46.7532 29.1185 49.0107 28.8864Z" fill="#0084D6"/>
<path fill-rule="evenodd" clip-rule="evenodd" d="M29.8861 21.9894C29.8383 21.5235 29.7637 20.771 29.5052 20.6778C29.0187 20.5026 28.3134 20.5612 27.8343 20.7925C26.6854 21.3476 26.3439 22.4301 26.3361 23.62C26.3242 25.3052 26.3316 26.9909 26.3313 28.6765V29.657C26.3313 29.9352 26.1017 30.1607 25.8184 30.1607C25.5354 30.1607 25.3059 29.9349 25.3059 29.6566V29.1671C25.3111 23.2528 25.3226 17.3389 25.3129 11.4251C25.3122 10.87 25.2577 10.2912 25.0904 9.76602C24.875 9.08966 24.4196 8.56991 23.6078 8.53859C22.7575 8.50581 22.2431 9.0037 21.9902 9.71102C21.8159 10.1987 21.7696 10.7512 21.7685 11.275C21.7525 16.3315 21.7577 21.388 21.7573 26.4449V26.8816C21.7573 27.1675 21.5219 27.3995 21.2308 27.3995C20.9396 27.3995 20.7038 27.1675 20.7038 26.882V26.3455C20.7034 20.5499 20.7101 14.7541 20.693 8.95854C20.6912 8.34591 20.716 7.64333 20.4309 7.14725C20.1457 6.65082 19.5357 6.15912 18.9805 6.03055C18.2466 5.86082 17.6555 6.42245 17.436 7.11957C17.2539 7.69942 17.1868 8.33389 17.1846 8.9447C17.1664 14.7406 17.1734 20.5365 17.1731 26.332V26.9031C17.1731 27.1905 16.9279 27.4196 16.6365 27.4046C16.3546 27.3904 16.1418 27.1693 16.1418 26.9024V26.3407C16.1421 21.4321 16.1477 16.5235 16.1332 11.6148C16.1317 11.0586 16.0891 10.4814 15.9319 9.95214C15.7179 9.2317 15.2228 8.68027 14.3973 8.6555C13.5689 8.63074 13.0419 9.15012 12.7975 9.86509C12.6292 10.3579 12.575 10.9075 12.5732 11.4316C12.5576 16.4291 12.5635 21.4266 12.5635 26.4238V26.7975C12.5635 27.1442 12.2661 27.4199 11.9142 27.3988C11.6921 27.3857 11.5259 27.2127 11.5259 27.004V26.3447C11.5267 22.7961 11.5404 19.2478 11.5167 15.6996C11.5122 15.0895 11.5044 14.3927 11.2141 13.897C10.9415 13.4327 10.3367 13.0189 9.79747 12.8761C9.06433 12.682 8.54107 13.2527 8.2826 13.8759C8.08532 14.352 8.013 14.9074 8.01189 15.4279C7.99594 23.6189 7.99298 31.8095 8.02227 40.0009C8.02413 40.4158 8.25145 40.9129 8.537 41.2302C9.89166 42.7362 11.2845 44.2113 12.7104 45.6537C12.8339 45.779 13 45.8915 13.1799 45.9796V70H25.0126V45.7742C25.0775 45.7272 25.1401 45.6788 25.1946 45.6271C26.6891 44.2106 28.1535 42.7614 29.5731 41.2728C29.9595 40.8678 30.2807 40.3156 30.4142 39.7784C31.3268 36.1223 31.0164 32.4491 30.5377 28.7654C30.2451 26.5163 30.1186 24.2468 29.8861 21.9894Z" fill="#B96D82"/>
<mask id="mask1" mask-type="alpha" maskUnits="userSpaceOnUse" x="10" y="39" width="30" height="24">
<rect x="10" y="39" width="30" height="24" fill="white"/>
</mask>
<g mask="url(#mask1)">
<path fill-rule="evenodd" clip-rule="evenodd" d="M28.7654 40.4624C26.516 40.7546 24.2465 40.8814 21.9894 41.1136C21.5232 41.1618 20.7707 41.236 20.6779 41.4944C20.5027 41.981 20.5613 42.6863 20.7926 43.1658C21.3473 44.3147 22.4301 44.6558 23.6197 44.664C25.3053 44.6755 26.9909 44.6681 28.6766 44.6684C29.0018 44.6688 29.3274 44.6688 29.657 44.6688C29.9353 44.6684 30.1608 44.898 30.1608 45.1813C30.1608 45.4643 29.9346 45.6938 29.6567 45.6938H29.1668C23.2526 45.6886 17.339 45.6775 11.4252 45.6868C10.8697 45.6879 10.2913 45.742 9.76613 45.9093C9.08977 46.1247 8.57002 46.5801 8.5387 47.3919C8.50592 48.2426 9.00345 48.7566 9.71113 49.0095C10.1985 49.1841 10.7514 49.2301 11.2751 49.2316C16.3316 49.2475 21.3881 49.242 26.4446 49.2424H26.8817C27.1676 49.2424 27.3996 49.4782 27.3996 49.7693C27.3996 50.0601 27.1676 50.2963 26.8817 50.2963H26.3455C20.5497 50.2963 14.7542 50.29 8.95828 50.3067C8.34603 50.3085 7.64344 50.2837 7.14737 50.5688C6.65093 50.854 6.15923 51.464 6.03066 52.0196C5.86057 52.7534 6.4222 53.3446 7.11969 53.5637C7.69917 53.7462 8.33401 53.8133 8.94481 53.8152C14.7407 53.8333 20.5362 53.8263 26.3321 53.8267H26.9032C27.1902 53.8267 27.4196 54.0718 27.4047 54.3633L27.4043 54.374C27.3905 54.6451 27.1694 54.858 26.9024 54.858H26.3408C21.4322 54.858 16.5235 54.852 11.6146 54.8665C11.0588 54.8683 10.4811 54.9106 9.95188 55.0678C9.23181 55.2818 8.68038 55.7773 8.65561 56.6027C8.63085 57.4308 9.15023 57.9582 9.8652 58.2025C10.3576 58.3705 10.9076 58.425 11.4317 58.4265C16.4292 58.4425 21.4267 58.4362 26.4238 58.4362H26.7975C27.1443 58.4362 27.4196 58.7336 27.3989 59.0859L27.3981 59.0959C27.3854 59.308 27.2127 59.4741 27.0037 59.4741C26.7706 59.4741 26.5575 59.4741 26.3448 59.4738C22.7962 59.473 19.2476 59.4597 15.6993 59.4834C15.0896 59.4875 14.3928 59.4953 13.8971 59.786C13.4324 60.0586 13.019 60.6634 12.8762 61.2022C12.6821 61.9358 13.2528 62.459 13.8757 62.7171C14.3521 62.9144 14.9075 62.9871 15.428 62.9878C23.6186 63.0042 31.8096 63.0071 40.001 62.9775C40.4155 62.976 40.9126 62.7483 41.2302 62.4627C42.7363 61.1081 44.2114 59.7152 45.6537 58.2897C45.7786 58.1662 45.8912 57.9997 45.9793 57.8198H62V45.9875H45.7743C45.7269 45.9222 45.6785 45.8599 45.6267 45.8051C44.2103 44.3106 42.7614 42.8461 41.2728 41.4266C40.8678 41.0402 40.3157 40.7194 39.7784 40.5855C36.1224 39.6733 32.4488 39.9836 28.7654 40.4624Z" fill="#62BBB8"/>
</g>
</g>
</svg>
