<svg width="70" height="70" viewBox="0 0 70 70" fill="none" xmlns="http://www.w3.org/2000/svg">
<path fill-rule="evenodd" clip-rule="evenodd" d="M70 35.0001C70 54.3301 54.3301 70.0001 35 70.0001C15.6702 70.0001 0 54.3301 0 35.0001C0 15.6703 15.6702 5.72205e-05 35 5.72205e-05C54.3301 5.72205e-05 70 15.6703 70 35.0001Z" fill="#B96D82"/>
<mask id="mask0" mask-type="alpha" maskUnits="userSpaceOnUse" x="0" y="0" width="70" height="70">
<path fill-rule="evenodd" clip-rule="evenodd" d="M70 35.0001C70 54.3301 54.3301 70.0001 35 70.0001C15.6702 70.0001 0 54.3301 0 35.0001C0 15.6703 15.6702 5.72205e-05 35 5.72205e-05C54.3301 5.72205e-05 70 15.6703 70 35.0001Z" fill="white"/>
</mask>
<g mask="url(#mask0)">
<path fill-rule="evenodd" clip-rule="evenodd" d="M58.8554 38.5559C57.4449 44.2716 52.8877 46.945 48.0898 48.2193C47.905 48.89 47.7172 49.5663 47.5264 50.2483C52.6397 49.0721 57.6827 46.4327 59.1801 40.3652C59.6517 38.4538 59.5986 36.4661 59.1073 34.4784C59.2566 35.8571 59.1837 37.225 58.8554 38.5559Z" fill="#B78467"/>
<path fill-rule="evenodd" clip-rule="evenodd" d="M51.9116 38.1405C51.9245 38.1659 51.9322 38.1931 51.9443 38.2188C51.9875 37.5634 51.8789 36.9193 51.5869 36.3312C51.5049 36.1658 51.4073 36.0124 51.3028 35.8654C51.2107 36.2447 51.1164 36.6297 51.021 37.0183C51.387 37.3261 51.6924 37.6989 51.9116 38.1405Z" fill="#B78467"/>
<mask id="mask1" mask-type="alpha" maskUnits="userSpaceOnUse" x="0" y="41" width="37" height="30">
<path fill-rule="evenodd" clip-rule="evenodd" d="M36.1549 70.677C35.6077 70.7037 35.0571 70.7171 34.5034 70.7171C17.6919 70.7171 3.69968 58.2998 0.719727 41.8939L36.1549 41.8939V70.677L36.1549 70.677Z" fill="white"/>
</mask>
<g mask="url(#mask1)">
<path fill-rule="evenodd" clip-rule="evenodd" d="M19.6627 68.451C13.7256 67.1349 -2.50732 55.4798 -5.55273 41.8939C-3.63601 56.2402 13.7883 68.8861 19.9874 70.2603C25.0381 71.3799 31.876 72.8878 34.9907 67.7229C36.3003 65.5514 36.3889 63.7591 35.8288 62.2364C35.8285 63.3303 35.4903 64.5463 34.6657 65.9134C31.5513 71.0786 24.7134 69.5706 19.6627 68.451Z" fill="#B78467"/>
</g>
<path fill-rule="evenodd" clip-rule="evenodd" d="M35.7602 49.4904C31.6645 49.7133 28.6488 52.3652 30.1792 54.59C30.6504 52.9375 33.0769 51.4634 36.085 51.2997C37.4639 51.2247 39.8351 51.2476 42.5561 51.0069C42.7389 50.3701 42.9215 49.7385 43.1038 49.1119C40.0218 49.4443 37.2849 49.4075 35.7602 49.4904Z" fill="#B78467"/>
<path fill-rule="evenodd" clip-rule="evenodd" d="M44.9168 36.8214C45.6339 36.4449 46.3744 36.2076 47.0975 36.0961C47.3062 35.4532 47.5119 34.8278 47.7162 34.2125C46.7082 34.2111 45.6257 34.4694 44.5921 35.0122C41.8469 36.4537 40.479 39.3562 41.4947 41.5354C41.6119 39.7539 42.886 37.8878 44.9168 36.8214Z" fill="#B78467"/>
<path fill-rule="evenodd" clip-rule="evenodd" d="M53.9882 19.3152C53.6489 19.2125 52.9953 20.2795 52.1174 22.2624C51.967 22.6019 51.8105 22.9671 51.6475 23.3588C51.546 23.6038 51.4423 23.8553 51.3359 24.12L53.0244 24.6306C53.2271 24.8292 53.4253 25.03 53.62 25.232C53.6442 25.0985 53.6695 24.9618 53.6923 24.8323C53.7432 24.5424 53.7896 24.2657 53.8336 23.9961C54.3033 21.1329 54.3844 19.4349 53.9882 19.3152Z" fill="#404E74"/>
<path fill-rule="evenodd" clip-rule="evenodd" d="M53.62 25.232C53.4253 25.03 53.2271 24.8295 53.0244 24.6306L51.3356 24.12C50.9688 25.0317 50.5748 26.0597 50.1577 27.1903L53.0687 28.0703C53.2801 27.0452 53.4635 26.0993 53.62 25.232Z" fill="#165ED9"/>
<path fill-rule="evenodd" clip-rule="evenodd" d="M51.3026 35.8654C52.0073 32.9617 52.6026 30.333 53.0689 28.0701L50.158 27.1904C49.4093 29.2197 48.5863 31.587 47.7158 34.2126C49.2119 34.2146 50.5399 34.7925 51.3026 35.8654Z" fill="#404E74"/>
<path fill-rule="evenodd" clip-rule="evenodd" d="M47.716 34.2126C47.512 34.8276 47.3063 35.453 47.0974 36.0963C46.9475 36.5568 46.7968 37.0232 46.6448 37.4973C46.0179 39.4542 45.372 41.5279 44.7168 43.6865C45.9065 43.8341 47.2505 43.6005 48.5222 42.9329C48.9597 42.7029 49.3581 42.4328 49.7216 42.1375C50.0287 40.9602 50.3234 39.81 50.6042 38.6941C50.7469 38.1258 50.8852 37.5689 51.021 37.0184C51.1164 36.6297 51.2107 36.2448 51.3028 35.8654C50.5401 34.7925 49.2118 34.2146 47.716 34.2126Z" fill="#2A3961"/>
<mask id="mask2" mask-type="alpha" maskUnits="userSpaceOnUse" x="34" y="50" width="14" height="21">
<path fill-rule="evenodd" clip-rule="evenodd" d="M47.5265 68.0906C43.6251 69.7352 39.3645 70.663 34.8994 70.7148V50.2485H47.5265V68.0906Z" fill="white"/>
</mask>
<g mask="url(#mask2)">
<path fill-rule="evenodd" clip-rule="evenodd" d="M42.5564 51.0069C42.497 51.2136 42.4376 51.4179 42.3785 51.6258C37.1774 69.8366 33.9425 84.8959 35.1534 85.2619C36.3643 85.628 41.5624 71.1621 46.7635 52.9513C47.0236 52.0407 47.2768 51.1418 47.5265 50.2485C45.8355 50.6374 44.1371 50.8671 42.5564 51.0069Z" fill="#2A3961"/>
</g>
<path fill-rule="evenodd" clip-rule="evenodd" d="M43.1039 49.112C42.9216 49.7386 42.739 50.3702 42.5562 51.0069C44.1369 50.8672 45.8353 50.6375 47.5263 50.2486C47.7171 49.5663 47.9049 48.89 48.0897 48.2193C46.4157 48.6639 44.7132 48.9386 43.1039 49.112Z" fill="#B78467"/>
<mask id="mask3" mask-type="alpha" maskUnits="userSpaceOnUse" x="0" y="12" width="60" height="58">
<path fill-rule="evenodd" clip-rule="evenodd" d="M46.5231 12.3659L59.1812 25.3883V59.9689C54.8899 64.5224 49.4185 67.8919 43.2744 69.5553H25.7322C10.9991 65.5666 0.133789 51.7681 0.133789 35.3586C0.133789 26.5796 3.24371 18.5479 8.39201 12.3659L46.5231 12.3659V12.3659Z" fill="white"/>
</mask>
<g mask="url(#mask3)">
<path fill-rule="evenodd" clip-rule="evenodd" d="M59.1074 34.4784C58.7211 30.9103 56.8189 27.2686 53.834 23.9961C53.79 24.2657 53.7435 24.5423 53.6927 24.8323C53.6698 24.9618 53.6445 25.0984 53.6203 25.232C53.4636 26.0992 53.2805 27.0451 53.0688 28.0703C52.6027 30.3329 52.0072 32.9616 51.3027 35.8653C51.4072 36.0124 51.5048 36.1654 51.5868 36.3312C51.8788 36.9192 51.9874 37.5636 51.9442 38.219C51.8524 39.6164 51.0459 41.0627 49.7215 42.1376C49.358 42.4326 48.9598 42.703 48.5224 42.9327C47.2504 43.6006 45.9064 43.8342 44.7167 43.6863C43.3078 43.5115 42.1159 42.7995 41.5275 41.6137C41.5148 41.588 41.5066 41.5611 41.4948 41.5354C40.4791 39.3561 41.847 36.4536 44.5922 35.0121C45.6257 34.4693 46.7079 34.2113 47.7159 34.2127C48.5867 31.5872 49.4094 29.2198 50.1581 27.1903C50.5752 26.0596 50.9692 25.0317 51.336 24.12C51.4427 23.8552 51.5464 23.6038 51.6478 23.3588C51.8109 22.967 51.9673 22.6018 52.1177 22.2624C41.4186 12.3167 20.5469 6.93744 3.47873 20.4883C-5.18762 27.3682 -7.12332 34.8877 -5.55277 41.894C-2.50735 55.4797 13.7255 67.1347 19.6627 68.4509C24.7133 69.5707 31.5512 71.0784 34.6659 65.9135C35.4903 64.5464 35.8285 63.3304 35.8287 62.2363C35.8293 59.1968 33.1985 57.1064 30.9593 55.3917C30.6238 55.1346 30.3687 54.8655 30.1795 54.59C28.6491 52.3653 31.6645 49.7134 35.7605 49.4905C37.2852 49.4073 40.0224 49.4444 43.1041 49.112C44.7131 48.9386 46.4159 48.6639 48.0896 48.2193C52.8879 46.9449 57.445 44.2716 58.8555 38.5559C59.1838 37.225 59.2567 35.8573 59.1074 34.4784Z" fill="#FFC996"/>
</g>
<mask id="mask4" mask-type="alpha" maskUnits="userSpaceOnUse" x="0" y="37" width="11" height="10">
<path fill-rule="evenodd" clip-rule="evenodd" d="M2.00955 46.9096C1.00581 43.9206 0.380738 40.75 0.193359 37.4583L10.6009 37.4583V46.9096H2.00955Z" fill="white"/>
</mask>
<g mask="url(#mask4)">
<path fill-rule="evenodd" clip-rule="evenodd" d="M4.1152 46.9047C5.38935 46.8396 6.68769 46.7683 7.88018 46.3025C9.07294 45.8369 10.1645 44.9037 10.5077 43.6398C10.8508 42.3757 10.2228 40.8162 8.99843 40.4474C9.16395 40.0024 8.92611 39.4429 8.49608 39.2655C8.26924 39.1725 8.01271 39.177 7.78862 39.0769C7.43668 38.9196 7.23321 38.5391 6.92251 38.3072C6.1848 37.7559 5.17323 38.1847 4.292 38.4251C3.41049 38.6656 2.13771 38.396 2.12177 37.4583C1.77505 38.6319 0.363968 39.0675 -0.336071 40.0601C-2.69712 43.4065 1.03431 47.0622 4.1152 46.9047Z" fill="#D56164"/>
</g>
<path fill-rule="evenodd" clip-rule="evenodd" d="M13.0096 58.6748C14.2838 58.6098 15.5821 58.5385 16.7749 58.0726C17.9676 57.607 19.0589 56.6738 19.4021 55.41C19.7452 54.1458 19.1172 52.5864 17.8928 52.2175C18.0584 51.7726 17.8205 51.2128 17.3905 51.0357C17.1639 50.9426 16.9071 50.9471 16.6833 50.847C16.3314 50.6897 16.1276 50.3093 15.8172 50.0773C15.0792 49.526 14.0679 49.9548 13.1867 50.1953C12.3052 50.4357 11.0321 50.1661 11.0162 49.2284C10.6695 50.4021 9.25839 50.8377 8.55835 51.8303C6.19757 55.1766 9.92873 58.8324 13.0096 58.6748Z" fill="#EF9580"/>
<path fill-rule="evenodd" clip-rule="evenodd" d="M9.29282 33.1585C10.567 33.0934 11.8653 33.0222 13.0581 32.5563C14.2508 32.0907 15.3424 31.1575 15.6856 29.8936C16.0287 28.6295 15.4004 27.07 14.1761 26.7012C14.3416 26.2562 14.1037 25.6964 13.674 25.5194C13.4471 25.4263 13.1903 25.4308 12.9665 25.3307C12.6146 25.1734 12.4108 24.7929 12.1004 24.561C11.3627 24.0097 10.3511 24.4385 9.4699 24.6789C8.58839 24.9194 7.31534 24.6498 7.29939 23.7121C6.95267 24.8857 5.54159 25.3213 4.84155 26.3139C2.48078 29.6603 6.21194 33.3161 9.29282 33.1585Z" fill="#0084D6"/>
<path fill-rule="evenodd" clip-rule="evenodd" d="M22.5551 26.3735C23.8293 26.3085 25.1276 26.2372 26.3204 25.7713C27.5129 25.3057 28.6045 24.3725 28.9476 23.1087C29.2908 21.8445 28.6628 20.2851 27.4384 19.9162C27.6039 19.4713 27.3661 18.9117 26.936 18.7344C26.7092 18.6413 26.4527 18.6458 26.2286 18.5457C25.8766 18.3884 25.6731 18.008 25.3624 17.776C24.6247 17.2247 23.6132 17.6535 22.7319 17.894C21.8504 18.1344 20.5777 17.8648 20.5617 16.9271C20.215 18.1008 18.8039 18.5364 18.1039 19.529C15.7428 22.8753 19.4743 26.5311 22.5551 26.3735Z" fill="#62BBB8"/>
<path fill-rule="evenodd" clip-rule="evenodd" d="M37.4403 28.5362C38.7144 28.4711 40.0128 28.3999 41.2055 27.934C42.3983 27.4684 43.4899 26.5352 43.833 25.2713C44.1762 24.0072 43.5479 22.4477 42.3235 22.0789C42.489 21.6339 42.2512 21.0744 41.8214 20.8971C41.5946 20.804 41.3378 20.8085 41.114 20.7084C40.762 20.5511 40.5583 20.1706 40.2479 19.9387C39.5102 19.3874 38.4986 19.8162 37.6174 20.0567C36.7358 20.2971 35.4631 20.0275 35.4469 19.0898C35.1001 20.2634 33.6891 20.699 32.989 21.6916C30.6282 25.038 34.3594 28.6938 37.4403 28.5362Z" fill="#404E74"/>
<path fill-rule="evenodd" clip-rule="evenodd" d="M52.4125 15.0134C52.0218 16.0628 51.0949 16.8693 50.4468 17.8073C49.2818 19.4943 49.0468 21.6526 49.8023 23.7237C50.0613 24.434 50.4584 25.1635 51.1678 25.6956C51.8772 26.2274 52.9616 26.4978 53.6773 26.164C54.0182 26.0048 54.2396 25.7335 54.4392 25.4625C55.8591 23.5368 56.6499 21.2311 56.3669 18.8134C56.1291 16.7833 54.8756 13.5911 52.4133 12.325C52.484 13.2276 52.7364 14.1424 52.4125 15.0134Z" fill="#7C4410"/>
</g>
</svg>
