<svg width="70" height="70" viewBox="0 0 70 70" fill="none" xmlns="http://www.w3.org/2000/svg">
<path fill-rule="evenodd" clip-rule="evenodd" d="M35 70C15.6702 70 0 54.3301 0 35C0 15.6702 15.6702 0 35 0C54.3301 0 70 15.6702 70 35C70 54.3301 54.3301 70 35 70Z" fill="#FFC996"/>
<mask id="mask0" mask-type="alpha" maskUnits="userSpaceOnUse" x="0" y="0" width="70" height="70">
<path fill-rule="evenodd" clip-rule="evenodd" d="M35 70C15.6702 70 0 54.3301 0 35C0 15.6702 15.6702 0 35 0C54.3301 0 70 15.6702 70 35C70 54.3301 54.3301 70 35 70Z" fill="white"/>
</mask>
<g mask="url(#mask0)">
<path fill-rule="evenodd" clip-rule="evenodd" d="M5.45654 54.7689H49.416V40.7309H5.45654V54.7689Z" fill="#F1F1F1"/>
<path fill-rule="evenodd" clip-rule="evenodd" d="M3.69043 68.8804H53.8267V57.9473H3.69043V68.8804Z" fill="#F1F1F1"/>
<path fill-rule="evenodd" clip-rule="evenodd" d="M50.9957 56.3582H5.45682C4.87554 56.3582 4.4043 55.8838 4.4043 55.2989V40.7309C4.4043 40.1457 4.87554 39.6713 5.45682 39.6713H50.7325C51.3141 39.6713 51.7853 40.1457 51.7853 40.7309C51.7853 41.3158 51.3141 41.7905 50.7325 41.7905H6.5099V54.2392H50.9957C51.5773 54.2392 52.0488 54.7137 52.0488 55.2989C52.0488 55.8838 51.5773 56.3582 50.9957 56.3582Z" fill="#0084D6"/>
<path fill-rule="evenodd" clip-rule="evenodd" d="M54.4176 70.7911H3.35093C2.76965 70.7911 2.29785 70.3167 2.29785 69.7318V57.4178C2.29785 56.8326 2.76965 56.3581 3.35093 56.3581H54.1225C54.7038 56.3581 55.1753 56.8326 55.1753 57.4178C55.1753 58.0029 54.7038 58.4774 54.1225 58.4774H4.40401V68.6721H54.4176C54.9989 68.6721 55.4704 69.1466 55.4704 69.7318C55.4704 70.3167 54.9989 70.7911 54.4176 70.7911Z" fill="#2A3961"/>
<path fill-rule="evenodd" clip-rule="evenodd" d="M26.5279 7.69429C25.068 6.59491 23.416 6.24724 21.6366 6.36388C21.2289 9.73046 23.2214 13.6121 28.1138 13.8397L28.967 12.1974C28.68 10.3396 27.992 8.7976 26.5279 7.69429Z" fill="#57B1B1"/>
<path fill-rule="evenodd" clip-rule="evenodd" d="M39.4918 16.2966C36.9452 13.7964 33.2463 13.2118 29.9872 14.6566C29.7645 14.7549 29.5305 14.8358 29.2701 14.9245C28.4074 15.4142 27.6685 15.2818 27.1043 14.9674C26.5812 14.8347 26.0596 14.6842 25.5548 14.4946C24.094 13.9458 22.6005 13.6806 21.0459 13.9204C15.8483 14.7234 12.5835 19.6638 13.9409 24.7792C14.9374 28.5351 16.7213 31.9285 18.9515 35.0883C19.9455 36.4973 21.0619 37.7975 22.4938 38.7791C23.6177 39.5494 24.8024 39.8946 26.1713 39.3959C27.4649 38.9248 28.7781 39.0592 30.0837 39.4753C30.4981 39.6069 30.9803 39.6486 31.4098 39.5841C32.709 39.39 33.7279 38.629 34.6088 37.7133C38.2203 33.9582 40.6218 29.4855 41.9275 24.4664C42.7395 21.3452 41.7788 18.5424 39.4918 16.2966Z" fill="#D56164"/>
<path fill-rule="evenodd" clip-rule="evenodd" d="M29.2703 14.9245C29.1199 14.976 28.9626 15.0293 28.7881 15.0924C28.913 14.8414 28.9732 14.7123 29.0401 14.5867C30.1677 12.4637 31.2964 10.3413 32.4239 8.21808C32.623 7.8428 32.8257 7.4692 33.008 7.08546C33.1547 6.77639 33.0153 6.54 32.7504 6.38053C32.4813 6.21853 32.2408 6.307 32.0524 6.53409C31.9695 6.63382 31.9152 6.75892 31.853 6.87472C30.9789 8.50152 30.1055 10.1292 29.2311 11.756C29.1639 11.8813 29.0891 12.0025 28.9693 12.2093C28.9687 12.2054 28.9679 12.2017 28.9673 12.1975L28.1142 13.8398C27.9221 14.1995 27.7779 14.5216 27.5822 14.8087C27.5094 14.9155 27.2977 15.0163 27.1821 14.9876C27.156 14.9808 27.1303 14.9738 27.1045 14.9673C27.6687 15.282 28.4076 15.4142 29.2703 14.9245Z" fill="#B78467"/>
</g>
</svg>
