<svg width="70" height="70" viewBox="0 0 70 70" fill="none" xmlns="http://www.w3.org/2000/svg">
<path fill-rule="evenodd" clip-rule="evenodd" d="M70 35C70 54.3301 54.3301 70 35 70C15.6702 70 0 54.3301 0 35C0 15.6702 15.6702 0 35 0C54.3301 0 70 15.6702 70 35Z" fill="#62BBB8"/>
<mask id="mask0" mask-type="alpha" maskUnits="userSpaceOnUse" x="0" y="0" width="70" height="70">
<path fill-rule="evenodd" clip-rule="evenodd" d="M70 35C70 54.3301 54.3301 70 35 70C15.6702 70 0 54.3301 0 35C0 15.6702 15.6702 0 35 0C54.3301 0 70 15.6702 70 35Z" fill="white"/>
</mask>
<g mask="url(#mask0)">
<path fill-rule="evenodd" clip-rule="evenodd" d="M37.1571 7.47822C25.7597 6.99428 14.3621 6.51007 2.9647 6.02614C2.4027 6.00241 1.59893 6.26071 1.76283 6.79518C8.65326 6.97558 15.5355 7.47403 22.3796 8.28803C18.8201 9.87945 15.0871 11.0875 11.267 11.8839C11.2833 12.4602 11.2993 13.0366 11.3159 13.613C21.2592 9.90067 32.2054 10.2514 42.8206 10.6521C47.4473 10.8269 52.1724 11.0213 56.493 12.6741C60.1711 14.0815 63.3671 16.4766 66.5085 18.8407C66.8698 16.199 65.4672 13.5624 63.4905 11.7596C56.9836 5.82564 45.4079 7.82867 37.1571 7.47822Z" fill="#B78467"/>
<path fill-rule="evenodd" clip-rule="evenodd" d="M13.4904 26.8465C17.135 26.5131 21.146 26.6332 23.9757 28.9392C26.432 30.9414 27.4804 34.1806 29.5695 36.5584C34.2806 41.921 42.627 41.568 49.748 40.7739C49.0758 47.5788 55.2457 54.2519 62.1293 54.1642C63.8252 54.1427 65.8381 53.8942 66.9143 55.196C68.1235 56.6596 67.1356 58.8502 66.0001 60.3707C60.9871 67.0835 53.3255 71.7891 45.0398 73.2448C39.4873 74.2202 33.7773 73.7815 28.2038 72.9343C20.9366 71.8298 13.6284 69.9729 7.45993 66.0012C0.161004 61.3017 -5.17192 53.6836 -7.06595 45.2516C-8.10616 40.6211 -9.26277 27.3218 -4.58799 23.9784C-1.75046 21.9497 -0.867401 25.2347 1.87061 26.4737C5.43179 28.0855 9.76611 27.1875 13.4904 26.8465Z" fill="#0084D6"/>
<path fill-rule="evenodd" clip-rule="evenodd" d="M50.9392 31.6793C45.4432 26.2352 39.9543 20.7837 34.4634 15.3343C34.3444 15.2161 34.219 15.1047 34.0824 14.9763C33.9674 15.0813 33.8741 15.1603 33.7875 15.246C28.2437 20.7527 22.6985 26.258 17.1671 31.7773C16.9973 31.9468 16.8916 32.2596 16.8913 32.5062C16.8773 40.8844 16.8795 49.2626 16.8795 57.641V58.1629H26.8012V57.9387H41.3392V58.1571H51.2676V57.6737C51.2676 49.2642 51.2659 40.8548 51.2746 32.4456C51.2752 32.1194 51.1652 31.9033 50.9392 31.6793Z" fill="#FFC996"/>
<path fill-rule="evenodd" clip-rule="evenodd" d="M51.3554 32.1167C51.4265 32.1382 51.1411 35.7542 51.2615 35.7542C45.8644 30.3969 39.5295 24.5481 34.1218 19.1799C28.6728 24.5743 22.4703 30.3248 17.08 35.6609C17.0533 35.9474 16.994 31.064 17.08 31.0908C23.2839 24.9287 27.8867 20.6554 34.0617 14.522C40.2383 20.6573 45.1135 25.9169 51.3554 32.1167Z" fill="#404E74" fill-opacity="0.3"/>
<path fill-rule="evenodd" clip-rule="evenodd" d="M59.5829 33.9836C58.5452 34.9844 57.4685 36.0224 56.3709 37.0805C48.9755 29.7394 41.5456 22.3637 34.1353 15.0078C26.6691 22.4 19.2355 29.7592 11.8498 37.0715C10.737 35.9981 9.6445 34.9439 8.58545 33.9219C17.0865 25.4781 25.5921 17.0298 34.053 8.62536C42.5169 17.0323 51.0298 25.4879 59.5829 33.9836Z" fill="#132A5D"/>
<path fill-rule="evenodd" clip-rule="evenodd" d="M41.3089 38.6343C41.3089 42.7984 37.9105 46.1739 33.7182 46.1739C29.5258 46.1739 26.1274 42.7984 26.1274 38.6343C26.1274 34.4701 29.5258 31.0946 33.7182 31.0946C37.9105 31.0946 41.3089 34.4701 41.3089 38.6343Z" fill="#132A5D"/>
<path fill-rule="evenodd" clip-rule="evenodd" d="M40.4655 53.5739C40.4655 55.1159 39.2066 56.3663 37.6542 56.3663C36.1017 56.3663 34.8428 55.1159 34.8428 53.5739C34.8428 52.0319 36.1017 50.7814 37.6542 50.7814C39.2066 50.7814 40.4655 52.0319 40.4655 53.5739Z" fill="#B39888"/>
<path fill-rule="evenodd" clip-rule="evenodd" d="M29.689 42.0782L31.3758 40.9612C31.3758 40.9612 32.6876 37.238 37.3733 38.355C40.3722 39.2857 40.3722 45.2432 45.0577 45.8016C43.3709 47.6631 38.8726 49.8971 35.6865 48.4078C32.5004 46.9186 31.9381 42.6367 31.9381 42.6367L29.689 42.0782Z" fill="#0084D6"/>
<path fill-rule="evenodd" clip-rule="evenodd" d="M36.6235 51.2002H37.1858V47.663H36.6235V51.2002Z" fill="#132A5D"/>
<path fill-rule="evenodd" clip-rule="evenodd" d="M38.2168 51.2002H38.7791V47.663H38.2168V51.2002Z" fill="#132A5D"/>
<path fill-rule="evenodd" clip-rule="evenodd" d="M34.0467 40.9148C34.0467 41.1718 33.837 41.3801 33.578 41.3801C33.3191 41.3801 33.1094 41.1718 33.1094 40.9148C33.1094 40.6577 33.3191 40.4493 33.578 40.4493C33.837 40.4493 34.0467 40.6577 34.0467 40.9148Z" fill="#FFC996"/>
<path fill-rule="evenodd" clip-rule="evenodd" d="M29.689 42.0782L31.3758 40.9612L31.9847 41.4267L31.9381 42.6367L29.689 42.0782Z" fill="#FFC996"/>
<path fill-rule="evenodd" clip-rule="evenodd" d="M40.7861 46.5532C40.7861 46.5532 37.9126 40.8742 35.1977 43.4365C34.0186 45.1084 36.0093 47.7375 40.7861 46.5532Z" fill="#404E74"/>
</g>
</svg>
