<svg width="14" height="14" viewBox="0 0 14 14" fill="none" xmlns="http://www.w3.org/2000/svg">
<path d="M11.1674 13.6667H2.00077C1.55875 13.6667 1.13482 13.4911 0.822262 13.1786C0.509701 12.866 0.334106 12.4421 0.334106 12V2.83337C0.334106 2.39135 0.509701 1.96742 0.822262 1.65486C1.13482 1.3423 1.55875 1.16671 2.00077 1.16671H5.33411V2.83337H2.00077V12H11.1674V8.66671H12.8341V12C12.8341 12.4421 12.6585 12.866 12.346 13.1786C12.0334 13.4911 11.6095 13.6667 11.1674 13.6667ZM6.75077 8.42254L5.57577 7.24421L10.8199 2.00004H7.83411V0.333374H13.6674V6.16671H12.0008V3.17921L6.75077 8.42254Z" fill="white"/>
</svg>