<svg width="61" height="60" viewBox="0 0 61 60" fill="none" xmlns="http://www.w3.org/2000/svg">
<ellipse opacity="0.1" cx="30.8186" cy="30" rx="29.8889" ry="30" fill="#DE4BBE"/>
<path d="M31 31C34.3141 31 37 28.3141 37 25C37 21.6859 34.3141 19 31 19C27.6859 19 25 21.6859 25 25C25 28.3141 27.6859 31 31 31ZM35.4906 32.5281L33.25 41.5L31.75 35.125L33.25 32.5H28.75L30.25 35.125L28.75 41.5L26.5094 32.5281C23.1672 32.6875 20.5 35.4203 20.5 38.8V40.75C20.5 41.9922 21.5078 43 22.75 43H39.25C40.4922 43 41.5 41.9922 41.5 40.75V38.8C41.5 35.4203 38.8328 32.6875 35.4906 32.5281Z" fill="#DE4BBE"/>
</svg>
