<svg width="70" height="70" viewBox="0 0 70 70" fill="none" xmlns="http://www.w3.org/2000/svg">
<path fill-rule="evenodd" clip-rule="evenodd" d="M70 35C70 54.3301 54.3298 70 35 70C15.6699 70 0 54.3301 0 35C0 15.6702 15.6699 0 35 0C54.3298 0 70 15.6702 70 35Z" fill="#2A3961"/>
<mask id="mask0" mask-type="alpha" maskUnits="userSpaceOnUse" x="0" y="0" width="70" height="70">
<path fill-rule="evenodd" clip-rule="evenodd" d="M70 35C70 54.3301 54.3298 70 35 70C15.6699 70 0 54.3301 0 35C0 15.6702 15.6699 0 35 0C54.3298 0 70 15.6702 70 35Z" fill="white"/>
</mask>
<g mask="url(#mask0)">
<path fill-rule="evenodd" clip-rule="evenodd" d="M40.4694 60.8733H29.2339C27.2739 60.8733 25.6846 59.2843 25.6846 57.324V12.3692C25.6846 10.4092 27.2739 8.81989 29.2339 8.81989H40.4694C42.4297 8.81989 44.0187 10.4092 44.0187 12.3692V57.324C44.0187 59.2843 42.4297 60.8733 40.4694 60.8733Z" fill="#0084D6"/>
<path fill-rule="evenodd" clip-rule="evenodd" d="M9.39258 40.4643V29.229C9.39258 27.2688 10.9816 25.6798 12.9419 25.6798H56.7613C58.7216 25.6798 60.3106 27.2688 60.3106 29.229V40.4643C60.3106 42.4246 58.7216 44.0136 56.7613 44.0136H12.9419C10.9816 44.0136 9.39258 42.4246 9.39258 40.4643Z" fill="#57B1B1"/>
<path fill-rule="evenodd" clip-rule="evenodd" d="M25.6846 44.0138H44.0187V25.6796H25.6846V44.0138Z" fill="#005C95"/>
<path fill-rule="evenodd" clip-rule="evenodd" d="M30.7507 12.1747C30.7507 12.4379 30.5373 12.6513 30.2744 12.6513C30.0109 12.6513 29.7979 12.4379 29.7979 12.1747C29.7979 11.9118 30.0109 11.6985 30.2744 11.6985C30.5373 11.6985 30.7507 11.9118 30.7507 12.1747Z" fill="#132A5D"/>
<path fill-rule="evenodd" clip-rule="evenodd" d="M40.0886 12.1747C40.0886 12.4379 39.8752 12.6513 39.6123 12.6513C39.3488 12.6513 39.1357 12.4379 39.1357 12.1747C39.1357 11.9118 39.3488 11.6985 39.6123 11.6985C39.8752 11.6985 40.0886 11.9118 40.0886 12.1747Z" fill="#132A5D"/>
<path fill-rule="evenodd" clip-rule="evenodd" d="M35.6579 17.9393C35.6579 18.2023 35.4443 18.4156 35.1814 18.4156C34.9182 18.4156 34.7051 18.2023 34.7051 17.9393C34.7051 17.6761 34.9182 17.4628 35.1814 17.4628C35.4443 17.4628 35.6579 17.6761 35.6579 17.9393Z" fill="#132A5D"/>
<path fill-rule="evenodd" clip-rule="evenodd" d="M40.8982 23.1322C40.8982 23.3951 40.6848 23.6085 40.4216 23.6085C40.1584 23.6085 39.9453 23.3951 39.9453 23.1322C39.9453 22.869 40.1584 22.6556 40.4216 22.6556C40.6848 22.6556 40.8982 22.869 40.8982 23.1322Z" fill="#132A5D"/>
<path fill-rule="evenodd" clip-rule="evenodd" d="M30.6078 22.6557C30.6078 22.9189 30.3945 23.1323 30.1316 23.1323C29.8684 23.1323 29.6553 22.9189 29.6553 22.6557C29.6553 22.3928 29.8684 22.1794 30.1316 22.1794C30.3945 22.1794 30.6078 22.3928 30.6078 22.6557Z" fill="#132A5D"/>
<path fill-rule="evenodd" clip-rule="evenodd" d="M31.0046 47.7037C31.0046 47.9521 30.803 48.1534 30.5549 48.1534C30.3066 48.1534 30.105 47.9521 30.105 47.7037C30.105 47.4554 30.3066 47.254 30.5549 47.254C30.803 47.254 31.0046 47.4554 31.0046 47.7037Z" fill="#132A5D"/>
<path fill-rule="evenodd" clip-rule="evenodd" d="M39.8193 47.7037C39.8193 47.9521 39.618 48.1534 39.3699 48.1534C39.1212 48.1534 38.9199 47.9521 38.9199 47.7037C38.9199 47.4554 39.1212 47.254 39.3699 47.254C39.618 47.254 39.8193 47.4554 39.8193 47.7037Z" fill="#132A5D"/>
<path fill-rule="evenodd" clip-rule="evenodd" d="M35.6367 53.1454C35.6367 53.3937 35.4353 53.5951 35.1873 53.5951C34.9386 53.5951 34.7373 53.3937 34.7373 53.1454C34.7373 52.897 34.9386 52.6957 35.1873 52.6957C35.4353 52.6957 35.6367 52.897 35.6367 53.1454Z" fill="#132A5D"/>
<path fill-rule="evenodd" clip-rule="evenodd" d="M40.5839 58.0474C40.5839 58.2958 40.3826 58.4971 40.1345 58.4971C39.8859 58.4971 39.6846 58.2958 39.6846 58.0474C39.6846 57.7991 39.8859 57.5978 40.1345 57.5978C40.3826 57.5978 40.5839 57.7991 40.5839 58.0474Z" fill="#132A5D"/>
<path fill-rule="evenodd" clip-rule="evenodd" d="M30.8696 57.5978C30.8696 57.8461 30.6683 58.0474 30.4202 58.0474C30.1715 58.0474 29.9702 57.8461 29.9702 57.5978C29.9702 57.3494 30.1715 57.1481 30.4202 57.1481C30.6683 57.1481 30.8696 57.3494 30.8696 57.5978Z" fill="#132A5D"/>
<path fill-rule="evenodd" clip-rule="evenodd" d="M13.7589 29.4772C13.7589 29.7219 13.5607 29.9199 13.3162 29.9199C13.0718 29.9199 12.8735 29.7219 12.8735 29.4772C12.8735 29.2328 13.0718 29.0345 13.3162 29.0345C13.5607 29.0345 13.7589 29.2328 13.7589 29.4772Z" fill="#132A5D"/>
<path fill-rule="evenodd" clip-rule="evenodd" d="M22.4357 29.4772C22.4357 29.7219 22.2374 29.9199 21.993 29.9199C21.7483 29.9199 21.5503 29.7219 21.5503 29.4772C21.5503 29.2328 21.7483 29.0345 21.993 29.0345C22.2374 29.0345 22.4357 29.2328 22.4357 29.4772Z" fill="#132A5D"/>
<path fill-rule="evenodd" clip-rule="evenodd" d="M18.3185 34.8337C18.3185 35.0781 18.1205 35.2764 17.8758 35.2764C17.6313 35.2764 17.4331 35.0781 17.4331 34.8337C17.4331 34.5892 17.6313 34.391 17.8758 34.391C18.1205 34.391 18.3185 34.5892 18.3185 34.8337Z" fill="#132A5D"/>
<path fill-rule="evenodd" clip-rule="evenodd" d="M23.1881 39.6589C23.1881 39.9033 22.9899 40.1016 22.7454 40.1016C22.501 40.1016 22.3027 39.9033 22.3027 39.6589C22.3027 39.4145 22.501 39.2162 22.7454 39.2162C22.9899 39.2162 23.1881 39.4145 23.1881 39.6589Z" fill="#132A5D"/>
<path fill-rule="evenodd" clip-rule="evenodd" d="M13.6261 39.2162C13.6261 39.4607 13.4278 39.6589 13.1834 39.6589C12.9387 39.6589 12.7407 39.4607 12.7407 39.2162C12.7407 38.9718 12.9387 38.7735 13.1834 38.7735C13.4278 38.7735 13.6261 38.9718 13.6261 39.2162Z" fill="#132A5D"/>
<path fill-rule="evenodd" clip-rule="evenodd" d="M47.3105 29.5912C47.3105 29.8373 47.1108 30.037 46.8647 30.037C46.6183 30.037 46.4189 29.8373 46.4189 29.5912C46.4189 29.3451 46.6183 29.1455 46.8647 29.1455C47.1108 29.1455 47.3105 29.3451 47.3105 29.5912Z" fill="#132A5D"/>
<path fill-rule="evenodd" clip-rule="evenodd" d="M56.0468 29.5912C56.0468 29.8373 55.8472 30.037 55.601 30.037C55.3549 30.037 55.1553 29.8373 55.1553 29.5912C55.1553 29.3451 55.3549 29.1455 55.601 29.1455C55.8472 29.1455 56.0468 29.3451 56.0468 29.5912Z" fill="#132A5D"/>
<path fill-rule="evenodd" clip-rule="evenodd" d="M51.9016 34.9848C51.9016 35.2309 51.7019 35.4305 51.4555 35.4305C51.2094 35.4305 51.0098 35.2309 51.0098 34.9848C51.0098 34.7387 51.2094 34.539 51.4555 34.539C51.7019 34.539 51.9016 34.7387 51.9016 34.9848Z" fill="#132A5D"/>
<path fill-rule="evenodd" clip-rule="evenodd" d="M56.8046 39.8435C56.8046 40.0896 56.6052 40.2892 56.3588 40.2892C56.1127 40.2892 55.9131 40.0896 55.9131 39.8435C55.9131 39.5974 56.1127 39.3977 56.3588 39.3977C56.6052 39.3977 56.8046 39.5974 56.8046 39.8435Z" fill="#132A5D"/>
<path fill-rule="evenodd" clip-rule="evenodd" d="M47.1767 39.3976C47.1767 39.6437 46.977 39.8434 46.7309 39.8434C46.4845 39.8434 46.2852 39.6437 46.2852 39.3976C46.2852 39.1515 46.4845 38.9519 46.7309 38.9519C46.977 38.9519 47.1767 39.1515 47.1767 39.3976Z" fill="#132A5D"/>
<path fill-rule="evenodd" clip-rule="evenodd" d="M34.7169 40.3042C34.4901 40.0858 34.2717 39.8764 34.0544 39.6661C32.8817 38.5332 31.7088 37.4003 30.537 36.2666C29.2266 34.9985 29.3823 32.8027 30.8674 31.7429C31.4061 31.3585 32.0154 31.1737 32.6818 31.2529C33.1217 31.3053 33.4938 31.5284 33.8402 31.7891C34.0398 31.9392 34.2277 32.1064 34.4139 32.2735C34.6435 32.4799 34.807 32.4883 35.0316 32.2786C35.5255 31.8168 36.0984 31.5189 36.767 31.3988C37.8039 31.2126 38.8012 31.6643 39.3399 32.5762C40.0245 33.7354 39.924 35.0875 39.0367 36.1003C38.6327 36.5615 38.1715 36.9733 37.7305 37.4012C36.7586 38.3439 35.7834 39.2822 34.8093 40.2222C34.7841 40.2463 34.7575 40.2687 34.7169 40.3042Z" fill="#EF9580"/>
</g>
</svg>
