<svg width="40" height="40" viewBox="0 0 40 40" fill="none" xmlns="http://www.w3.org/2000/svg">
<path d="M34.0816 34.0823H28.1549V24.8006C28.1549 22.5873 28.1154 19.7381 25.0724 19.7381C21.9855 19.7381 21.5132 22.1497 21.5132 24.6395V34.0817H15.5866V14.9948H21.2762V17.6033H21.3559C21.9252 16.6297 22.748 15.8287 23.7366 15.2858C24.7252 14.7428 25.8425 14.4782 26.9696 14.52C32.9766 14.52 34.0841 18.4712 34.0841 23.6115L34.0816 34.0823ZM8.89913 12.3859C6.9996 12.3862 5.45944 10.8465 5.45913 8.94701C5.45882 7.04748 6.99835 5.50732 8.89788 5.50701C10.7974 5.50654 12.3376 7.04623 12.3379 8.94576C12.338 9.85795 11.9759 10.7329 11.331 11.378C10.6861 12.0231 9.81133 12.3857 8.89913 12.3859ZM11.8626 34.0825H5.9296V14.9948H11.8624V34.0823L11.8626 34.0825ZM37.0363 0.00278916H2.95147C1.34054 -0.0153358 0.0194434 1.27513 -0.000244141 2.88607V37.1131C0.0188184 38.7248 1.33976 40.0165 2.95132 39.9997H37.0363C38.6513 40.0197 39.9774 38.7279 39.9998 37.1131V2.88341C39.9768 1.26935 38.6505 -0.0209608 37.0363 0.000132913" fill="#0A66C2"/>
</svg>
