<svg width="108" height="108" viewBox="0 0 108 108" fill="none" xmlns="http://www.w3.org/2000/svg">
<path fill-rule="evenodd" clip-rule="evenodd" d="M0 53.9526C0 24.1554 24.1554 0 53.9526 0C83.7499 0 107.905 24.1554 107.905 53.9526C107.905 66.0727 103.909 77.2563 97.1649 86.2626L105.647 94.7485C106.383 95.4595 106.97 96.31 107.374 97.2504C107.778 98.1907 107.991 99.2021 108 100.226C108.009 101.249 107.814 102.264 107.426 103.211C107.039 104.158 106.466 105.019 105.743 105.743C105.019 106.466 104.158 107.039 103.211 107.426C102.264 107.814 101.249 108.009 100.226 108C99.2021 107.991 98.1907 107.778 97.2504 107.374C96.31 106.97 95.4595 106.383 94.7485 105.647L86.2626 97.1649C76.9423 104.154 65.6024 107.924 53.9526 107.905C24.1554 107.905 0 83.7499 0 53.9526ZM86.1046 75.2061L74.8169 63.9146C74.1008 63.199 73.2507 62.6315 72.3153 62.2444C71.3799 61.8573 70.3773 61.6582 69.365 61.6586C68.3526 61.659 67.3502 61.8587 66.415 62.2465C65.4799 62.6342 64.6302 63.2024 63.9146 63.9185C63.199 64.6346 62.6315 65.4846 62.2444 66.4201C61.8573 67.3555 61.6582 68.358 61.6586 69.3704C61.6593 71.415 62.4722 73.3755 63.9185 74.8208L75.2061 86.1046C68.9055 90.2806 61.5116 92.5022 53.9526 92.4902C32.6683 92.4902 15.415 75.237 15.415 53.9526C15.415 32.6683 32.6683 15.415 53.9526 15.415C75.237 15.415 92.4902 32.6683 92.4902 53.9526C92.4902 61.8066 90.1394 69.1133 86.1046 75.2061Z" fill="white"/>
</svg>
