<?xml version="1.0" encoding="iso-8859-1"?>
<!-- Generator: Adobe Illustrator 19.0.0, SVG Export Plug-In . SVG Version: 6.00 Build 0)  -->
<svg version="1.1" id="Layer_1" xmlns="http://www.w3.org/2000/svg" xmlns:xlink="http://www.w3.org/1999/xlink" x="0px" y="0px"
	 viewBox="0 0 512 512" style="enable-background:new 0 0 512 512;" xml:space="preserve">
<g>
	<g>
		<g>
			<path style="fill:#010101;" d="M490.213,174.298H382.366V21.787C382.366,9.804,372.562,0,360.579,0H152.511
				c-11.983,0-21.787,9.804-21.787,21.787v152.511H21.787C9.804,174.298,0,184.102,0,196.085v294.128
				C0,502.196,9.804,512,21.787,512h130.723h206.979h130.723c11.983,0,21.787-9.804,21.787-21.787V196.085
				C512,184.102,502.196,174.298,490.213,174.298z M337.702,42.485v153.6v273.43h-59.915V336.613
				c0-11.983-9.804-21.787-21.787-21.787c-11.983,0-21.787,9.804-21.787,21.787v132.902h-59.915v-273.43
				c0-2.362-0.386-4.637-1.089-6.771V42.485H337.702z M42.485,217.872h88.238v251.643H42.485V217.872z M469.515,469.515h-87.149
				V217.872h87.149V469.515z"/>
			<path style="fill:#010101;" d="M224.408,136.17c11.983,0,21.787-9.804,21.787-21.787v-3.268c0-11.983-9.804-21.787-21.787-21.787
				s-21.787,9.804-21.787,21.787v3.268C202.621,126.366,212.426,136.17,224.408,136.17z"/>
			<path style="fill:#010101;" d="M287.591,136.17c11.983,0,21.787-9.804,21.787-21.787v-3.268c0-11.983-9.804-21.787-21.787-21.787
				s-21.787,9.804-21.787,21.787v3.268C265.804,126.366,275.609,136.17,287.591,136.17z"/>
			<path style="fill:#010101;" d="M224.408,234.213c11.983,0,21.787-8.715,21.787-21.787v-3.268
				c0-11.983-9.804-21.787-21.787-21.787s-21.787,9.804-21.787,21.787v3.268C202.621,224.408,212.426,234.213,224.408,234.213z"/>
			<path style="fill:#010101;" d="M287.591,234.213c11.983,0,21.787-8.715,21.787-21.787v-3.268
				c0-11.983-9.804-21.787-21.787-21.787s-21.787,9.804-21.787,21.787v3.268C265.804,224.408,275.609,234.213,287.591,234.213z"/>
			<path style="fill:#010101;" d="M424.851,321.362c11.983,0,21.787-9.804,21.787-21.787v-6.536
				c0-11.983-9.804-21.787-21.787-21.787s-21.787,9.804-21.787,21.787v6.536C403.064,311.557,412.868,321.362,424.851,321.362z"/>
			<path style="fill:#010101;" d="M424.851,428.119c11.983,0,21.787-8.715,21.787-21.787v-6.536
				c0-11.983-9.804-21.787-21.787-21.787s-21.787,9.804-21.787,21.787v6.536C403.064,418.315,412.868,428.119,424.851,428.119z"/>
			<path style="fill:#010101;" d="M87.149,271.251c-11.983,0-21.787,9.804-21.787,21.787v6.536c0,11.983,9.804,21.787,21.787,21.787
				c10.894,0,20.698-9.804,21.787-21.787v-6.536C108.936,281.055,99.132,271.251,87.149,271.251z"/>
			<path style="fill:#010101;" d="M87.149,378.009c-11.983,0-21.787,9.804-21.787,21.787v6.536c0,11.983,9.804,21.787,21.787,21.787
				c10.894,0,20.698-8.715,21.787-21.787v-6.536C108.936,387.813,99.132,378.009,87.149,378.009z"/>
		</g>
	</g>
</g>
<g>
</g>
<g>
</g>
<g>
</g>
<g>
</g>
<g>
</g>
<g>
</g>
<g>
</g>
<g>
</g>
<g>
</g>
<g>
</g>
<g>
</g>
<g>
</g>
<g>
</g>
<g>
</g>
<g>
</g>
</svg>
