<svg width="70" height="70" viewBox="0 0 70 70" fill="none" xmlns="http://www.w3.org/2000/svg">
<path fill-rule="evenodd" clip-rule="evenodd" d="M70 35C70 54.3301 54.3301 70 35 70C15.6702 70 0 54.3301 0 35C0 15.6702 15.6702 0 35 0C54.3301 0 70 15.6702 70 35Z" fill="#2E9E9E"/>
<mask id="mask0" mask-type="alpha" maskUnits="userSpaceOnUse" x="0" y="0" width="70" height="70">
<path fill-rule="evenodd" clip-rule="evenodd" d="M70 35C70 54.3301 54.3301 70 35 70C15.6702 70 0 54.3301 0 35C0 15.6702 15.6702 0 35 0C54.3301 0 70 15.6702 70 35Z" fill="white"/>
</mask>
<g mask="url(#mask0)">
<mask id="mask1" mask-type="alpha" maskUnits="userSpaceOnUse" x="5" y="-2" width="58" height="72">
<path fill-rule="evenodd" clip-rule="evenodd" d="M5.83496 14.6103C12.0733 4.83583 22.869 -1.62506 35.1416 -1.62506C46.3644 -1.62506 56.3521 3.77771 62.7491 12.1765V56.0161C56.3521 64.4149 46.3644 69.8177 35.1416 69.8177C22.869 69.8177 12.0733 63.3568 5.83496 53.5823L5.83496 14.6103H5.83496Z" fill="white"/>
</mask>
<g mask="url(#mask1)">
<path fill-rule="evenodd" clip-rule="evenodd" d="M5.83496 66.8678C5.83496 66.8678 47.1448 2.1358 56.4586 -3.4576C66.5296 6.45637 61.4864 3.23773 61.4864 3.23773C61.4864 3.23773 15.2064 68.7913 15.1904 72.2677C8.02776 69.979 5.83496 66.8678 5.83496 66.8678Z" fill="#F1F1F1"/>
</g>
<path fill-rule="evenodd" clip-rule="evenodd" d="M33.0326 26.7133C33.0326 39.225 23.1057 49.3675 10.8602 49.3675C-1.38562 49.3675 -11.3125 39.225 -11.3125 26.7133C-11.3125 14.2017 -1.38562 4.05912 10.8602 4.05912C23.1057 4.05912 33.0326 14.2017 33.0326 26.7133Z" fill="#EF9580"/>
<mask id="mask2" mask-type="alpha" maskUnits="userSpaceOnUse" x="-12" y="4" width="46" height="46">
<path fill-rule="evenodd" clip-rule="evenodd" d="M33.0326 26.7133C33.0326 39.225 23.1057 49.3675 10.8602 49.3675C-1.38562 49.3675 -11.3125 39.225 -11.3125 26.7133C-11.3125 14.2017 -1.38562 4.05912 10.8602 4.05912C23.1057 4.05912 33.0326 14.2017 33.0326 26.7133Z" fill="white"/>
</mask>
<g mask="url(#mask2)">
<path fill-rule="evenodd" clip-rule="evenodd" d="M11.9453 21.8407C12.9343 21.8407 13.8335 21.8241 14.7308 21.8596C14.8569 21.8647 15.0535 22.1105 15.082 22.2702C15.3676 23.8725 15.8719 25.3943 16.7236 26.7717C17.6354 28.2463 18.8467 29.4674 20.0393 30.7019C21.7488 32.4702 23.486 34.2134 25.1348 36.0395C26.107 37.1157 26.8697 38.3734 27.1875 39.8383C27.4479 41.0402 27.2532 42.1313 26.3322 43.0289C23.3475 45.9361 19.8461 47.8639 15.8288 48.7878C14.7252 49.0415 13.5888 49.1418 12.4708 49.3336C12.0502 49.4059 11.9361 49.259 11.938 48.8381C11.952 45.9121 11.9453 42.986 11.9453 40.06V22.4591V21.8407Z" fill="#ED8870"/>
<path fill-rule="evenodd" clip-rule="evenodd" d="M9.75803 35.5756C9.75803 39.9644 9.75831 44.3533 9.75775 48.7419C9.75775 49.3726 9.75607 49.3743 9.13962 49.3223C4.04193 48.8902 -0.400721 46.9164 -4.21798 43.4397C-5.14069 42.599 -5.34011 41.5588 -5.13509 40.4031C-4.90379 39.0983 -4.27923 37.9475 -3.46756 36.9501C-2.23439 35.4344 -0.918993 33.9861 0.397804 32.5441C1.70593 31.1115 3.07223 29.735 4.38875 28.3104C5.9156 26.6589 6.74321 24.6508 7.12387 22.4395C7.19715 22.0143 7.32665 21.7951 7.79066 21.8163C8.31984 21.8403 8.85266 21.7997 9.38324 21.7737C9.64755 21.7605 9.76502 21.8671 9.75859 22.1381C9.75131 22.4393 9.75803 22.7413 9.75803 23.0431V35.5756Z" fill="#ED8870"/>
<path fill-rule="evenodd" clip-rule="evenodd" d="M-11.3037 23.1194C-10.9611 21.8174 -10.6951 20.4883 -10.2621 19.2186C-8.58817 14.3085 -5.56412 10.4592 -1.3304 7.59091C-1.14636 7.46631 -0.952814 7.35543 -0.763462 7.23884C-0.0158415 6.77732 -0.00521278 6.76503 0.667729 7.35915C2.09752 8.62083 3.02191 10.2426 3.75555 11.9889C4.71042 14.2614 5.14003 16.6481 5.2052 19.1135C5.21582 19.5067 5.12744 19.6533 4.70846 19.6813C0.920293 19.9336 -2.83571 20.4217 -6.51312 21.4182C-8.01088 21.824 -9.48263 22.3141 -10.8573 23.0651C-10.9465 23.1134 -11.0416 23.1509 -11.1339 23.1937C-11.1904 23.1691 -11.2472 23.1443 -11.3037 23.1194Z" fill="#ED8870"/>
<path fill-rule="evenodd" clip-rule="evenodd" d="M4.90992 21.9939C4.61625 23.9717 3.83031 25.6449 2.51435 27.0415C0.753679 28.9096 -1.03804 30.7471 -2.79899 32.6146C-4.20417 34.1052 -5.53215 35.666 -6.45934 37.5253C-6.76504 38.138 -6.95971 38.8087 -7.20304 39.4537C-7.24304 39.5605 -7.27352 39.6708 -7.35603 39.9289C-7.94171 38.9116 -8.50054 38.0262 -8.97686 37.0969C-10.6284 33.8751 -11.4401 30.4347 -11.4672 26.7986C-11.4714 26.2493 -11.1196 25.9187 -10.7305 25.6949C-9.86125 25.1948 -8.98301 24.6836 -8.05415 24.3235C-5.40545 23.2976 -2.62558 22.8118 0.16968 22.4343C1.54297 22.2488 2.92578 22.1359 4.30523 21.9965C4.49178 21.9773 4.68197 21.9939 4.90992 21.9939Z" fill="#ED8870"/>
<path fill-rule="evenodd" clip-rule="evenodd" d="M32.8838 23.1638C31.9155 22.7649 30.9729 22.3431 30.0077 21.9859C27.9055 21.2083 25.7203 20.757 23.516 20.4338C21.5028 20.1389 19.4753 19.942 17.4517 19.7248C17.1485 19.6925 17.0416 19.5939 17.045 19.2942C17.0867 15.2457 18.0578 11.5118 20.6349 8.33629C20.9786 7.91306 21.4286 7.57271 21.8622 7.23807C21.9824 7.14491 22.2672 7.13148 22.3967 7.21349C28.1483 10.8556 31.6299 16.0855 32.8555 22.884C32.8734 22.982 32.8759 23.0832 32.8838 23.1638Z" fill="#ED8870"/>
<path fill-rule="evenodd" clip-rule="evenodd" d="M17.3135 21.9858C18.4065 22.1033 19.4296 22.207 20.4516 22.3245C23.1498 22.634 25.8226 23.0898 28.4338 23.8665C29.7657 24.2626 31.0643 24.7412 32.2276 25.5511C32.8893 26.0118 33.23 26.5527 33.1906 27.4249C33.0001 31.6166 31.8013 35.4685 29.5934 38.9989C29.5411 39.0826 29.4667 39.1521 29.4253 39.2015C29.0525 38.3662 28.7314 37.5132 28.3049 36.7196C27.3075 34.8641 25.8841 33.3501 24.4465 31.8521C22.7837 30.1203 21.1134 28.3957 19.4668 26.6473C18.2731 25.3802 17.6692 23.8099 17.3135 21.9858Z" fill="#ED8870"/>
<path fill-rule="evenodd" clip-rule="evenodd" d="M14.7419 19.504C13.8821 19.504 13.0296 19.5106 12.1774 19.4929C12.098 19.4912 11.9953 19.346 11.9514 19.2457C11.9134 19.1571 11.9419 19.0379 11.9419 18.9325V4.58591V4.01352C14.7201 4.08181 17.2869 4.78538 19.7882 5.83588C16.0537 9.63949 14.9344 14.397 14.7419 19.504Z" fill="#ED8870"/>
<path fill-rule="evenodd" clip-rule="evenodd" d="M9.71019 3.97556V19.4746H7.43181C7.44859 16.9401 7.03604 14.4628 6.19109 12.0583C5.34837 9.66098 4.20359 7.46369 2.2793 5.69676C4.67823 4.65913 7.11799 4.11045 9.71019 3.97556Z" fill="#ED8870"/>
<path fill-rule="evenodd" clip-rule="evenodd" d="M22.6932 40.1789C10.6577 42.4873 -0.930296 34.3897 -3.18938 22.093C-4.11908 17.0323 -3.32112 12.0505 -1.22425 7.77703C-8.62131 12.6071 -12.8019 21.6938 -11.0829 31.0502C-8.82381 43.3469 2.76417 51.4443 14.7994 49.1361C21.8818 47.7775 27.5375 43.1169 30.5355 37.0068C28.2107 38.5251 25.5712 39.6268 22.6932 40.1789Z" fill="#2A3961" fill-opacity="0.3"/>
</g>
<path fill-rule="evenodd" clip-rule="evenodd" d="M68.477 47.7767C68.477 60.2217 58.6027 70.3106 46.4221 70.3106C34.242 70.3106 24.3677 60.2217 24.3677 47.7767C24.3677 35.3316 34.242 25.2428 46.4221 25.2428C58.6027 25.2428 68.477 35.3316 68.477 47.7767Z" fill="#2A3961" fill-opacity="0.3"/>
<path fill-rule="evenodd" clip-rule="evenodd" d="M51.2 69.0729C62.9084 69.0729 72.4 59.4457 72.4 47.57C72.4 35.6943 62.9084 26.0672 51.2 26.0672C39.4916 26.0672 30 35.6943 30 47.57C30 59.4457 39.4916 69.0729 51.2 69.0729Z" fill="#2A3961"/>
<mask id="mask3" mask-type="alpha" maskUnits="userSpaceOnUse" x="30" y="26" width="43" height="44">
<path fill-rule="evenodd" clip-rule="evenodd" d="M51.2 69.0729C62.9084 69.0729 72.4 59.4457 72.4 47.57C72.4 35.6943 62.9084 26.0672 51.2 26.0672C39.4916 26.0672 30 35.6943 30 47.57C30 59.4457 39.4916 69.0729 51.2 69.0729Z" fill="white"/>
</mask>
<g mask="url(#mask3)">
<path fill-rule="evenodd" clip-rule="evenodd" d="M51.7462 36.5054C50.8945 35.561 50.0621 34.5965 49.1758 33.688C48.9859 33.4934 48.5714 33.3763 48.3054 33.4348C46.0829 33.9252 43.8739 34.479 41.6531 34.9783C41.1821 35.0843 40.9327 35.2652 40.7925 35.7673C40.1985 37.8969 39.5647 40.015 38.9163 42.1283C38.7782 42.5784 38.8461 42.859 39.184 43.1968C40.8292 44.8402 42.4615 46.4989 44.0512 48.1972C44.4448 48.6176 44.788 48.693 45.3043 48.571C47.6246 48.0217 49.9553 47.5191 52.2717 46.9544C52.5343 46.8906 52.8613 46.5823 52.9379 46.32C53.5491 44.2238 54.1264 42.1166 54.6592 39.9984C54.7313 39.7115 54.5895 39.2669 54.3923 39.0288C53.6159 38.0912 52.7777 37.2067 51.9621 36.3025C51.8905 36.37 51.8181 36.438 51.7462 36.5054Z" fill="white"/>
<path fill-rule="evenodd" clip-rule="evenodd" d="M51.9621 36.3025C51.1104 35.3581 50.0621 34.5965 49.1758 33.688C48.9859 33.4934 48.5714 33.3763 48.3054 33.4348C46.0829 33.9252 43.8739 34.479 41.6531 34.9783C41.1821 35.0843 40.9327 35.2652 40.7925 35.7673C40.1985 37.8969 39.5647 40.015 38.9163 42.1283C38.7782 42.5784 38.8461 42.859 39.184 43.1968C40.8292 44.8402 42.4615 46.4989 44.0512 48.1972C44.4448 48.6176 44.788 48.693 45.3043 48.571C47.6246 48.0217 49.9553 47.5191 52.2717 46.9544C52.5343 46.8906 52.8613 46.5823 52.9379 46.32C53.5491 44.2238 54.1264 42.1166 54.6592 39.9984C54.7313 39.7115 54.5895 39.2669 54.3923 39.0288C53.6159 38.0912 52.7777 37.2067 51.9621 36.3025C51.8905 36.37 51.9621 36.3025 51.7462 36.5054L51.9621 36.3025Z" fill="#F1F1F1"/>
<path fill-rule="evenodd" clip-rule="evenodd" d="M53.3123 48.8396C53.1098 48.6362 52.6922 48.4933 52.4207 48.5504C49.9817 49.064 47.5504 49.6175 45.1257 50.1962C44.907 50.2488 44.6424 50.5288 44.5772 50.7563C43.9739 52.857 43.3908 54.9643 42.8563 57.0838C42.781 57.3822 42.9002 57.8409 43.0976 58.0818C43.4758 58.543 43.871 58.9902 44.2718 59.4323C44.6723 59.8747 45.0784 60.3125 45.4778 60.7557C45.8686 61.1889 46.2635 61.6185 46.6551 62.0505C47.0469 62.4823 47.4351 62.9176 47.8133 63.3617C48.14 63.7457 48.4515 63.8126 48.9315 63.698C51.303 63.1328 53.6882 62.6244 56.0589 62.0557C56.2939 61.9994 56.5741 61.703 56.6502 61.4584C57.3139 59.3206 57.9233 57.1647 58.5806 55.0243C58.7208 54.5682 58.6335 54.2876 58.3046 53.9552C56.6295 52.2615 54.9933 50.5271 53.3123 48.8396Z" fill="white"/>
<path fill-rule="evenodd" clip-rule="evenodd" d="M53.3123 48.8396C53.1098 48.6362 52.6922 48.4933 52.4207 48.5504C49.9817 49.064 47.5504 49.6175 45.1257 50.1962C44.907 50.2488 44.6424 50.5288 44.5772 50.7563C43.9739 52.857 43.3908 54.9643 42.8563 57.0838C42.781 57.3822 42.9002 57.8409 43.0976 58.0818C43.4758 58.543 43.871 58.9902 44.2718 59.4323C44.6723 59.8747 45.0784 60.3125 45.4778 60.7557C45.8686 61.1889 46.2635 61.6185 46.6551 62.0505C47.0469 62.4823 47.4351 62.9176 47.8133 63.3617C48.14 63.7457 48.4515 63.8126 48.9315 63.698C51.303 63.1328 53.6882 62.6244 56.0589 62.0557C56.2939 61.9994 56.5741 61.703 56.6502 61.4584C57.3139 59.3206 57.9233 57.1647 58.5806 55.0243C58.7208 54.5682 58.6335 54.2876 58.3046 53.9552C56.6295 52.2615 54.9933 50.5271 53.3123 48.8396Z" fill="#F1F1F1"/>
<path fill-rule="evenodd" clip-rule="evenodd" d="M51.3113 26.6536C50.8652 28.2313 50.4009 29.8045 49.9078 31.3677C49.7612 31.8323 49.8812 32.1127 50.2141 32.4299C51.311 33.4752 52.3775 34.5546 53.4554 35.6214C53.4445 35.6328 53.4336 35.6445 53.4224 35.656C54.0584 36.3615 54.6743 37.0885 55.3442 37.7587C55.5319 37.947 55.9069 38.1002 56.1483 38.0464C58.4773 37.528 60.7985 36.9725 63.1135 36.3927C63.3437 36.3352 63.624 36.0846 63.7012 35.8594C64.213 34.3611 64.6916 32.8503 65.1357 31.3291C65.1556 31.2605 65.1556 31.1711 65.1424 31.0773C63.5241 29.6974 61.7503 28.5966 59.8817 27.7775C57.4184 26.7662 54.8063 26.1964 52.034 26.1041C51.5963 26.0895 51.4274 26.243 51.3113 26.6536Z" fill="white"/>
<path fill-rule="evenodd" clip-rule="evenodd" d="M51.3113 26.6536C50.8652 28.2313 50.4009 29.8045 49.9078 31.3677C49.7612 31.8323 49.8812 32.1127 50.2141 32.4299C51.311 33.4752 52.3775 34.5546 53.4554 35.6214C53.4445 35.6328 53.4336 35.6445 53.4224 35.656C54.0584 36.3615 54.6743 37.0885 55.3442 37.7587C55.5319 37.947 55.9069 38.1002 56.1483 38.0464C58.4773 37.528 60.7985 36.9725 63.1135 36.3927C63.3437 36.3352 63.624 36.0846 63.7012 35.8594C64.213 34.3611 64.6916 32.8503 65.1357 31.3291C65.1556 31.2605 65.1556 31.1711 65.1424 31.0773C63.5241 29.6974 61.7503 28.5966 59.8817 27.7775C57.4184 26.7662 54.8063 26.1964 52.034 26.1041C51.5963 26.0895 51.4274 26.243 51.3113 26.6536Z" fill="#F1F1F1"/>
<path fill-rule="evenodd" clip-rule="evenodd" d="M71.0998 56.6791C71.3141 55.9069 70.9569 55.5094 69.8809 54.316C69.4988 53.8928 69.1543 53.4233 68.7213 53.0646C68.4799 52.8643 68.0587 52.7029 67.7762 52.7717C65.2506 53.3876 62.7406 54.0708 60.2189 54.7024C59.7792 54.8124 59.5488 54.9859 59.4279 55.4528C58.8931 57.5167 58.3307 59.5731 57.7442 61.6221C57.6124 62.0824 57.7022 62.3619 58.0378 62.6883C59.2788 63.8957 60.4994 65.1265 61.6974 66.3784C62.0366 66.7336 62.2718 66.7948 62.7166 66.5316C63.2648 66.2073 63.7872 65.858 64.2896 65.49C64.8612 65.0507 65.4173 64.5792 65.9543 64.0737C68.229 61.9324 69.9433 59.403 71.0998 56.6791Z" fill="white"/>
<path fill-rule="evenodd" clip-rule="evenodd" d="M71.0998 56.6791C71.3141 55.9069 70.9569 55.5094 69.8809 54.316C69.4988 53.8928 69.1543 53.4233 68.7213 53.0646C68.4799 52.8643 68.0587 52.7029 67.7762 52.7717C65.2506 53.3876 62.7406 54.0708 60.2189 54.7024C59.7792 54.8124 59.5488 54.9859 59.4279 55.4528C58.8931 57.5167 58.3307 59.5731 57.7442 61.6221C57.6124 62.0824 57.7022 62.3619 58.0378 62.6883C59.2788 63.8957 60.4994 65.1265 61.6974 66.3784C62.0366 66.7336 62.2718 66.7948 62.7166 66.5316C63.2648 66.2073 63.7872 65.858 64.2896 65.49C64.8612 65.0507 65.4173 64.5792 65.9543 64.0737C68.229 61.9324 69.9433 59.403 71.0998 56.6791Z" fill="#F1F1F1"/>
<path fill-rule="evenodd" clip-rule="evenodd" d="M41.2867 59.1012C40.0566 59.3715 38.8396 59.7073 37.619 60.0236C36.566 60.2963 35.5141 60.5729 34.3701 60.8721C37.4451 65.1061 41.4217 67.7134 46.3122 69.0491C46.6344 67.8112 46.9552 66.6549 47.2215 65.4859C47.2693 65.2758 47.1577 64.9517 47.0086 64.7829C45.3886 62.9533 43.7558 61.1353 42.0964 59.3438C41.9252 59.1592 41.5339 59.0469 41.2867 59.1012Z" fill="white"/>
<path fill-rule="evenodd" clip-rule="evenodd" d="M40.9165 59.1241C39.6864 59.3944 38.4695 59.7302 37.2489 60.0465C36.1959 60.3191 35.1439 60.5958 34 60.895C37.075 65.129 41.0516 67.7363 45.9421 69.072C46.2643 67.8341 46.5851 66.6778 46.8514 65.5087C46.8992 65.2987 46.7876 64.9746 46.6385 64.8058C45.0185 62.9762 43.3857 61.1582 41.7263 59.3667C41.5551 59.1821 41.1638 59.0698 40.9165 59.1241Z" fill="#F1F1F1"/>
<path fill-rule="evenodd" clip-rule="evenodd" d="M38.0269 41.7392C38.5558 39.7022 39.0615 37.6589 39.5563 35.6131C39.6086 35.3956 39.641 35.0664 39.5247 34.9301C38.6666 33.9233 37.7682 32.9523 36.8078 31.8869C33.3284 35.2805 31.4357 39.3904 30.4858 44.2157C32.9457 43.5758 35.2764 42.9814 37.5956 42.3441C37.7825 42.2927 37.9671 41.9701 38.0269 41.7392Z" fill="white"/>
<path fill-rule="evenodd" clip-rule="evenodd" d="M37.5411 41.5769C38.07 39.5399 38.5757 37.4966 39.0705 35.4508C39.1228 35.2333 39.1552 34.9041 39.0389 34.7678C38.1808 33.761 37.2824 32.79 36.3219 31.7246C32.8425 35.1182 30.9498 39.2281 30 44.0534C32.4599 43.4135 34.7906 42.8191 37.1098 42.1818C37.2966 42.1304 37.4812 41.8078 37.5411 41.5769Z" fill="#F1F1F1"/>
<path fill-rule="evenodd" clip-rule="evenodd" d="M65.3338 36.9048C66.843 38.5351 68.3712 40.1523 69.7868 41.8658C70.4969 42.7254 71.1953 43.1618 72.2534 42.6737C71.4168 39.1998 69.7378 35.8863 67.1976 33.0689C66.8421 32.6745 66.4715 32.3025 66.0951 31.9404C65.7248 33.2775 65.4129 34.4815 65.0476 35.6649C64.891 36.1724 64.9743 36.5164 65.3338 36.9048Z" fill="white"/>
<path fill-rule="evenodd" clip-rule="evenodd" d="M65.3338 36.9048C66.843 38.5351 68.3712 40.1523 69.7868 41.8658C70.4969 42.7254 71.1953 43.1618 72.2534 42.6737C71.4168 39.1998 69.7378 35.8863 67.1976 33.0689C66.8421 32.6745 66.4715 32.3025 66.0951 31.9404C65.7248 33.2775 65.4129 34.4815 65.0476 35.6649C64.891 36.1724 64.9743 36.5164 65.3338 36.9048Z" fill="#F1F1F1"/>
<path fill-rule="evenodd" clip-rule="evenodd" d="M70.8948 44.6387C70.2087 46.8249 69.5651 49.025 68.9355 51.2292C68.8726 51.4501 68.8975 51.8196 69.0365 51.9593C69.9268 52.8552 70.8587 53.7088 71.8488 54.6422C72.9458 51.1392 73.1665 47.4039 72.4924 43.7986C72.1439 43.858 71.8385 43.8957 71.5722 44.0169C71.3034 44.1392 70.9765 44.3793 70.8948 44.6387Z" fill="white"/>
<path fill-rule="evenodd" clip-rule="evenodd" d="M70.8948 44.6387C70.2087 46.8249 69.5651 49.025 68.9355 51.2292C68.8726 51.4501 68.8975 51.8196 69.0365 51.9593C69.9268 52.8552 70.8587 53.7088 71.8488 54.6422C72.9458 51.1392 73.1665 47.4039 72.4924 43.7986C72.1439 43.858 71.8385 43.8957 71.5722 44.0169C71.3034 44.1392 70.9765 44.3793 70.8948 44.6387Z" fill="#F1F1F1"/>
<path fill-rule="evenodd" clip-rule="evenodd" d="M72.2533 42.6738C72.3523 42.6284 72.453 42.5775 72.5584 42.5152C71.3507 38.4367 69.2796 34.8743 66.1286 31.8182C66.1171 31.86 66.1062 31.8991 66.0947 31.9403C66.4715 32.3023 66.8418 32.6747 67.1976 33.0691C69.7377 35.8862 71.4167 39.2 72.2533 42.6738Z" fill="white"/>
<path fill-rule="evenodd" clip-rule="evenodd" d="M64.92 30.6025C63.3149 29.4408 61.6356 28.4978 59.8813 27.7773C61.7503 28.5964 63.5241 29.6974 65.1424 31.0774C65.1158 30.8877 65.0308 30.6822 64.92 30.6025Z" fill="white"/>
<path fill-rule="evenodd" clip-rule="evenodd" d="M65.9545 64.0737C65.4175 64.5792 64.8617 65.0507 64.29 65.49C66.8758 63.5953 68.87 61.136 70.3913 58.2214C70.6682 57.6916 70.8749 57.2932 71.0041 56.9668C71.0446 56.864 71.0751 56.7697 71.1 56.6791C69.9438 59.403 68.2295 61.9324 65.9545 64.0737Z" fill="white"/>
</g>
<path fill-rule="evenodd" clip-rule="evenodd" d="M8.91158 31.4464C10.576 31.2358 20.8601 31.7688 27.1882 45.801C31.9326 58.9864 24.3026 68.6452 23.2406 69.4508C22.1788 70.257 20.6061 71.094 19.4854 70.992C17.6783 70.8268 6.05535 66.9003 2.40759 54.8739C-1.2399 42.8475 6.66117 31.7313 8.91158 31.4464Z" fill="#2A3961" fill-opacity="0.3"/>
<path fill-rule="evenodd" clip-rule="evenodd" d="M11.5241 29.9469C13.1886 29.7363 23.4726 30.2693 29.8007 44.3015C34.5454 57.487 26.9153 67.1458 25.8534 67.9513C24.7914 68.7575 23.2189 69.5945 22.0982 69.4925C20.2911 69.3273 8.66814 65.4008 5.02038 53.3745C1.3729 41.3481 9.27396 30.2319 11.5241 29.9469Z" fill="#C59D85"/>
<mask id="mask4" mask-type="alpha" maskUnits="userSpaceOnUse" x="4" y="29" width="28" height="41">
<path fill-rule="evenodd" clip-rule="evenodd" d="M11.5241 29.9469C13.1886 29.7363 23.4726 30.2693 29.8007 44.3015C34.5454 57.487 26.9153 67.1458 25.8534 67.9513C24.7914 68.7575 23.2189 69.5945 22.0982 69.4925C20.2911 69.3273 8.66814 65.4008 5.02038 53.3745C1.3729 41.3481 9.27396 30.2319 11.5241 29.9469Z" fill="white"/>
</mask>
<g mask="url(#mask4)">
<path fill-rule="evenodd" clip-rule="evenodd" d="M19.7795 37.1655C21.1803 36.7045 22.5835 36.251 23.9797 35.7752C24.2527 35.6823 24.4309 35.7163 24.6384 35.9238C26.257 37.543 27.6627 39.3342 28.7728 41.3512C29.8301 43.2718 30.6166 45.2999 31.0725 47.4687C31.7194 50.5464 31.6928 53.6184 31.1899 56.7056C31.1401 57.0097 31.0123 57.1566 30.724 57.2503C27.9307 58.1588 25.1399 59.0767 22.3533 60.0077C22.0163 60.1203 21.8568 60.0691 21.7637 59.7071C21.6401 59.2267 21.4902 58.7515 21.3159 58.2879C21.1831 57.9339 21.2888 57.7821 21.6294 57.6944C22.0087 57.5967 22.3743 57.4469 22.7502 57.3349C22.9683 57.27 23.0385 57.1563 22.9611 56.9334C22.8618 56.6479 22.7711 56.3587 22.6875 56.0681C22.6274 55.8577 22.515 55.808 22.3144 55.8789C21.9108 56.0221 21.4988 56.1412 21.0963 56.2867C20.8452 56.3773 20.6913 56.3313 20.6144 56.0512C20.5252 55.7243 20.42 55.4017 20.3098 55.0813C20.2296 54.8475 20.2942 54.7201 20.5297 54.6492C20.9506 54.5226 21.3637 54.3672 21.7855 54.2434C22.0109 54.1771 22.0663 54.064 21.9874 53.8442C21.8932 53.5827 21.8073 53.3172 21.7366 53.048C21.6658 52.78 21.536 52.6971 21.2689 52.7971C20.8681 52.9475 20.4533 53.0589 20.052 53.2072C19.8316 53.2887 19.7205 53.2284 19.6556 53.0072C19.5536 52.6585 19.445 52.3119 19.3281 51.9684C19.2557 51.7561 19.3309 51.6601 19.5303 51.5998C19.9513 51.472 20.3638 51.3148 20.7867 51.1942C21.0466 51.1202 21.1005 50.9888 21.0094 50.7419C20.9053 50.4584 20.8175 50.168 20.7353 49.8766C20.6762 49.6677 20.5733 49.6116 20.3677 49.6859C19.9538 49.8354 19.5309 49.9589 19.1164 50.1066C18.8753 50.1926 18.7371 50.1358 18.6664 49.8751C18.5771 49.5482 18.4697 49.2261 18.3629 48.9049C18.2947 48.7 18.3542 48.5917 18.5606 48.5306C18.9592 48.412 19.3483 48.2574 19.7493 48.1494C20.0735 48.0619 20.1373 47.8956 20.0167 47.5921C19.9144 47.3343 19.8397 47.0646 19.7628 46.7971C19.7026 46.5873 19.5902 46.5379 19.3891 46.6102C18.9858 46.7542 18.5735 46.8722 18.171 47.0186C17.9182 47.1103 17.7666 47.0614 17.6908 46.7822C17.6083 46.479 17.5138 46.1778 17.4069 45.8823C17.3082 45.6106 17.4027 45.4811 17.6611 45.4048C18.0715 45.2836 18.4734 45.1333 18.8831 45.0096C19.0876 44.9479 19.1505 44.8404 19.0803 44.6344C18.9793 44.3366 18.8868 44.0354 18.7953 43.7342C18.7377 43.5439 18.6314 43.4936 18.4449 43.5593C18.0407 43.7013 17.6284 43.8191 17.2268 43.968C16.9591 44.0668 16.8019 44.0168 16.7236 43.7196C16.6405 43.4036 16.5396 43.0918 16.4294 42.7846C16.3385 42.5297 16.4227 42.4025 16.6666 42.3288C17.0763 42.2053 17.4782 42.0553 17.8883 41.9338C18.1011 41.8707 18.1895 41.7755 18.107 41.5432C18.0013 41.2471 17.9076 40.9459 17.8228 40.6433C17.7579 40.4121 17.6374 40.3712 17.4237 40.4481C17.01 40.5979 16.5852 40.7162 16.1726 40.8691C15.9357 40.9571 15.8264 40.8882 15.7562 40.6513C15.5945 40.106 15.4247 39.5628 15.2424 39.0241C15.1571 38.7715 15.2203 38.6589 15.4737 38.5772C16.9116 38.1157 18.3447 37.6376 19.7795 37.1655Z" fill="#B78467"/>
<path fill-rule="evenodd" clip-rule="evenodd" d="M6.68321 53.2814C7.06555 54.5033 8.32053 55.1792 9.51399 54.8048C10.6949 54.4347 11.3622 53.1168 10.9838 51.904C10.6081 50.7017 9.30142 50.0113 8.14237 50.4025C6.97968 50.7952 6.31541 52.106 6.68321 53.2814ZM14.4179 41.4425C13.8766 41.6208 13.3852 41.7945 12.8863 41.942C12.6452 42.0131 12.5873 42.1254 12.677 42.3626C12.7839 42.645 12.8731 42.9353 12.9503 43.2277C13.0107 43.4554 13.1153 43.5146 13.3374 43.4334C13.7505 43.2822 14.1731 43.1588 14.5893 43.0148C14.7994 42.9422 14.9199 42.9868 14.9837 43.2208C15.0785 43.5712 15.1867 43.9187 15.3118 44.259C15.3945 44.4842 15.3364 44.5939 15.1168 44.6611C14.6964 44.7897 14.283 44.9426 13.8615 45.0683C13.6411 45.1338 13.5757 45.2415 13.6568 45.4655C13.7597 45.7499 13.8492 46.0394 13.9303 46.3309C13.9902 46.5458 14.1024 46.5878 14.3018 46.5169C14.7168 46.37 15.14 46.2483 15.5537 46.0982C15.7895 46.0128 15.8991 46.0777 15.9629 46.3231C16.0507 46.6626 16.1564 46.999 16.2795 47.3268C16.3724 47.5742 16.2856 47.6814 16.0613 47.7506C15.6524 47.8766 15.2508 48.028 14.8396 48.1452C14.5938 48.2155 14.5479 48.3367 14.6355 48.569C14.7373 48.8402 14.8209 49.1197 14.8989 49.3992C14.9619 49.6246 15.0838 49.6821 15.2978 49.6086C15.7909 49.4395 16.287 49.2809 16.8333 49.1008C16.9916 49.6032 17.151 50.0799 17.2828 50.5643C17.2979 50.62 17.1754 50.7597 17.092 50.7903C16.668 50.9466 16.2392 51.0915 15.8051 51.2164C15.5601 51.287 15.5131 51.4039 15.6029 51.6373C15.7064 51.9077 15.7948 52.1863 15.8647 52.4678C15.9285 52.7241 16.0549 52.7564 16.2812 52.6755C16.7709 52.5006 17.2682 52.3466 17.8033 52.17C17.963 52.6761 18.1193 53.1428 18.2483 53.6174C18.2636 53.6746 18.147 53.8161 18.0659 53.8463C17.6536 53.9992 17.2355 54.1378 16.8137 54.2621C16.5695 54.3342 16.4756 54.4513 16.5737 54.7091C16.7063 55.0569 16.7337 55.5767 16.9745 55.7133C17.2036 55.8433 17.6531 55.5887 17.9982 55.4795C18.7688 55.2355 18.7671 55.2292 19.0143 56.0136C19.0401 56.0945 19.0666 56.1748 19.0904 56.256C19.2814 56.9021 19.4249 56.8292 18.6625 57.0793C18.3573 57.1796 18.055 57.2887 17.747 57.3779C17.5303 57.4405 17.455 57.5451 17.5392 57.774C17.6438 58.0572 17.7311 58.3478 17.8133 58.6387C17.8723 58.8479 17.9806 58.9053 18.1834 58.8342C18.6099 58.6847 19.0429 58.555 19.4697 58.4064C19.6688 58.3367 19.7712 58.3781 19.8347 58.5973C19.9966 59.1551 20.1639 59.7124 20.3605 60.2579C20.471 60.5642 20.3524 60.66 20.092 60.744C18.7453 61.1784 17.4025 61.6253 16.0585 62.0683C14.5901 62.5518 13.1195 63.029 11.6548 63.5248C11.3955 63.6123 11.2154 63.5808 11.0193 63.3848C9.20241 61.569 7.66717 59.5426 6.48407 57.2344C5.4285 55.1743 4.70298 53.0002 4.33406 50.7169C3.88879 47.96 3.93634 45.1941 4.47559 42.4478C4.50076 42.3203 4.64956 42.1603 4.77346 42.1189C7.65011 41.1587 10.5321 40.2148 13.4104 39.2597C13.6263 39.188 13.7256 39.2106 13.7953 39.4501C13.9838 40.0996 14.1969 40.7415 14.4179 41.4425Z" fill="#B78467"/>
<path fill-rule="evenodd" clip-rule="evenodd" d="M4.88574 40.427C5.21326 39.4493 5.51561 38.5372 5.82999 37.6296C5.85516 37.5573 5.95641 37.4898 6.03612 37.4635C8.14473 36.7648 10.255 36.0715 12.3653 35.3785C12.3969 35.3682 12.433 35.3734 12.4887 35.3703C12.7303 36.1367 12.9714 36.9014 13.2181 37.683C10.4656 38.5892 7.72743 39.4914 4.88574 40.427Z" fill="#B78467"/>
<path fill-rule="evenodd" clip-rule="evenodd" d="M23.0378 34.4509C20.2045 35.3842 17.4657 36.2858 14.7077 37.1943C14.4616 36.4141 14.2205 35.6497 13.9727 34.8638C14.0985 34.8158 14.2054 34.7698 14.315 34.7335C16.3003 34.0785 18.2875 33.4287 20.27 32.766C20.4945 32.6911 20.6629 32.7045 20.8551 32.8491C21.5577 33.3773 22.2712 33.8902 23.0378 34.4509Z" fill="#B78467"/>
<path fill-rule="evenodd" clip-rule="evenodd" d="M12.5928 64.8464C15.4249 63.9137 18.1631 63.0121 20.9223 62.1033C21.1679 62.882 21.409 63.6465 21.6576 64.4344C21.5363 64.4812 21.43 64.5275 21.32 64.5635C19.3348 65.2185 17.3481 65.8686 15.3651 66.5311C15.1422 66.6051 14.9735 66.5976 14.7794 66.4513C14.0771 65.9224 13.3625 65.4094 12.5928 64.8464Z" fill="#B78467"/>
<path fill-rule="evenodd" clip-rule="evenodd" d="M22.4136 61.6153C25.1646 60.7094 27.9028 59.8078 30.6698 58.8965C30.6612 58.9742 30.6659 59.0531 30.6436 59.1228C30.3843 59.9276 30.1267 60.7329 29.852 61.5322C29.8112 61.6499 29.7024 61.7937 29.5944 61.83C27.4881 62.5352 25.3772 63.2265 23.2669 63.9195C23.2353 63.9298 23.1992 63.9247 23.143 63.9287C22.9014 63.1619 22.6603 62.3975 22.4136 61.6153Z" fill="#B78467"/>
<path fill-rule="evenodd" clip-rule="evenodd" d="M23.6255 65.4612C25.3685 64.8871 27.0982 64.3176 28.9111 63.7206C27.8304 65.7976 26.6593 67.6885 24.7568 69.0474C24.3706 67.8231 24.0014 66.6526 23.6255 65.4612Z" fill="#B78467"/>
<path fill-rule="evenodd" clip-rule="evenodd" d="M10.8966 30.298C11.2719 31.4877 11.6381 32.6485 12.0123 33.835C10.2687 34.4094 8.53877 34.9789 6.81055 35.5482C7.01053 34.3231 9.70817 30.839 10.8966 30.298Z" fill="#B78467"/>
<path fill-rule="evenodd" clip-rule="evenodd" d="M13.4899 33.3413C13.1185 32.1636 12.7493 30.9931 12.3613 29.7632C14.6864 29.7072 16.7075 30.591 18.7797 31.599C16.9743 32.1936 15.2413 32.7643 13.4899 33.3413Z" fill="#B78467"/>
<path fill-rule="evenodd" clip-rule="evenodd" d="M22.1408 65.956C22.5131 67.136 22.8823 68.3068 23.2696 69.5347C20.9448 69.5896 18.9232 68.7063 16.8481 67.6992C18.6572 67.1034 20.391 66.5324 22.1408 65.956Z" fill="#B78467"/>
<path fill-rule="evenodd" clip-rule="evenodd" d="M8.41328 51.2977C7.6995 51.5423 7.3317 52.3185 7.57951 53.0566C7.81949 53.7716 8.57019 54.1503 9.27138 53.9111C9.96698 53.6733 10.3468 52.9018 10.1216 52.1848C9.89258 51.4543 9.12258 51.0545 8.41328 51.2977ZM6.6831 53.2813C6.3153 52.1059 6.97957 50.7951 8.14226 50.4024C9.30159 50.0112 10.6083 50.7016 10.9837 51.9038C11.3624 53.1167 10.6947 54.4349 9.51415 54.8047C8.3207 55.1791 7.06572 54.5035 6.6831 53.2813Z" fill="#C59D85"/>
<path fill-rule="evenodd" clip-rule="evenodd" d="M8.41338 51.2977C9.12268 51.0545 9.89268 51.4543 10.1217 52.1848C10.3469 52.9018 9.96708 53.6733 9.27148 53.9111C8.57029 54.1503 7.81959 53.7716 7.57961 53.0566C7.33181 52.3185 7.6996 51.5423 8.41338 51.2977Z" fill="#B78467"/>
</g>
</g>
</svg>
