<svg width="22" height="23" viewBox="0 0 22 23" fill="none" xmlns="http://www.w3.org/2000/svg">
<path d="M10 23C11.3797 23 12.4989 21.8809 12.4989 20.5H7.5012C7.5012 21.8809 8.62034 23 10 23ZM18.4137 17.152C17.659 16.341 16.2469 15.1211 16.2469 11.125C16.2469 8.08984 14.1188 5.66016 11.2492 5.06406V4.25C11.2492 3.55977 10.6899 3 10 3C9.31018 3 8.75081 3.55977 8.75081 4.25V5.06406C5.88128 5.66016 3.75315 8.08984 3.75315 11.125C3.75315 15.1211 2.34104 16.341 1.58636 17.152C1.35198 17.4039 1.24807 17.7051 1.25003 18C1.25432 18.6406 1.75706 19.25 2.50393 19.25H17.4961C18.243 19.25 18.7461 18.6406 18.75 18C18.752 17.7051 18.6481 17.4035 18.4137 17.152Z" fill="#C5C7CD"/>
<circle cx="16.25" cy="5.5" r="4.5" fill="#3751FF" stroke="#F7F8FC" stroke-width="1.5"/>
</svg>
