<svg width="347" height="315" viewBox="0 0 347 315" fill="none" xmlns="http://www.w3.org/2000/svg">
<path d="M331 213C339.837 213 347.063 220.174 346.399 228.986C343.409 268.719 329.32 306.936 305.584 339.206C278.678 375.785 240.788 402.808 197.441 416.333C154.093 429.857 107.558 429.175 64.6264 414.386C21.6943 399.597 -15.388 371.474 -41.2093 334.123C-67.0306 296.771 -80.2395 252.145 -78.9085 206.756C-77.5774 161.368 -61.7761 117.592 -33.8103 81.8181C-5.84456 46.0438 32.822 20.1428 76.547 7.89478C115.122 -2.91056 155.852 -2.59094 194.08 8.64866C202.558 11.1412 206.716 20.4357 203.595 28.7025L196.088 48.5823C192.966 56.8491 183.746 60.9359 175.209 58.6564C147.665 51.302 118.55 51.4289 90.9102 59.1711C58.1165 68.3571 29.1166 87.7828 8.14224 114.614C-12.8321 141.444 -24.6831 174.276 -25.6814 208.317C-26.6796 242.359 -16.773 275.828 2.593 303.842C21.959 331.856 49.7707 352.947 81.9698 364.039C114.169 375.131 149.07 375.643 181.58 365.5C214.091 355.356 242.509 335.089 262.688 307.655C279.695 284.533 290.099 257.34 292.95 228.974C293.833 220.181 300.913 213 309.75 213L331 213Z" fill="#3A82D0"/>
</svg>
