<svg width="70" height="70" viewBox="0 0 70 70" fill="none" xmlns="http://www.w3.org/2000/svg">
<path fill-rule="evenodd" clip-rule="evenodd" d="M70 35C70 54.3301 54.3298 70 35 70C15.6699 70 0 54.3301 0 35C0 15.6702 15.6699 0 35 0C54.3298 0 70 15.6702 70 35Z" fill="#404E74"/>
<mask id="mask0" mask-type="alpha" maskUnits="userSpaceOnUse" x="0" y="0" width="70" height="70">
<path fill-rule="evenodd" clip-rule="evenodd" d="M70 35C70 54.3301 54.3298 70 35 70C15.6699 70 0 54.3301 0 35C0 15.6702 15.6699 0 35 0C54.3298 0 70 15.6702 70 35Z" fill="white"/>
</mask>
<g mask="url(#mask0)">
<path fill-rule="evenodd" clip-rule="evenodd" d="M43.624 35.1069C43.624 50.253 39.9012 62.5315 35.3089 62.5315C30.716 62.5315 26.9932 50.253 26.9932 35.1069C26.9932 19.961 30.716 7.68255 35.3089 7.68255C39.9012 7.68255 43.624 19.961 43.624 35.1069Z" stroke="#132A5D" stroke-width="0.84"/>
<path fill-rule="evenodd" clip-rule="evenodd" d="M39.4667 27.941C52.6482 35.514 61.4724 44.8616 59.1764 48.8193C56.8799 52.7769 44.3328 49.846 31.1512 42.2729C17.9697 34.6999 9.14548 25.3525 11.4415 21.3949C13.7378 17.4371 26.2851 20.3679 39.4667 27.941Z" stroke="#132A5D" stroke-width="0.84"/>
<path fill-rule="evenodd" clip-rule="evenodd" d="M31.1512 27.941C44.3328 20.3679 56.8802 17.4371 59.1764 21.3949C61.4724 25.3525 52.6482 34.6999 39.4667 42.2729C26.2851 49.846 13.738 52.7769 11.4415 48.8193C9.14548 44.8616 17.9697 35.514 31.1512 27.941Z" stroke="#132A5D" stroke-width="0.84"/>
<path fill-rule="evenodd" clip-rule="evenodd" d="M39.2081 34.5681C39.2081 36.6809 37.4872 38.3937 35.3637 38.3937C33.2405 38.3937 31.519 36.6809 31.519 34.5681C31.519 32.455 33.2405 30.7423 35.3637 30.7423C37.4872 30.7423 39.2081 32.455 39.2081 34.5681Z" fill="#0084D6"/>
<path fill-rule="evenodd" clip-rule="evenodd" d="M42.6827 14.2048C42.6827 15.4377 41.6786 16.4371 40.4396 16.4371C39.2009 16.4371 38.1968 15.4377 38.1968 14.2048C38.1968 12.9721 39.2009 11.9727 40.4396 11.9727C41.6786 11.9727 42.6827 12.9721 42.6827 14.2048Z" fill="#FE9C86"/>
<path fill-rule="evenodd" clip-rule="evenodd" d="M59.5804 42.4154C59.5804 43.6483 58.576 44.6474 57.337 44.6474C56.0983 44.6474 55.0942 43.6483 55.0942 42.4154C55.0942 41.1827 56.0983 40.1833 57.337 40.1833C58.576 40.1833 59.5804 41.1827 59.5804 42.4154Z" fill="#FE9C86"/>
<path fill-rule="evenodd" clip-rule="evenodd" d="M14.9056 26.4746C14.9056 27.7076 13.9012 28.7067 12.6625 28.7067C11.4235 28.7067 10.4194 27.7076 10.4194 26.4746C10.4194 25.242 11.4235 24.2426 12.6625 24.2426C13.9012 24.2426 14.9056 25.242 14.9056 26.4746Z" fill="#FE9C86"/>
<path fill-rule="evenodd" clip-rule="evenodd" d="M33.246 21.2605H32.0387V38.0126L47.3058 71.1959C47.7073 72.0683 46.9157 72.9994 45.7761 72.9947L5.2702 72.8273C4.13704 72.8225 3.35696 71.8944 3.75792 71.0271L19.0246 37.971V21.2605H17.8169C17.6718 21.2605 17.5539 21.1432 17.5539 20.9988V18.4764C17.5539 18.3318 17.6718 18.2145 17.8169 18.2145H33.246C33.3916 18.2145 33.5092 18.3318 33.5092 18.4764V20.9988C33.5092 21.1432 33.3916 21.2605 33.246 21.2605Z" fill="#F1F1F1"/>
<path fill-rule="evenodd" clip-rule="evenodd" d="M45.2593 71.0009L34.6957 48.0419H16.4397L5.90917 70.8432C5.73641 71.2171 6.07269 71.6178 6.56157 71.6197L44.5996 71.7769C45.0907 71.7788 45.4323 71.3776 45.2593 71.0009Z" fill="#62BBB8"/>
<path fill-rule="evenodd" clip-rule="evenodd" d="M10.7827 70.6627L8.41504 70.617L22.2235 38.9108V19.8332H24.2518V39.329L10.7827 70.6627Z" fill="white" fill-opacity="0.7"/>
<path d="M21.8394 55H31.1872" stroke="#F1F1F1" stroke-width="0.5"/>
<path d="M23.2314 59H29.7946" stroke="#F1F1F1" stroke-width="0.5"/>
<path d="M23.2314 51H29.7946" stroke="#F1F1F1" stroke-width="0.5"/>
<path d="M21.8394 63H31.1872" stroke="#F1F1F1" stroke-width="0.5"/>
<path d="M23.2314 68H29.7946" stroke="#F1F1F1" stroke-width="0.5"/>
<path fill-rule="evenodd" clip-rule="evenodd" d="M27.7745 12.4612C27.7745 13.6169 26.8329 14.5539 25.6712 14.5539C24.51 14.5539 23.5684 13.6169 23.5684 12.4612C23.5684 11.3054 24.51 10.3684 25.6712 10.3684C26.8329 10.3684 27.7745 11.3054 27.7745 12.4612Z" fill="#62BBB8"/>
<path fill-rule="evenodd" clip-rule="evenodd" d="M26.9678 11.6835C26.9678 12.0819 26.6436 12.4046 26.2432 12.4046C25.8431 12.4046 25.5186 12.0819 25.5186 11.6835C25.5186 11.2854 25.8431 10.9627 26.2432 10.9627C26.6436 10.9627 26.9678 11.2854 26.9678 11.6835Z" fill="white"/>
<path fill-rule="evenodd" clip-rule="evenodd" d="M29.6812 7.62875C29.6812 8.37993 29.0691 8.989 28.3142 8.989C27.5593 8.989 26.9473 8.37993 26.9473 7.62875C26.9473 6.87758 27.5593 6.2685 28.3142 6.2685C29.0691 6.2685 29.6812 6.87758 29.6812 7.62875Z" fill="#62BBB8"/>
<path fill-rule="evenodd" clip-rule="evenodd" d="M23.9214 6.05903C23.9214 6.8102 23.3093 7.41928 22.5545 7.41928C21.7996 7.41928 21.1875 6.8102 21.1875 6.05903C21.1875 5.30785 21.7996 4.69878 22.5545 4.69878C23.3093 4.69878 23.9214 5.30785 23.9214 6.05903Z" fill="#62BBB8"/>
<path fill-rule="evenodd" clip-rule="evenodd" d="M29.2204 7.0764C29.2204 7.32131 29.0208 7.51997 28.7744 7.51997C28.5283 7.51997 28.3286 7.32131 28.3286 7.0764C28.3286 6.83149 28.5283 6.63283 28.7744 6.63283C29.0208 6.63283 29.2204 6.83149 29.2204 7.0764Z" fill="white"/>
<path fill-rule="evenodd" clip-rule="evenodd" d="M23.7424 5.71701C23.7424 5.96193 23.5427 6.16059 23.2966 6.16059C23.0502 6.16059 22.8506 5.96193 22.8506 5.71701C22.8506 5.47182 23.0502 5.27316 23.2966 5.27316C23.5427 5.27316 23.7424 5.47182 23.7424 5.71701Z" fill="white"/>
</g>
</svg>
